<?xml version="1.0" encoding="utf-8" standalone="no"?>
<!DOCTYPE svg PUBLIC "-//W3C//DTD SVG 1.1//EN"
  "http://www.w3.org/Graphics/SVG/1.1/DTD/svg11.dtd">
<!-- Created with matplotlib (https://matplotlib.org/) -->
<svg height="342.838125pt" version="1.1" viewBox="0 0 492.421591 342.838125" width="492.421591pt" xmlns="http://www.w3.org/2000/svg" xmlns:xlink="http://www.w3.org/1999/xlink">
 <metadata>
  <rdf:RDF xmlns:cc="http://creativecommons.org/ns#" xmlns:dc="http://purl.org/dc/elements/1.1/" xmlns:rdf="http://www.w3.org/1999/02/22-rdf-syntax-ns#">
   <cc:Work>
    <dc:type rdf:resource="http://purl.org/dc/dcmitype/StillImage"/>
    <dc:date>2020-12-14T15:23:44.549830</dc:date>
    <dc:format>image/svg+xml</dc:format>
    <dc:creator>
     <cc:Agent>
      <dc:title>Matplotlib v3.3.2, https://matplotlib.org/</dc:title>
     </cc:Agent>
    </dc:creator>
   </cc:Work>
  </rdf:RDF>
 </metadata>
 <defs>
  <style type="text/css">*{stroke-linecap:butt;stroke-linejoin:round;}</style>
 </defs>
 <g id="figure_1">
  <g id="patch_1">
   <path d="M 0 342.838125 
L 492.421591 342.838125 
L 492.421591 0 
L 0 0 
z
" style="fill:none;"/>
  </g>
  <g id="axes_1">
   <g id="patch_2">
    <path d="M 24.6 326.16 
L 471 326.16 
L 471 -0 
L 24.6 -0 
z
" style="fill:none;"/>
   </g>
   <g id="line2d_1">
    <path clip-path="url(#p26ebb03c24)" d="M 90.839924 310.144889 
L 114.635544 246.245418 
" style="fill:none;stroke:#000000;stroke-linecap:square;stroke-opacity:0.4;stroke-width:0.5;"/>
   </g>
   <g id="line2d_2">
    <path clip-path="url(#p26ebb03c24)" d="M 118.376507 250.037885 
L 246.063731 196.429092 
" style="fill:none;stroke:#000000;stroke-linecap:square;stroke-opacity:0.4;stroke-width:0.5;"/>
   </g>
   <g id="line2d_3">
    <path clip-path="url(#p26ebb03c24)" d="M 173.602032 164.951324 
L 273.15692 171.466267 
" style="fill:none;stroke:#000000;stroke-linecap:square;stroke-opacity:0.4;stroke-width:0.5;"/>
   </g>
   <g id="line2d_4">
    <path clip-path="url(#p26ebb03c24)" d="M 199.68085 168.235421 
L 252.826378 189.978569 
" style="fill:none;stroke:#000000;stroke-linecap:square;stroke-opacity:0.4;stroke-width:0.5;"/>
   </g>
   <g id="line2d_5">
    <path clip-path="url(#p26ebb03c24)" d="M 187.738018 189.129603 
L 83.721738 311.334545 
" style="fill:none;stroke:#000000;stroke-linecap:square;stroke-opacity:0.4;stroke-width:0.5;"/>
   </g>
   <g id="line2d_6">
    <path clip-path="url(#p26ebb03c24)" d="M 101.972153 272.460209 
L 274.978043 167.328283 
" style="fill:none;stroke:#000000;stroke-linecap:square;stroke-opacity:0.4;stroke-width:0.5;"/>
   </g>
   <g id="line2d_7">
    <path clip-path="url(#p26ebb03c24)" d="M 100.991165 254.912913 
L 192.296862 275.322169 
" style="fill:none;stroke:#000000;stroke-linecap:square;stroke-opacity:0.4;stroke-width:0.5;"/>
   </g>
   <g id="line2d_8">
    <path clip-path="url(#p26ebb03c24)" d="M 74.092248 274.925656 
L 127.460044 306.554941 
" style="fill:none;stroke:#000000;stroke-linecap:square;stroke-opacity:0.4;stroke-width:0.5;"/>
   </g>
   <g id="line2d_9">
    <path clip-path="url(#p26ebb03c24)" d="M 227.074654 128.719287 
L 337.008368 131.722082 
" style="fill:none;stroke:#000000;stroke-linecap:square;stroke-opacity:0.4;stroke-width:0.5;"/>
   </g>
   <g id="line2d_10">
    <path clip-path="url(#p26ebb03c24)" d="M 227.29366 167.388928 
L 307.504951 156.195929 
" style="fill:none;stroke:#000000;stroke-linecap:square;stroke-opacity:0.4;stroke-width:0.5;"/>
   </g>
   <g id="line2d_11">
    <path clip-path="url(#p26ebb03c24)" d="M 44.890909 292.214492 
L 203.547704 199.731762 
" style="fill:none;stroke:#000000;stroke-linecap:square;stroke-opacity:0.4;stroke-width:0.5;"/>
   </g>
   <g id="line2d_12">
    <path clip-path="url(#p26ebb03c24)" d="M 49.154612 255.719954 
L 241.407113 179.806282 
" style="fill:none;stroke:#000000;stroke-linecap:square;stroke-opacity:0.4;stroke-width:0.5;"/>
   </g>
   <g id="line2d_13">
    <path clip-path="url(#p26ebb03c24)" d="M 298.572217 135.460893 
L 402.831532 84.056804 
" style="fill:none;stroke:#000000;stroke-linecap:square;stroke-opacity:0.4;stroke-width:0.5;"/>
   </g>
   <g id="line2d_14">
    <path clip-path="url(#p26ebb03c24)" d="M 132.240798 220.825067 
L 163.15403 270.51121 
" style="fill:none;stroke:#000000;stroke-linecap:square;stroke-opacity:0.4;stroke-width:0.5;"/>
   </g>
   <g id="line2d_15">
    <path clip-path="url(#p26ebb03c24)" d="M 236.260344 123.660588 
L 322.848362 129.683313 
" style="fill:none;stroke:#000000;stroke-linecap:square;stroke-opacity:0.4;stroke-width:0.5;"/>
   </g>
   <g id="line2d_16">
    <path clip-path="url(#p26ebb03c24)" d="M 126.015237 239.413377 
L 215.648471 226.226541 
" style="fill:none;stroke:#000000;stroke-linecap:square;stroke-opacity:0.4;stroke-width:0.5;"/>
   </g>
   <g id="line2d_17">
    <path clip-path="url(#p26ebb03c24)" d="M 164.122598 180.090345 
L 274.179318 194.90845 
" style="fill:none;stroke:#000000;stroke-linecap:square;stroke-opacity:0.4;stroke-width:0.5;"/>
   </g>
   <g id="line2d_18">
    <path clip-path="url(#p26ebb03c24)" d="M 83.773148 283.439913 
L 142.147474 304.04093 
" style="fill:none;stroke:#000000;stroke-linecap:square;stroke-opacity:0.4;stroke-width:0.5;"/>
   </g>
   <g id="line2d_19">
    <path clip-path="url(#p26ebb03c24)" d="M 150.935188 223.899649 
L 305.533094 140.068369 
" style="fill:none;stroke:#000000;stroke-linecap:square;stroke-opacity:0.4;stroke-width:0.5;"/>
   </g>
   <g id="line2d_20">
    <path clip-path="url(#p26ebb03c24)" d="M 160.263075 222.306479 
L 245.576552 195.676942 
" style="fill:none;stroke:#000000;stroke-linecap:square;stroke-opacity:0.4;stroke-width:0.5;"/>
   </g>
   <g id="line2d_21">
    <path clip-path="url(#p26ebb03c24)" d="M 287.620653 159.450862 
L 330.403761 124.276066 
" style="fill:none;stroke:#000000;stroke-linecap:square;stroke-opacity:0.4;stroke-width:0.5;"/>
   </g>
   <g id="line2d_22">
    <path clip-path="url(#p26ebb03c24)" d="M 238.716889 130.408793 
L 319.564162 143.083336 
" style="fill:none;stroke:#000000;stroke-linecap:square;stroke-opacity:0.4;stroke-width:0.5;"/>
   </g>
   <g id="line2d_23">
    <path clip-path="url(#p26ebb03c24)" d="M 180.806635 182.599583 
L 236.900178 219.195856 
" style="fill:none;stroke:#000000;stroke-linecap:square;stroke-opacity:0.4;stroke-width:0.5;"/>
   </g>
   <g id="line2d_24">
    <path clip-path="url(#p26ebb03c24)" d="M 143.880079 216.945366 
L 251.839725 193.889766 
" style="fill:none;stroke:#000000;stroke-linecap:square;stroke-opacity:0.4;stroke-width:0.5;"/>
   </g>
   <g id="line2d_25">
    <path clip-path="url(#p26ebb03c24)" d="M 358.535486 79.361063 
L 418.944284 74.267334 
" style="fill:none;stroke:#000000;stroke-linecap:square;stroke-opacity:0.4;stroke-width:0.5;"/>
   </g>
   <g id="line2d_26">
    <path clip-path="url(#p26ebb03c24)" d="M 168.258793 227.319393 
L 294.263856 153.118451 
" style="fill:none;stroke:#000000;stroke-linecap:square;stroke-opacity:0.4;stroke-width:0.5;"/>
   </g>
   <g id="line2d_27">
    <path clip-path="url(#p26ebb03c24)" d="M 244.590968 118.596966 
L 321.578815 137.076622 
" style="fill:none;stroke:#000000;stroke-linecap:square;stroke-opacity:0.4;stroke-width:0.5;"/>
   </g>
   <g id="PathCollection_1">
    <defs>
     <path d="M 0 3 
C 0.795609 3 1.55874 2.683901 2.12132 2.12132 
C 2.683901 1.55874 3 0.795609 3 0 
C 3 -0.795609 2.683901 -1.55874 2.12132 -2.12132 
C 1.55874 -2.683901 0.795609 -3 0 -3 
C -0.795609 -3 -1.55874 -2.683901 -2.12132 -2.12132 
C -2.683901 -1.55874 -3 -0.795609 -3 0 
C -3 0.795609 -2.683901 1.55874 -2.12132 2.12132 
C -1.55874 2.683901 -0.795609 3 0 3 
z
" id="mcc61df13d9" style="stroke:#6495ed;"/>
    </defs>
    <g clip-path="url(#p26ebb03c24)">
     <use style="fill:#6495ed;stroke:#6495ed;" x="90.839924" xlink:href="#mcc61df13d9" y="310.144889"/>
     <use style="fill:#6495ed;stroke:#6495ed;" x="118.376507" xlink:href="#mcc61df13d9" y="250.037885"/>
     <use style="fill:#6495ed;stroke:#6495ed;" x="173.602032" xlink:href="#mcc61df13d9" y="164.951324"/>
     <use style="fill:#6495ed;stroke:#6495ed;" x="199.68085" xlink:href="#mcc61df13d9" y="168.235421"/>
     <use style="fill:#6495ed;stroke:#6495ed;" x="187.738018" xlink:href="#mcc61df13d9" y="189.129603"/>
     <use style="fill:#6495ed;stroke:#6495ed;" x="101.972153" xlink:href="#mcc61df13d9" y="272.460209"/>
     <use style="fill:#6495ed;stroke:#6495ed;" x="100.991165" xlink:href="#mcc61df13d9" y="254.912913"/>
     <use style="fill:#6495ed;stroke:#6495ed;" x="74.092248" xlink:href="#mcc61df13d9" y="274.925656"/>
     <use style="fill:#6495ed;stroke:#6495ed;" x="227.074654" xlink:href="#mcc61df13d9" y="128.719287"/>
     <use style="fill:#6495ed;stroke:#6495ed;" x="227.29366" xlink:href="#mcc61df13d9" y="167.388928"/>
     <use style="fill:#6495ed;stroke:#6495ed;" x="44.890909" xlink:href="#mcc61df13d9" y="292.214492"/>
     <use style="fill:#6495ed;stroke:#6495ed;" x="49.154612" xlink:href="#mcc61df13d9" y="255.719954"/>
     <use style="fill:#6495ed;stroke:#6495ed;" x="298.572217" xlink:href="#mcc61df13d9" y="135.460893"/>
     <use style="fill:#6495ed;stroke:#6495ed;" x="132.240798" xlink:href="#mcc61df13d9" y="220.825067"/>
     <use style="fill:#6495ed;stroke:#6495ed;" x="236.260344" xlink:href="#mcc61df13d9" y="123.660588"/>
     <use style="fill:#6495ed;stroke:#6495ed;" x="126.015237" xlink:href="#mcc61df13d9" y="239.413377"/>
     <use style="fill:#6495ed;stroke:#6495ed;" x="164.122598" xlink:href="#mcc61df13d9" y="180.090345"/>
     <use style="fill:#6495ed;stroke:#6495ed;" x="83.773148" xlink:href="#mcc61df13d9" y="283.439913"/>
     <use style="fill:#6495ed;stroke:#6495ed;" x="150.935188" xlink:href="#mcc61df13d9" y="223.899649"/>
     <use style="fill:#6495ed;stroke:#6495ed;" x="160.263075" xlink:href="#mcc61df13d9" y="222.306479"/>
     <use style="fill:#6495ed;stroke:#6495ed;" x="287.620653" xlink:href="#mcc61df13d9" y="159.450862"/>
     <use style="fill:#6495ed;stroke:#6495ed;" x="238.716889" xlink:href="#mcc61df13d9" y="130.408793"/>
     <use style="fill:#6495ed;stroke:#6495ed;" x="180.806635" xlink:href="#mcc61df13d9" y="182.599583"/>
     <use style="fill:#6495ed;stroke:#6495ed;" x="143.880079" xlink:href="#mcc61df13d9" y="216.945366"/>
     <use style="fill:#6495ed;stroke:#6495ed;" x="358.535486" xlink:href="#mcc61df13d9" y="79.361063"/>
     <use style="fill:#6495ed;stroke:#6495ed;" x="168.258793" xlink:href="#mcc61df13d9" y="227.319393"/>
     <use style="fill:#6495ed;stroke:#6495ed;" x="244.590968" xlink:href="#mcc61df13d9" y="118.596966"/>
    </g>
   </g>
   <g id="PathCollection_2">
    <defs>
     <path d="M 0 3 
C 0.795609 3 1.55874 2.683901 2.12132 2.12132 
C 2.683901 1.55874 3 0.795609 3 0 
C 3 -0.795609 2.683901 -1.55874 2.12132 -2.12132 
C 1.55874 -2.683901 0.795609 -3 0 -3 
C -0.795609 -3 -1.55874 -2.683901 -2.12132 -2.12132 
C -2.683901 -1.55874 -3 -0.795609 -3 0 
C -3 0.795609 -2.683901 1.55874 -2.12132 2.12132 
C -1.55874 2.683901 -0.795609 3 0 3 
z
" id="mbfa9caa768" style="stroke:#daa520;"/>
    </defs>
    <g clip-path="url(#p26ebb03c24)">
     <use style="fill:#daa520;stroke:#daa520;" x="114.635544" xlink:href="#mbfa9caa768" y="246.245418"/>
     <use style="fill:#daa520;stroke:#daa520;" x="246.063731" xlink:href="#mbfa9caa768" y="196.429092"/>
     <use style="fill:#daa520;stroke:#daa520;" x="273.15692" xlink:href="#mbfa9caa768" y="171.466267"/>
     <use style="fill:#daa520;stroke:#daa520;" x="252.826378" xlink:href="#mbfa9caa768" y="189.978569"/>
     <use style="fill:#daa520;stroke:#daa520;" x="83.721738" xlink:href="#mbfa9caa768" y="311.334545"/>
     <use style="fill:#daa520;stroke:#daa520;" x="274.978043" xlink:href="#mbfa9caa768" y="167.328283"/>
     <use style="fill:#daa520;stroke:#daa520;" x="192.296862" xlink:href="#mbfa9caa768" y="275.322169"/>
     <use style="fill:#daa520;stroke:#daa520;" x="127.460044" xlink:href="#mbfa9caa768" y="306.554941"/>
     <use style="fill:#daa520;stroke:#daa520;" x="337.008368" xlink:href="#mbfa9caa768" y="131.722082"/>
     <use style="fill:#daa520;stroke:#daa520;" x="307.504951" xlink:href="#mbfa9caa768" y="156.195929"/>
     <use style="fill:#daa520;stroke:#daa520;" x="203.547704" xlink:href="#mbfa9caa768" y="199.731762"/>
     <use style="fill:#daa520;stroke:#daa520;" x="241.407113" xlink:href="#mbfa9caa768" y="179.806282"/>
     <use style="fill:#daa520;stroke:#daa520;" x="402.831532" xlink:href="#mbfa9caa768" y="84.056804"/>
     <use style="fill:#daa520;stroke:#daa520;" x="163.15403" xlink:href="#mbfa9caa768" y="270.51121"/>
     <use style="fill:#daa520;stroke:#daa520;" x="322.848362" xlink:href="#mbfa9caa768" y="129.683313"/>
     <use style="fill:#daa520;stroke:#daa520;" x="215.648471" xlink:href="#mbfa9caa768" y="226.226541"/>
     <use style="fill:#daa520;stroke:#daa520;" x="274.179318" xlink:href="#mbfa9caa768" y="194.90845"/>
     <use style="fill:#daa520;stroke:#daa520;" x="142.147474" xlink:href="#mbfa9caa768" y="304.04093"/>
     <use style="fill:#daa520;stroke:#daa520;" x="305.533094" xlink:href="#mbfa9caa768" y="140.068369"/>
     <use style="fill:#daa520;stroke:#daa520;" x="245.576552" xlink:href="#mbfa9caa768" y="195.676942"/>
     <use style="fill:#daa520;stroke:#daa520;" x="330.403761" xlink:href="#mbfa9caa768" y="124.276066"/>
     <use style="fill:#daa520;stroke:#daa520;" x="319.564162" xlink:href="#mbfa9caa768" y="143.083336"/>
     <use style="fill:#daa520;stroke:#daa520;" x="236.900178" xlink:href="#mbfa9caa768" y="219.195856"/>
     <use style="fill:#daa520;stroke:#daa520;" x="251.839725" xlink:href="#mbfa9caa768" y="193.889766"/>
     <use style="fill:#daa520;stroke:#daa520;" x="418.944284" xlink:href="#mbfa9caa768" y="74.267334"/>
     <use style="fill:#daa520;stroke:#daa520;" x="294.263856" xlink:href="#mbfa9caa768" y="153.118451"/>
     <use style="fill:#daa520;stroke:#daa520;" x="321.578815" xlink:href="#mbfa9caa768" y="137.076622"/>
    </g>
   </g>
   <g id="matplotlib.axis_1">
    <g id="xtick_1">
     <g id="line2d_28">
      <defs>
       <path d="M 0 0 
L 0 3.5 
" id="me8d91029c3" style="stroke:#000000;stroke-width:0.8;"/>
      </defs>
      <g>
       <use style="stroke:#000000;stroke-width:0.8;" x="88.640756" xlink:href="#me8d91029c3" y="326.16"/>
      </g>
     </g>
     <g id="text_1">
      <!-- $\mathdefault{10^{4}}$ -->
      <g transform="translate(79.840756 340.758438)scale(0.1 -0.1)">
       <defs>
        <path d="M 12.40625 8.296875 
L 28.515625 8.296875 
L 28.515625 63.921875 
L 10.984375 60.40625 
L 10.984375 69.390625 
L 28.421875 72.90625 
L 38.28125 72.90625 
L 38.28125 8.296875 
L 54.390625 8.296875 
L 54.390625 0 
L 12.40625 0 
z
" id="DejaVuSans-49"/>
        <path d="M 31.78125 66.40625 
Q 24.171875 66.40625 20.328125 58.90625 
Q 16.5 51.421875 16.5 36.375 
Q 16.5 21.390625 20.328125 13.890625 
Q 24.171875 6.390625 31.78125 6.390625 
Q 39.453125 6.390625 43.28125 13.890625 
Q 47.125 21.390625 47.125 36.375 
Q 47.125 51.421875 43.28125 58.90625 
Q 39.453125 66.40625 31.78125 66.40625 
z
M 31.78125 74.21875 
Q 44.046875 74.21875 50.515625 64.515625 
Q 56.984375 54.828125 56.984375 36.375 
Q 56.984375 17.96875 50.515625 8.265625 
Q 44.046875 -1.421875 31.78125 -1.421875 
Q 19.53125 -1.421875 13.0625 8.265625 
Q 6.59375 17.96875 6.59375 36.375 
Q 6.59375 54.828125 13.0625 64.515625 
Q 19.53125 74.21875 31.78125 74.21875 
z
" id="DejaVuSans-48"/>
        <path d="M 37.796875 64.3125 
L 12.890625 25.390625 
L 37.796875 25.390625 
z
M 35.203125 72.90625 
L 47.609375 72.90625 
L 47.609375 25.390625 
L 58.015625 25.390625 
L 58.015625 17.1875 
L 47.609375 17.1875 
L 47.609375 0 
L 37.796875 0 
L 37.796875 17.1875 
L 4.890625 17.1875 
L 4.890625 26.703125 
z
" id="DejaVuSans-52"/>
       </defs>
       <use transform="translate(0 0.684375)" xlink:href="#DejaVuSans-49"/>
       <use transform="translate(63.623047 0.684375)" xlink:href="#DejaVuSans-48"/>
       <use transform="translate(128.203125 38.965625)scale(0.7)" xlink:href="#DejaVuSans-52"/>
      </g>
     </g>
    </g>
    <g id="xtick_2">
     <g id="line2d_29">
      <g>
       <use style="stroke:#000000;stroke-width:0.8;" x="195.131443" xlink:href="#me8d91029c3" y="326.16"/>
      </g>
     </g>
     <g id="text_2">
      <!-- $\mathdefault{10^{5}}$ -->
      <g transform="translate(186.331443 340.758438)scale(0.1 -0.1)">
       <defs>
        <path d="M 10.796875 72.90625 
L 49.515625 72.90625 
L 49.515625 64.59375 
L 19.828125 64.59375 
L 19.828125 46.734375 
Q 21.96875 47.46875 24.109375 47.828125 
Q 26.265625 48.1875 28.421875 48.1875 
Q 40.625 48.1875 47.75 41.5 
Q 54.890625 34.8125 54.890625 23.390625 
Q 54.890625 11.625 47.5625 5.09375 
Q 40.234375 -1.421875 26.90625 -1.421875 
Q 22.3125 -1.421875 17.546875 -0.640625 
Q 12.796875 0.140625 7.71875 1.703125 
L 7.71875 11.625 
Q 12.109375 9.234375 16.796875 8.0625 
Q 21.484375 6.890625 26.703125 6.890625 
Q 35.15625 6.890625 40.078125 11.328125 
Q 45.015625 15.765625 45.015625 23.390625 
Q 45.015625 31 40.078125 35.4375 
Q 35.15625 39.890625 26.703125 39.890625 
Q 22.75 39.890625 18.8125 39.015625 
Q 14.890625 38.140625 10.796875 36.28125 
z
" id="DejaVuSans-53"/>
       </defs>
       <use transform="translate(0 0.684375)" xlink:href="#DejaVuSans-49"/>
       <use transform="translate(63.623047 0.684375)" xlink:href="#DejaVuSans-48"/>
       <use transform="translate(128.203125 38.965625)scale(0.7)" xlink:href="#DejaVuSans-53"/>
      </g>
     </g>
    </g>
    <g id="xtick_3">
     <g id="line2d_30">
      <g>
       <use style="stroke:#000000;stroke-width:0.8;" x="301.622129" xlink:href="#me8d91029c3" y="326.16"/>
      </g>
     </g>
     <g id="text_3">
      <!-- $\mathdefault{10^{6}}$ -->
      <g transform="translate(292.822129 340.758438)scale(0.1 -0.1)">
       <defs>
        <path d="M 33.015625 40.375 
Q 26.375 40.375 22.484375 35.828125 
Q 18.609375 31.296875 18.609375 23.390625 
Q 18.609375 15.53125 22.484375 10.953125 
Q 26.375 6.390625 33.015625 6.390625 
Q 39.65625 6.390625 43.53125 10.953125 
Q 47.40625 15.53125 47.40625 23.390625 
Q 47.40625 31.296875 43.53125 35.828125 
Q 39.65625 40.375 33.015625 40.375 
z
M 52.59375 71.296875 
L 52.59375 62.3125 
Q 48.875 64.0625 45.09375 64.984375 
Q 41.3125 65.921875 37.59375 65.921875 
Q 27.828125 65.921875 22.671875 59.328125 
Q 17.53125 52.734375 16.796875 39.40625 
Q 19.671875 43.65625 24.015625 45.921875 
Q 28.375 48.1875 33.59375 48.1875 
Q 44.578125 48.1875 50.953125 41.515625 
Q 57.328125 34.859375 57.328125 23.390625 
Q 57.328125 12.15625 50.6875 5.359375 
Q 44.046875 -1.421875 33.015625 -1.421875 
Q 20.359375 -1.421875 13.671875 8.265625 
Q 6.984375 17.96875 6.984375 36.375 
Q 6.984375 53.65625 15.1875 63.9375 
Q 23.390625 74.21875 37.203125 74.21875 
Q 40.921875 74.21875 44.703125 73.484375 
Q 48.484375 72.75 52.59375 71.296875 
z
" id="DejaVuSans-54"/>
       </defs>
       <use transform="translate(0 0.765625)" xlink:href="#DejaVuSans-49"/>
       <use transform="translate(63.623047 0.765625)" xlink:href="#DejaVuSans-48"/>
       <use transform="translate(128.203125 39.046875)scale(0.7)" xlink:href="#DejaVuSans-54"/>
      </g>
     </g>
    </g>
    <g id="xtick_4">
     <g id="line2d_31">
      <g>
       <use style="stroke:#000000;stroke-width:0.8;" x="408.112816" xlink:href="#me8d91029c3" y="326.16"/>
      </g>
     </g>
     <g id="text_4">
      <!-- $\mathdefault{10^{7}}$ -->
      <g transform="translate(399.312816 340.758438)scale(0.1 -0.1)">
       <defs>
        <path d="M 8.203125 72.90625 
L 55.078125 72.90625 
L 55.078125 68.703125 
L 28.609375 0 
L 18.3125 0 
L 43.21875 64.59375 
L 8.203125 64.59375 
z
" id="DejaVuSans-55"/>
       </defs>
       <use transform="translate(0 0.684375)" xlink:href="#DejaVuSans-49"/>
       <use transform="translate(63.623047 0.684375)" xlink:href="#DejaVuSans-48"/>
       <use transform="translate(128.203125 38.965625)scale(0.7)" xlink:href="#DejaVuSans-55"/>
      </g>
     </g>
    </g>
    <g id="xtick_5">
     <g id="line2d_32">
      <defs>
       <path d="M 0 0 
L 0 2 
" id="m6494cb6cc6" style="stroke:#000000;stroke-width:0.6;"/>
      </defs>
      <g>
       <use style="stroke:#000000;stroke-width:0.6;" x="32.959039" xlink:href="#m6494cb6cc6" y="326.16"/>
      </g>
     </g>
    </g>
    <g id="xtick_6">
     <g id="line2d_33">
      <g>
       <use style="stroke:#000000;stroke-width:0.6;" x="46.263851" xlink:href="#m6494cb6cc6" y="326.16"/>
      </g>
     </g>
    </g>
    <g id="xtick_7">
     <g id="line2d_34">
      <g>
       <use style="stroke:#000000;stroke-width:0.6;" x="56.583865" xlink:href="#m6494cb6cc6" y="326.16"/>
      </g>
     </g>
    </g>
    <g id="xtick_8">
     <g id="line2d_35">
      <g>
       <use style="stroke:#000000;stroke-width:0.6;" x="65.01593" xlink:href="#m6494cb6cc6" y="326.16"/>
      </g>
     </g>
    </g>
    <g id="xtick_9">
     <g id="line2d_36">
      <g>
       <use style="stroke:#000000;stroke-width:0.6;" x="72.14514" xlink:href="#m6494cb6cc6" y="326.16"/>
      </g>
     </g>
    </g>
    <g id="xtick_10">
     <g id="line2d_37">
      <g>
       <use style="stroke:#000000;stroke-width:0.6;" x="78.320742" xlink:href="#m6494cb6cc6" y="326.16"/>
      </g>
     </g>
    </g>
    <g id="xtick_11">
     <g id="line2d_38">
      <g>
       <use style="stroke:#000000;stroke-width:0.6;" x="83.768009" xlink:href="#m6494cb6cc6" y="326.16"/>
      </g>
     </g>
    </g>
    <g id="xtick_12">
     <g id="line2d_39">
      <g>
       <use style="stroke:#000000;stroke-width:0.6;" x="120.697647" xlink:href="#m6494cb6cc6" y="326.16"/>
      </g>
     </g>
    </g>
    <g id="xtick_13">
     <g id="line2d_40">
      <g>
       <use style="stroke:#000000;stroke-width:0.6;" x="139.449726" xlink:href="#m6494cb6cc6" y="326.16"/>
      </g>
     </g>
    </g>
    <g id="xtick_14">
     <g id="line2d_41">
      <g>
       <use style="stroke:#000000;stroke-width:0.6;" x="152.754538" xlink:href="#m6494cb6cc6" y="326.16"/>
      </g>
     </g>
    </g>
    <g id="xtick_15">
     <g id="line2d_42">
      <g>
       <use style="stroke:#000000;stroke-width:0.6;" x="163.074552" xlink:href="#m6494cb6cc6" y="326.16"/>
      </g>
     </g>
    </g>
    <g id="xtick_16">
     <g id="line2d_43">
      <g>
       <use style="stroke:#000000;stroke-width:0.6;" x="171.506617" xlink:href="#m6494cb6cc6" y="326.16"/>
      </g>
     </g>
    </g>
    <g id="xtick_17">
     <g id="line2d_44">
      <g>
       <use style="stroke:#000000;stroke-width:0.6;" x="178.635827" xlink:href="#m6494cb6cc6" y="326.16"/>
      </g>
     </g>
    </g>
    <g id="xtick_18">
     <g id="line2d_45">
      <g>
       <use style="stroke:#000000;stroke-width:0.6;" x="184.811429" xlink:href="#m6494cb6cc6" y="326.16"/>
      </g>
     </g>
    </g>
    <g id="xtick_19">
     <g id="line2d_46">
      <g>
       <use style="stroke:#000000;stroke-width:0.6;" x="190.258696" xlink:href="#m6494cb6cc6" y="326.16"/>
      </g>
     </g>
    </g>
    <g id="xtick_20">
     <g id="line2d_47">
      <g>
       <use style="stroke:#000000;stroke-width:0.6;" x="227.188334" xlink:href="#m6494cb6cc6" y="326.16"/>
      </g>
     </g>
    </g>
    <g id="xtick_21">
     <g id="line2d_48">
      <g>
       <use style="stroke:#000000;stroke-width:0.6;" x="245.940413" xlink:href="#m6494cb6cc6" y="326.16"/>
      </g>
     </g>
    </g>
    <g id="xtick_22">
     <g id="line2d_49">
      <g>
       <use style="stroke:#000000;stroke-width:0.6;" x="259.245225" xlink:href="#m6494cb6cc6" y="326.16"/>
      </g>
     </g>
    </g>
    <g id="xtick_23">
     <g id="line2d_50">
      <g>
       <use style="stroke:#000000;stroke-width:0.6;" x="269.565238" xlink:href="#m6494cb6cc6" y="326.16"/>
      </g>
     </g>
    </g>
    <g id="xtick_24">
     <g id="line2d_51">
      <g>
       <use style="stroke:#000000;stroke-width:0.6;" x="277.997304" xlink:href="#m6494cb6cc6" y="326.16"/>
      </g>
     </g>
    </g>
    <g id="xtick_25">
     <g id="line2d_52">
      <g>
       <use style="stroke:#000000;stroke-width:0.6;" x="285.126513" xlink:href="#m6494cb6cc6" y="326.16"/>
      </g>
     </g>
    </g>
    <g id="xtick_26">
     <g id="line2d_53">
      <g>
       <use style="stroke:#000000;stroke-width:0.6;" x="291.302116" xlink:href="#m6494cb6cc6" y="326.16"/>
      </g>
     </g>
    </g>
    <g id="xtick_27">
     <g id="line2d_54">
      <g>
       <use style="stroke:#000000;stroke-width:0.6;" x="296.749383" xlink:href="#m6494cb6cc6" y="326.16"/>
      </g>
     </g>
    </g>
    <g id="xtick_28">
     <g id="line2d_55">
      <g>
       <use style="stroke:#000000;stroke-width:0.6;" x="333.67902" xlink:href="#m6494cb6cc6" y="326.16"/>
      </g>
     </g>
    </g>
    <g id="xtick_29">
     <g id="line2d_56">
      <g>
       <use style="stroke:#000000;stroke-width:0.6;" x="352.4311" xlink:href="#m6494cb6cc6" y="326.16"/>
      </g>
     </g>
    </g>
    <g id="xtick_30">
     <g id="line2d_57">
      <g>
       <use style="stroke:#000000;stroke-width:0.6;" x="365.735911" xlink:href="#m6494cb6cc6" y="326.16"/>
      </g>
     </g>
    </g>
    <g id="xtick_31">
     <g id="line2d_58">
      <g>
       <use style="stroke:#000000;stroke-width:0.6;" x="376.055925" xlink:href="#m6494cb6cc6" y="326.16"/>
      </g>
     </g>
    </g>
    <g id="xtick_32">
     <g id="line2d_59">
      <g>
       <use style="stroke:#000000;stroke-width:0.6;" x="384.48799" xlink:href="#m6494cb6cc6" y="326.16"/>
      </g>
     </g>
    </g>
    <g id="xtick_33">
     <g id="line2d_60">
      <g>
       <use style="stroke:#000000;stroke-width:0.6;" x="391.6172" xlink:href="#m6494cb6cc6" y="326.16"/>
      </g>
     </g>
    </g>
    <g id="xtick_34">
     <g id="line2d_61">
      <g>
       <use style="stroke:#000000;stroke-width:0.6;" x="397.792802" xlink:href="#m6494cb6cc6" y="326.16"/>
      </g>
     </g>
    </g>
    <g id="xtick_35">
     <g id="line2d_62">
      <g>
       <use style="stroke:#000000;stroke-width:0.6;" x="403.24007" xlink:href="#m6494cb6cc6" y="326.16"/>
      </g>
     </g>
    </g>
    <g id="xtick_36">
     <g id="line2d_63">
      <g>
       <use style="stroke:#000000;stroke-width:0.6;" x="440.169707" xlink:href="#m6494cb6cc6" y="326.16"/>
      </g>
     </g>
    </g>
    <g id="xtick_37">
     <g id="line2d_64">
      <g>
       <use style="stroke:#000000;stroke-width:0.6;" x="458.921786" xlink:href="#m6494cb6cc6" y="326.16"/>
      </g>
     </g>
    </g>
   </g>
   <g id="matplotlib.axis_2">
    <g id="ytick_1">
     <g id="line2d_65">
      <defs>
       <path d="M 0 0 
L -3.5 0 
" id="mb1422b5131" style="stroke:#000000;stroke-width:0.8;"/>
      </defs>
      <g>
       <use style="stroke:#000000;stroke-width:0.8;" x="24.6" xlink:href="#mb1422b5131" y="313.527666"/>
      </g>
     </g>
     <g id="text_5">
      <!-- $\mathdefault{10^{2}}$ -->
      <g transform="translate(0 317.326885)scale(0.1 -0.1)">
       <defs>
        <path d="M 19.1875 8.296875 
L 53.609375 8.296875 
L 53.609375 0 
L 7.328125 0 
L 7.328125 8.296875 
Q 12.9375 14.109375 22.625 23.890625 
Q 32.328125 33.6875 34.8125 36.53125 
Q 39.546875 41.84375 41.421875 45.53125 
Q 43.3125 49.21875 43.3125 52.78125 
Q 43.3125 58.59375 39.234375 62.25 
Q 35.15625 65.921875 28.609375 65.921875 
Q 23.96875 65.921875 18.8125 64.3125 
Q 13.671875 62.703125 7.8125 59.421875 
L 7.8125 69.390625 
Q 13.765625 71.78125 18.9375 73 
Q 24.125 74.21875 28.421875 74.21875 
Q 39.75 74.21875 46.484375 68.546875 
Q 53.21875 62.890625 53.21875 53.421875 
Q 53.21875 48.921875 51.53125 44.890625 
Q 49.859375 40.875 45.40625 35.40625 
Q 44.1875 33.984375 37.640625 27.21875 
Q 31.109375 20.453125 19.1875 8.296875 
z
" id="DejaVuSans-50"/>
       </defs>
       <use transform="translate(0 0.765625)" xlink:href="#DejaVuSans-49"/>
       <use transform="translate(63.623047 0.765625)" xlink:href="#DejaVuSans-48"/>
       <use transform="translate(128.203125 39.046875)scale(0.7)" xlink:href="#DejaVuSans-50"/>
      </g>
     </g>
    </g>
    <g id="ytick_2">
     <g id="line2d_66">
      <g>
       <use style="stroke:#000000;stroke-width:0.8;" x="24.6" xlink:href="#mb1422b5131" y="238.890551"/>
      </g>
     </g>
     <g id="text_6">
      <!-- $\mathdefault{10^{3}}$ -->
      <g transform="translate(0 242.68977)scale(0.1 -0.1)">
       <defs>
        <path d="M 40.578125 39.3125 
Q 47.65625 37.796875 51.625 33 
Q 55.609375 28.21875 55.609375 21.1875 
Q 55.609375 10.40625 48.1875 4.484375 
Q 40.765625 -1.421875 27.09375 -1.421875 
Q 22.515625 -1.421875 17.65625 -0.515625 
Q 12.796875 0.390625 7.625 2.203125 
L 7.625 11.71875 
Q 11.71875 9.328125 16.59375 8.109375 
Q 21.484375 6.890625 26.8125 6.890625 
Q 36.078125 6.890625 40.9375 10.546875 
Q 45.796875 14.203125 45.796875 21.1875 
Q 45.796875 27.640625 41.28125 31.265625 
Q 36.765625 34.90625 28.71875 34.90625 
L 20.21875 34.90625 
L 20.21875 43.015625 
L 29.109375 43.015625 
Q 36.375 43.015625 40.234375 45.921875 
Q 44.09375 48.828125 44.09375 54.296875 
Q 44.09375 59.90625 40.109375 62.90625 
Q 36.140625 65.921875 28.71875 65.921875 
Q 24.65625 65.921875 20.015625 65.03125 
Q 15.375 64.15625 9.8125 62.3125 
L 9.8125 71.09375 
Q 15.4375 72.65625 20.34375 73.4375 
Q 25.25 74.21875 29.59375 74.21875 
Q 40.828125 74.21875 47.359375 69.109375 
Q 53.90625 64.015625 53.90625 55.328125 
Q 53.90625 49.265625 50.4375 45.09375 
Q 46.96875 40.921875 40.578125 39.3125 
z
" id="DejaVuSans-51"/>
       </defs>
       <use transform="translate(0 0.765625)" xlink:href="#DejaVuSans-49"/>
       <use transform="translate(63.623047 0.765625)" xlink:href="#DejaVuSans-48"/>
       <use transform="translate(128.203125 39.046875)scale(0.7)" xlink:href="#DejaVuSans-51"/>
      </g>
     </g>
    </g>
    <g id="ytick_3">
     <g id="line2d_67">
      <g>
       <use style="stroke:#000000;stroke-width:0.8;" x="24.6" xlink:href="#mb1422b5131" y="164.253436"/>
      </g>
     </g>
     <g id="text_7">
      <!-- $\mathdefault{10^{4}}$ -->
      <g transform="translate(0 168.052655)scale(0.1 -0.1)">
       <use transform="translate(0 0.684375)" xlink:href="#DejaVuSans-49"/>
       <use transform="translate(63.623047 0.684375)" xlink:href="#DejaVuSans-48"/>
       <use transform="translate(128.203125 38.965625)scale(0.7)" xlink:href="#DejaVuSans-52"/>
      </g>
     </g>
    </g>
    <g id="ytick_4">
     <g id="line2d_68">
      <g>
       <use style="stroke:#000000;stroke-width:0.8;" x="24.6" xlink:href="#mb1422b5131" y="89.616321"/>
      </g>
     </g>
     <g id="text_8">
      <!-- $\mathdefault{10^{5}}$ -->
      <g transform="translate(0 93.41554)scale(0.1 -0.1)">
       <use transform="translate(0 0.684375)" xlink:href="#DejaVuSans-49"/>
       <use transform="translate(63.623047 0.684375)" xlink:href="#DejaVuSans-48"/>
       <use transform="translate(128.203125 38.965625)scale(0.7)" xlink:href="#DejaVuSans-53"/>
      </g>
     </g>
    </g>
    <g id="ytick_5">
     <g id="line2d_69">
      <g>
       <use style="stroke:#000000;stroke-width:0.8;" x="24.6" xlink:href="#mb1422b5131" y="14.979206"/>
      </g>
     </g>
     <g id="text_9">
      <!-- $\mathdefault{10^{6}}$ -->
      <g transform="translate(0 18.778425)scale(0.1 -0.1)">
       <use transform="translate(0 0.765625)" xlink:href="#DejaVuSans-49"/>
       <use transform="translate(63.623047 0.765625)" xlink:href="#DejaVuSans-48"/>
       <use transform="translate(128.203125 39.046875)scale(0.7)" xlink:href="#DejaVuSans-54"/>
      </g>
     </g>
    </g>
    <g id="ytick_6">
     <g id="line2d_70">
      <defs>
       <path d="M 0 0 
L -2 0 
" id="m063c18f26f" style="stroke:#000000;stroke-width:0.6;"/>
      </defs>
      <g>
       <use style="stroke:#000000;stroke-width:0.6;" x="24.6" xlink:href="#m063c18f26f" y="325.089101"/>
      </g>
     </g>
    </g>
    <g id="ytick_7">
     <g id="line2d_71">
      <g>
       <use style="stroke:#000000;stroke-width:0.6;" x="24.6" xlink:href="#m063c18f26f" y="320.76075"/>
      </g>
     </g>
    </g>
    <g id="ytick_8">
     <g id="line2d_72">
      <g>
       <use style="stroke:#000000;stroke-width:0.6;" x="24.6" xlink:href="#m063c18f26f" y="316.942873"/>
      </g>
     </g>
    </g>
    <g id="ytick_9">
     <g id="line2d_73">
      <g>
       <use style="stroke:#000000;stroke-width:0.6;" x="24.6" xlink:href="#m063c18f26f" y="291.059655"/>
      </g>
     </g>
    </g>
    <g id="ytick_10">
     <g id="line2d_74">
      <g>
       <use style="stroke:#000000;stroke-width:0.6;" x="24.6" xlink:href="#m063c18f26f" y="277.916712"/>
      </g>
     </g>
    </g>
    <g id="ytick_11">
     <g id="line2d_75">
      <g>
       <use style="stroke:#000000;stroke-width:0.6;" x="24.6" xlink:href="#m063c18f26f" y="268.591645"/>
      </g>
     </g>
    </g>
    <g id="ytick_12">
     <g id="line2d_76">
      <g>
       <use style="stroke:#000000;stroke-width:0.6;" x="24.6" xlink:href="#m063c18f26f" y="261.358561"/>
      </g>
     </g>
    </g>
    <g id="ytick_13">
     <g id="line2d_77">
      <g>
       <use style="stroke:#000000;stroke-width:0.6;" x="24.6" xlink:href="#m063c18f26f" y="255.448702"/>
      </g>
     </g>
    </g>
    <g id="ytick_14">
     <g id="line2d_78">
      <g>
       <use style="stroke:#000000;stroke-width:0.6;" x="24.6" xlink:href="#m063c18f26f" y="250.451986"/>
      </g>
     </g>
    </g>
    <g id="ytick_15">
     <g id="line2d_79">
      <g>
       <use style="stroke:#000000;stroke-width:0.6;" x="24.6" xlink:href="#m063c18f26f" y="246.123635"/>
      </g>
     </g>
    </g>
    <g id="ytick_16">
     <g id="line2d_80">
      <g>
       <use style="stroke:#000000;stroke-width:0.6;" x="24.6" xlink:href="#m063c18f26f" y="242.305758"/>
      </g>
     </g>
    </g>
    <g id="ytick_17">
     <g id="line2d_81">
      <g>
       <use style="stroke:#000000;stroke-width:0.6;" x="24.6" xlink:href="#m063c18f26f" y="216.422541"/>
      </g>
     </g>
    </g>
    <g id="ytick_18">
     <g id="line2d_82">
      <g>
       <use style="stroke:#000000;stroke-width:0.6;" x="24.6" xlink:href="#m063c18f26f" y="203.279597"/>
      </g>
     </g>
    </g>
    <g id="ytick_19">
     <g id="line2d_83">
      <g>
       <use style="stroke:#000000;stroke-width:0.6;" x="24.6" xlink:href="#m063c18f26f" y="193.95453"/>
      </g>
     </g>
    </g>
    <g id="ytick_20">
     <g id="line2d_84">
      <g>
       <use style="stroke:#000000;stroke-width:0.6;" x="24.6" xlink:href="#m063c18f26f" y="186.721446"/>
      </g>
     </g>
    </g>
    <g id="ytick_21">
     <g id="line2d_85">
      <g>
       <use style="stroke:#000000;stroke-width:0.6;" x="24.6" xlink:href="#m063c18f26f" y="180.811587"/>
      </g>
     </g>
    </g>
    <g id="ytick_22">
     <g id="line2d_86">
      <g>
       <use style="stroke:#000000;stroke-width:0.6;" x="24.6" xlink:href="#m063c18f26f" y="175.814871"/>
      </g>
     </g>
    </g>
    <g id="ytick_23">
     <g id="line2d_87">
      <g>
       <use style="stroke:#000000;stroke-width:0.6;" x="24.6" xlink:href="#m063c18f26f" y="171.48652"/>
      </g>
     </g>
    </g>
    <g id="ytick_24">
     <g id="line2d_88">
      <g>
       <use style="stroke:#000000;stroke-width:0.6;" x="24.6" xlink:href="#m063c18f26f" y="167.668643"/>
      </g>
     </g>
    </g>
    <g id="ytick_25">
     <g id="line2d_89">
      <g>
       <use style="stroke:#000000;stroke-width:0.6;" x="24.6" xlink:href="#m063c18f26f" y="141.785426"/>
      </g>
     </g>
    </g>
    <g id="ytick_26">
     <g id="line2d_90">
      <g>
       <use style="stroke:#000000;stroke-width:0.6;" x="24.6" xlink:href="#m063c18f26f" y="128.642482"/>
      </g>
     </g>
    </g>
    <g id="ytick_27">
     <g id="line2d_91">
      <g>
       <use style="stroke:#000000;stroke-width:0.6;" x="24.6" xlink:href="#m063c18f26f" y="119.317415"/>
      </g>
     </g>
    </g>
    <g id="ytick_28">
     <g id="line2d_92">
      <g>
       <use style="stroke:#000000;stroke-width:0.6;" x="24.6" xlink:href="#m063c18f26f" y="112.084332"/>
      </g>
     </g>
    </g>
    <g id="ytick_29">
     <g id="line2d_93">
      <g>
       <use style="stroke:#000000;stroke-width:0.6;" x="24.6" xlink:href="#m063c18f26f" y="106.174472"/>
      </g>
     </g>
    </g>
    <g id="ytick_30">
     <g id="line2d_94">
      <g>
       <use style="stroke:#000000;stroke-width:0.6;" x="24.6" xlink:href="#m063c18f26f" y="101.177757"/>
      </g>
     </g>
    </g>
    <g id="ytick_31">
     <g id="line2d_95">
      <g>
       <use style="stroke:#000000;stroke-width:0.6;" x="24.6" xlink:href="#m063c18f26f" y="96.849405"/>
      </g>
     </g>
    </g>
    <g id="ytick_32">
     <g id="line2d_96">
      <g>
       <use style="stroke:#000000;stroke-width:0.6;" x="24.6" xlink:href="#m063c18f26f" y="93.031528"/>
      </g>
     </g>
    </g>
    <g id="ytick_33">
     <g id="line2d_97">
      <g>
       <use style="stroke:#000000;stroke-width:0.6;" x="24.6" xlink:href="#m063c18f26f" y="67.148311"/>
      </g>
     </g>
    </g>
    <g id="ytick_34">
     <g id="line2d_98">
      <g>
       <use style="stroke:#000000;stroke-width:0.6;" x="24.6" xlink:href="#m063c18f26f" y="54.005367"/>
      </g>
     </g>
    </g>
    <g id="ytick_35">
     <g id="line2d_99">
      <g>
       <use style="stroke:#000000;stroke-width:0.6;" x="24.6" xlink:href="#m063c18f26f" y="44.6803"/>
      </g>
     </g>
    </g>
    <g id="ytick_36">
     <g id="line2d_100">
      <g>
       <use style="stroke:#000000;stroke-width:0.6;" x="24.6" xlink:href="#m063c18f26f" y="37.447217"/>
      </g>
     </g>
    </g>
    <g id="ytick_37">
     <g id="line2d_101">
      <g>
       <use style="stroke:#000000;stroke-width:0.6;" x="24.6" xlink:href="#m063c18f26f" y="31.537357"/>
      </g>
     </g>
    </g>
    <g id="ytick_38">
     <g id="line2d_102">
      <g>
       <use style="stroke:#000000;stroke-width:0.6;" x="24.6" xlink:href="#m063c18f26f" y="26.540642"/>
      </g>
     </g>
    </g>
    <g id="ytick_39">
     <g id="line2d_103">
      <g>
       <use style="stroke:#000000;stroke-width:0.6;" x="24.6" xlink:href="#m063c18f26f" y="22.21229"/>
      </g>
     </g>
    </g>
    <g id="ytick_40">
     <g id="line2d_104">
      <g>
       <use style="stroke:#000000;stroke-width:0.6;" x="24.6" xlink:href="#m063c18f26f" y="18.394413"/>
      </g>
     </g>
    </g>
   </g>
   <g id="line2d_105">
    <path clip-path="url(#p26ebb03c24)" d="M 141.886099 276.209108 
L 145.005523 274.022769 
L 148.124948 271.836429 
L 151.244372 269.650089 
L 154.363796 267.463749 
L 157.48322 265.27741 
L 160.602644 263.09107 
L 163.722068 260.90473 
L 166.841492 258.718391 
L 169.960917 256.532051 
L 173.080341 254.345711 
L 176.199765 252.159371 
L 179.319189 249.973032 
L 182.438613 247.786692 
L 185.558037 245.600352 
L 188.677462 243.414012 
L 191.796886 241.227673 
L 194.91631 239.041333 
L 198.035734 236.854993 
L 201.155158 234.668654 
L 204.274582 232.482314 
L 207.394007 230.295974 
L 210.513431 228.109634 
L 213.632855 225.923295 
L 216.752279 223.736955 
L 219.871703 221.550615 
L 222.991127 219.364275 
L 226.110551 217.177936 
L 229.229976 214.991596 
L 232.3494 212.805256 
L 235.468824 210.618917 
L 238.588248 208.432577 
L 241.707672 206.246237 
L 244.827096 204.059897 
L 247.946521 201.873558 
L 251.065945 199.687218 
L 254.185369 197.500878 
L 257.304793 195.314538 
L 260.424217 193.128199 
L 263.543641 190.941859 
L 266.663066 188.755519 
L 269.78249 186.56918 
L 272.901914 184.38284 
L 276.021338 182.1965 
L 279.140762 180.01016 
L 282.260186 177.823821 
L 285.379611 175.637481 
L 288.499035 173.451141 
L 291.618459 171.264801 
L 294.737883 169.078462 
L 297.857307 166.892122 
L 300.976731 164.705782 
L 304.096155 162.519443 
L 307.21558 160.333103 
L 310.335004 158.146763 
L 313.454428 155.960423 
L 316.573852 153.774084 
L 319.693276 151.587744 
L 322.8127 149.401404 
L 325.932125 147.215064 
L 329.051549 145.028725 
L 332.170973 142.842385 
L 335.290397 140.656045 
L 338.409821 138.469706 
L 341.529245 136.283366 
L 344.64867 134.097026 
L 347.768094 131.910686 
L 350.887518 129.724347 
L 354.006942 127.538007 
L 357.126366 125.351667 
L 360.24579 123.165327 
L 363.365214 120.978988 
L 366.484639 118.792648 
L 369.604063 116.606308 
L 372.723487 114.419968 
L 375.842911 112.233629 
L 378.962335 110.047289 
L 382.081759 107.860949 
L 385.201184 105.67461 
L 388.320608 103.48827 
L 391.440032 101.30193 
L 394.559456 99.11559 
L 397.67888 96.929251 
L 400.798304 94.742911 
L 403.917729 92.556571 
L 407.037153 90.370231 
L 410.156577 88.183892 
L 413.276001 85.997552 
L 416.395425 83.811212 
L 419.514849 81.624873 
L 422.634273 79.438533 
L 425.753698 77.252193 
L 428.873122 75.065853 
L 431.992546 72.879514 
L 435.11197 70.693174 
L 438.231394 68.506834 
L 441.350818 66.320494 
L 444.470243 64.134155 
L 447.589667 61.947815 
L 450.709091 59.761475 
" style="fill:none;stroke:#999999;stroke-dasharray:5.55,2.4;stroke-dashoffset:0;stroke-width:1.5;"/>
   </g>
   <g id="line2d_106">
    <path clip-path="url(#p26ebb03c24)" d="M 141.886099 253.741098 
L 145.005523 251.554758 
L 148.124948 249.368419 
L 151.244372 247.182079 
L 154.363796 244.995739 
L 157.48322 242.809399 
L 160.602644 240.62306 
L 163.722068 238.43672 
L 166.841492 236.25038 
L 169.960917 234.06404 
L 173.080341 231.877701 
L 176.199765 229.691361 
L 179.319189 227.505021 
L 182.438613 225.318682 
L 185.558037 223.132342 
L 188.677462 220.946002 
L 191.796886 218.759662 
L 194.91631 216.573323 
L 198.035734 214.386983 
L 201.155158 212.200643 
L 204.274582 210.014303 
L 207.394007 207.827964 
L 210.513431 205.641624 
L 213.632855 203.455284 
L 216.752279 201.268945 
L 219.871703 199.082605 
L 222.991127 196.896265 
L 226.110551 194.709925 
L 229.229976 192.523586 
L 232.3494 190.337246 
L 235.468824 188.150906 
L 238.588248 185.964566 
L 241.707672 183.778227 
L 244.827096 181.591887 
L 247.946521 179.405547 
L 251.065945 177.219208 
L 254.185369 175.032868 
L 257.304793 172.846528 
L 260.424217 170.660188 
L 263.543641 168.473849 
L 266.663066 166.287509 
L 269.78249 164.101169 
L 272.901914 161.914829 
L 276.021338 159.72849 
L 279.140762 157.54215 
L 282.260186 155.35581 
L 285.379611 153.169471 
L 288.499035 150.983131 
L 291.618459 148.796791 
L 294.737883 146.610451 
L 297.857307 144.424112 
L 300.976731 142.237772 
L 304.096155 140.051432 
L 307.21558 137.865092 
L 310.335004 135.678753 
L 313.454428 133.492413 
L 316.573852 131.306073 
L 319.693276 129.119734 
L 322.8127 126.933394 
L 325.932125 124.747054 
L 329.051549 122.560714 
L 332.170973 120.374375 
L 335.290397 118.188035 
L 338.409821 116.001695 
L 341.529245 113.815355 
L 344.64867 111.629016 
L 347.768094 109.442676 
L 350.887518 107.256336 
L 354.006942 105.069996 
L 357.126366 102.883657 
L 360.24579 100.697317 
L 363.365214 98.510977 
L 366.484639 96.324638 
L 369.604063 94.138298 
L 372.723487 91.951958 
L 375.842911 89.765618 
L 378.962335 87.579279 
L 382.081759 85.392939 
L 385.201184 83.206599 
L 388.320608 81.020259 
L 391.440032 78.83392 
L 394.559456 76.64758 
L 397.67888 74.46124 
L 400.798304 72.274901 
L 403.917729 70.088561 
L 407.037153 67.902221 
L 410.156577 65.715881 
L 413.276001 63.529542 
L 416.395425 61.343202 
L 419.514849 59.156862 
L 422.634273 56.970522 
L 425.753698 54.784183 
L 428.873122 52.597843 
L 431.992546 50.411503 
L 435.11197 48.225164 
L 438.231394 46.038824 
L 441.350818 43.852484 
L 444.470243 41.666144 
L 447.589667 39.479805 
L 450.709091 37.293465 
" style="fill:none;stroke:#999999;stroke-dasharray:5.55,2.4;stroke-dashoffset:0;stroke-width:1.5;"/>
   </g>
   <g id="line2d_107">
    <path clip-path="url(#p26ebb03c24)" d="M 141.886099 231.273088 
L 145.005523 229.086748 
L 148.124948 226.900408 
L 151.244372 224.714068 
L 154.363796 222.527729 
L 157.48322 220.341389 
L 160.602644 218.155049 
L 163.722068 215.96871 
L 166.841492 213.78237 
L 169.960917 211.59603 
L 173.080341 209.40969 
L 176.199765 207.223351 
L 179.319189 205.037011 
L 182.438613 202.850671 
L 185.558037 200.664331 
L 188.677462 198.477992 
L 191.796886 196.291652 
L 194.91631 194.105312 
L 198.035734 191.918973 
L 201.155158 189.732633 
L 204.274582 187.546293 
L 207.394007 185.359953 
L 210.513431 183.173614 
L 213.632855 180.987274 
L 216.752279 178.800934 
L 219.871703 176.614594 
L 222.991127 174.428255 
L 226.110551 172.241915 
L 229.229976 170.055575 
L 232.3494 167.869236 
L 235.468824 165.682896 
L 238.588248 163.496556 
L 241.707672 161.310216 
L 244.827096 159.123877 
L 247.946521 156.937537 
L 251.065945 154.751197 
L 254.185369 152.564857 
L 257.304793 150.378518 
L 260.424217 148.192178 
L 263.543641 146.005838 
L 266.663066 143.819499 
L 269.78249 141.633159 
L 272.901914 139.446819 
L 276.021338 137.260479 
L 279.140762 135.07414 
L 282.260186 132.8878 
L 285.379611 130.70146 
L 288.499035 128.51512 
L 291.618459 126.328781 
L 294.737883 124.142441 
L 297.857307 121.956101 
L 300.976731 119.769762 
L 304.096155 117.583422 
L 307.21558 115.397082 
L 310.335004 113.210742 
L 313.454428 111.024403 
L 316.573852 108.838063 
L 319.693276 106.651723 
L 322.8127 104.465383 
L 325.932125 102.279044 
L 329.051549 100.092704 
L 332.170973 97.906364 
L 335.290397 95.720025 
L 338.409821 93.533685 
L 341.529245 91.347345 
L 344.64867 89.161005 
L 347.768094 86.974666 
L 350.887518 84.788326 
L 354.006942 82.601986 
L 357.126366 80.415646 
L 360.24579 78.229307 
L 363.365214 76.042967 
L 366.484639 73.856627 
L 369.604063 71.670287 
L 372.723487 69.483948 
L 375.842911 67.297608 
L 378.962335 65.111268 
L 382.081759 62.924929 
L 385.201184 60.738589 
L 388.320608 58.552249 
L 391.440032 56.365909 
L 394.559456 54.17957 
L 397.67888 51.99323 
L 400.798304 49.80689 
L 403.917729 47.62055 
L 407.037153 45.434211 
L 410.156577 43.247871 
L 413.276001 41.061531 
L 416.395425 38.875192 
L 419.514849 36.688852 
L 422.634273 34.502512 
L 425.753698 32.316172 
L 428.873122 30.129833 
L 431.992546 27.943493 
L 435.11197 25.757153 
L 438.231394 23.570813 
L 441.350818 21.384474 
L 444.470243 19.198134 
L 447.589667 17.011794 
L 450.709091 14.825455 
" style="fill:none;stroke:#999999;stroke-dasharray:5.55,2.4;stroke-dashoffset:0;stroke-width:1.5;"/>
   </g>
   <g id="patch_3">
    <path d="M 24.6 326.16 
L 24.6 0 
" style="fill:none;stroke:#000000;stroke-linecap:square;stroke-linejoin:miter;stroke-width:0.8;"/>
   </g>
   <g id="patch_4">
    <path d="M 471 326.16 
L 471 0 
" style="fill:none;stroke:#000000;stroke-linecap:square;stroke-linejoin:miter;stroke-width:0.8;"/>
   </g>
   <g id="patch_5">
    <path d="M 24.6 326.16 
L 471 326.16 
" style="fill:none;stroke:#000000;stroke-linecap:square;stroke-linejoin:miter;stroke-width:0.8;"/>
   </g>
   <g id="patch_6">
    <path d="M 24.6 -0 
L 471 -0 
" style="fill:none;stroke:#000000;stroke-linecap:square;stroke-linejoin:miter;stroke-width:0.8;"/>
   </g>
   <g id="text_10">
    <!-- Australia -->
    <g transform="translate(117.111714 248.17698)scale(0.07 -0.07)">
     <defs>
      <path d="M 34.1875 63.1875 
L 20.796875 26.90625 
L 47.609375 26.90625 
z
M 28.609375 72.90625 
L 39.796875 72.90625 
L 67.578125 0 
L 57.328125 0 
L 50.6875 18.703125 
L 17.828125 18.703125 
L 11.1875 0 
L 0.78125 0 
z
" id="DejaVuSans-65"/>
      <path d="M 8.5 21.578125 
L 8.5 54.6875 
L 17.484375 54.6875 
L 17.484375 21.921875 
Q 17.484375 14.15625 20.5 10.265625 
Q 23.53125 6.390625 29.59375 6.390625 
Q 36.859375 6.390625 41.078125 11.03125 
Q 45.3125 15.671875 45.3125 23.6875 
L 45.3125 54.6875 
L 54.296875 54.6875 
L 54.296875 0 
L 45.3125 0 
L 45.3125 8.40625 
Q 42.046875 3.421875 37.71875 1 
Q 33.40625 -1.421875 27.6875 -1.421875 
Q 18.265625 -1.421875 13.375 4.4375 
Q 8.5 10.296875 8.5 21.578125 
z
M 31.109375 56 
z
" id="DejaVuSans-117"/>
      <path d="M 44.28125 53.078125 
L 44.28125 44.578125 
Q 40.484375 46.53125 36.375 47.5 
Q 32.28125 48.484375 27.875 48.484375 
Q 21.1875 48.484375 17.84375 46.4375 
Q 14.5 44.390625 14.5 40.28125 
Q 14.5 37.15625 16.890625 35.375 
Q 19.28125 33.59375 26.515625 31.984375 
L 29.59375 31.296875 
Q 39.15625 29.25 43.1875 25.515625 
Q 47.21875 21.78125 47.21875 15.09375 
Q 47.21875 7.46875 41.1875 3.015625 
Q 35.15625 -1.421875 24.609375 -1.421875 
Q 20.21875 -1.421875 15.453125 -0.5625 
Q 10.6875 0.296875 5.421875 2 
L 5.421875 11.28125 
Q 10.40625 8.6875 15.234375 7.390625 
Q 20.0625 6.109375 24.8125 6.109375 
Q 31.15625 6.109375 34.5625 8.28125 
Q 37.984375 10.453125 37.984375 14.40625 
Q 37.984375 18.0625 35.515625 20.015625 
Q 33.0625 21.96875 24.703125 23.78125 
L 21.578125 24.515625 
Q 13.234375 26.265625 9.515625 29.90625 
Q 5.8125 33.546875 5.8125 39.890625 
Q 5.8125 47.609375 11.28125 51.796875 
Q 16.75 56 26.8125 56 
Q 31.78125 56 36.171875 55.265625 
Q 40.578125 54.546875 44.28125 53.078125 
z
" id="DejaVuSans-115"/>
      <path d="M 18.3125 70.21875 
L 18.3125 54.6875 
L 36.8125 54.6875 
L 36.8125 47.703125 
L 18.3125 47.703125 
L 18.3125 18.015625 
Q 18.3125 11.328125 20.140625 9.421875 
Q 21.96875 7.515625 27.59375 7.515625 
L 36.8125 7.515625 
L 36.8125 0 
L 27.59375 0 
Q 17.1875 0 13.234375 3.875 
Q 9.28125 7.765625 9.28125 18.015625 
L 9.28125 47.703125 
L 2.6875 47.703125 
L 2.6875 54.6875 
L 9.28125 54.6875 
L 9.28125 70.21875 
z
" id="DejaVuSans-116"/>
      <path d="M 41.109375 46.296875 
Q 39.59375 47.171875 37.8125 47.578125 
Q 36.03125 48 33.890625 48 
Q 26.265625 48 22.1875 43.046875 
Q 18.109375 38.09375 18.109375 28.8125 
L 18.109375 0 
L 9.078125 0 
L 9.078125 54.6875 
L 18.109375 54.6875 
L 18.109375 46.1875 
Q 20.953125 51.171875 25.484375 53.578125 
Q 30.03125 56 36.53125 56 
Q 37.453125 56 38.578125 55.875 
Q 39.703125 55.765625 41.0625 55.515625 
z
" id="DejaVuSans-114"/>
      <path d="M 34.28125 27.484375 
Q 23.390625 27.484375 19.1875 25 
Q 14.984375 22.515625 14.984375 16.5 
Q 14.984375 11.71875 18.140625 8.90625 
Q 21.296875 6.109375 26.703125 6.109375 
Q 34.1875 6.109375 38.703125 11.40625 
Q 43.21875 16.703125 43.21875 25.484375 
L 43.21875 27.484375 
z
M 52.203125 31.203125 
L 52.203125 0 
L 43.21875 0 
L 43.21875 8.296875 
Q 40.140625 3.328125 35.546875 0.953125 
Q 30.953125 -1.421875 24.3125 -1.421875 
Q 15.921875 -1.421875 10.953125 3.296875 
Q 6 8.015625 6 15.921875 
Q 6 25.140625 12.171875 29.828125 
Q 18.359375 34.515625 30.609375 34.515625 
L 43.21875 34.515625 
L 43.21875 35.40625 
Q 43.21875 41.609375 39.140625 45 
Q 35.0625 48.390625 27.6875 48.390625 
Q 23 48.390625 18.546875 47.265625 
Q 14.109375 46.140625 10.015625 43.890625 
L 10.015625 52.203125 
Q 14.9375 54.109375 19.578125 55.046875 
Q 24.21875 56 28.609375 56 
Q 40.484375 56 46.34375 49.84375 
Q 52.203125 43.703125 52.203125 31.203125 
z
" id="DejaVuSans-97"/>
      <path d="M 9.421875 75.984375 
L 18.40625 75.984375 
L 18.40625 0 
L 9.421875 0 
z
" id="DejaVuSans-108"/>
      <path d="M 9.421875 54.6875 
L 18.40625 54.6875 
L 18.40625 0 
L 9.421875 0 
z
M 9.421875 75.984375 
L 18.40625 75.984375 
L 18.40625 64.59375 
L 9.421875 64.59375 
z
" id="DejaVuSans-105"/>
     </defs>
     <use xlink:href="#DejaVuSans-65"/>
     <use x="68.408203" xlink:href="#DejaVuSans-117"/>
     <use x="131.787109" xlink:href="#DejaVuSans-115"/>
     <use x="183.886719" xlink:href="#DejaVuSans-116"/>
     <use x="223.095703" xlink:href="#DejaVuSans-114"/>
     <use x="264.208984" xlink:href="#DejaVuSans-97"/>
     <use x="325.488281" xlink:href="#DejaVuSans-108"/>
     <use x="353.271484" xlink:href="#DejaVuSans-105"/>
     <use x="381.054688" xlink:href="#DejaVuSans-97"/>
    </g>
   </g>
   <g id="text_11">
    <!-- Austria -->
    <g transform="translate(248.539902 198.360655)scale(0.07 -0.07)">
     <use xlink:href="#DejaVuSans-65"/>
     <use x="68.408203" xlink:href="#DejaVuSans-117"/>
     <use x="131.787109" xlink:href="#DejaVuSans-115"/>
     <use x="183.886719" xlink:href="#DejaVuSans-116"/>
     <use x="223.095703" xlink:href="#DejaVuSans-114"/>
     <use x="264.208984" xlink:href="#DejaVuSans-105"/>
     <use x="291.992188" xlink:href="#DejaVuSans-97"/>
    </g>
   </g>
   <g id="text_12">
    <!-- Belgium -->
    <g transform="translate(275.63309 173.39783)scale(0.07 -0.07)">
     <defs>
      <path d="M 19.671875 34.8125 
L 19.671875 8.109375 
L 35.5 8.109375 
Q 43.453125 8.109375 47.28125 11.40625 
Q 51.125 14.703125 51.125 21.484375 
Q 51.125 28.328125 47.28125 31.5625 
Q 43.453125 34.8125 35.5 34.8125 
z
M 19.671875 64.796875 
L 19.671875 42.828125 
L 34.28125 42.828125 
Q 41.5 42.828125 45.03125 45.53125 
Q 48.578125 48.25 48.578125 53.8125 
Q 48.578125 59.328125 45.03125 62.0625 
Q 41.5 64.796875 34.28125 64.796875 
z
M 9.8125 72.90625 
L 35.015625 72.90625 
Q 46.296875 72.90625 52.390625 68.21875 
Q 58.5 63.53125 58.5 54.890625 
Q 58.5 48.1875 55.375 44.234375 
Q 52.25 40.28125 46.1875 39.3125 
Q 53.46875 37.75 57.5 32.78125 
Q 61.53125 27.828125 61.53125 20.40625 
Q 61.53125 10.640625 54.890625 5.3125 
Q 48.25 0 35.984375 0 
L 9.8125 0 
z
" id="DejaVuSans-66"/>
      <path d="M 56.203125 29.59375 
L 56.203125 25.203125 
L 14.890625 25.203125 
Q 15.484375 15.921875 20.484375 11.0625 
Q 25.484375 6.203125 34.421875 6.203125 
Q 39.59375 6.203125 44.453125 7.46875 
Q 49.3125 8.734375 54.109375 11.28125 
L 54.109375 2.78125 
Q 49.265625 0.734375 44.1875 -0.34375 
Q 39.109375 -1.421875 33.890625 -1.421875 
Q 20.796875 -1.421875 13.15625 6.1875 
Q 5.515625 13.8125 5.515625 26.8125 
Q 5.515625 40.234375 12.765625 48.109375 
Q 20.015625 56 32.328125 56 
Q 43.359375 56 49.78125 48.890625 
Q 56.203125 41.796875 56.203125 29.59375 
z
M 47.21875 32.234375 
Q 47.125 39.59375 43.09375 43.984375 
Q 39.0625 48.390625 32.421875 48.390625 
Q 24.90625 48.390625 20.390625 44.140625 
Q 15.875 39.890625 15.1875 32.171875 
z
" id="DejaVuSans-101"/>
      <path d="M 45.40625 27.984375 
Q 45.40625 37.75 41.375 43.109375 
Q 37.359375 48.484375 30.078125 48.484375 
Q 22.859375 48.484375 18.828125 43.109375 
Q 14.796875 37.75 14.796875 27.984375 
Q 14.796875 18.265625 18.828125 12.890625 
Q 22.859375 7.515625 30.078125 7.515625 
Q 37.359375 7.515625 41.375 12.890625 
Q 45.40625 18.265625 45.40625 27.984375 
z
M 54.390625 6.78125 
Q 54.390625 -7.171875 48.1875 -13.984375 
Q 42 -20.796875 29.203125 -20.796875 
Q 24.46875 -20.796875 20.265625 -20.09375 
Q 16.0625 -19.390625 12.109375 -17.921875 
L 12.109375 -9.1875 
Q 16.0625 -11.328125 19.921875 -12.34375 
Q 23.78125 -13.375 27.78125 -13.375 
Q 36.625 -13.375 41.015625 -8.765625 
Q 45.40625 -4.15625 45.40625 5.171875 
L 45.40625 9.625 
Q 42.625 4.78125 38.28125 2.390625 
Q 33.9375 0 27.875 0 
Q 17.828125 0 11.671875 7.65625 
Q 5.515625 15.328125 5.515625 27.984375 
Q 5.515625 40.671875 11.671875 48.328125 
Q 17.828125 56 27.875 56 
Q 33.9375 56 38.28125 53.609375 
Q 42.625 51.21875 45.40625 46.390625 
L 45.40625 54.6875 
L 54.390625 54.6875 
z
" id="DejaVuSans-103"/>
      <path d="M 52 44.1875 
Q 55.375 50.25 60.0625 53.125 
Q 64.75 56 71.09375 56 
Q 79.640625 56 84.28125 50.015625 
Q 88.921875 44.046875 88.921875 33.015625 
L 88.921875 0 
L 79.890625 0 
L 79.890625 32.71875 
Q 79.890625 40.578125 77.09375 44.375 
Q 74.3125 48.1875 68.609375 48.1875 
Q 61.625 48.1875 57.5625 43.546875 
Q 53.515625 38.921875 53.515625 30.90625 
L 53.515625 0 
L 44.484375 0 
L 44.484375 32.71875 
Q 44.484375 40.625 41.703125 44.40625 
Q 38.921875 48.1875 33.109375 48.1875 
Q 26.21875 48.1875 22.15625 43.53125 
Q 18.109375 38.875 18.109375 30.90625 
L 18.109375 0 
L 9.078125 0 
L 9.078125 54.6875 
L 18.109375 54.6875 
L 18.109375 46.1875 
Q 21.1875 51.21875 25.484375 53.609375 
Q 29.78125 56 35.6875 56 
Q 41.65625 56 45.828125 52.96875 
Q 50 49.953125 52 44.1875 
z
" id="DejaVuSans-109"/>
     </defs>
     <use xlink:href="#DejaVuSans-66"/>
     <use x="68.603516" xlink:href="#DejaVuSans-101"/>
     <use x="130.126953" xlink:href="#DejaVuSans-108"/>
     <use x="157.910156" xlink:href="#DejaVuSans-103"/>
     <use x="221.386719" xlink:href="#DejaVuSans-105"/>
     <use x="249.169922" xlink:href="#DejaVuSans-117"/>
     <use x="312.548828" xlink:href="#DejaVuSans-109"/>
    </g>
   </g>
   <g id="text_13">
    <!-- Canada -->
    <g transform="translate(255.302549 191.910131)scale(0.07 -0.07)">
     <defs>
      <path d="M 64.40625 67.28125 
L 64.40625 56.890625 
Q 59.421875 61.53125 53.78125 63.8125 
Q 48.140625 66.109375 41.796875 66.109375 
Q 29.296875 66.109375 22.65625 58.46875 
Q 16.015625 50.828125 16.015625 36.375 
Q 16.015625 21.96875 22.65625 14.328125 
Q 29.296875 6.6875 41.796875 6.6875 
Q 48.140625 6.6875 53.78125 8.984375 
Q 59.421875 11.28125 64.40625 15.921875 
L 64.40625 5.609375 
Q 59.234375 2.09375 53.4375 0.328125 
Q 47.65625 -1.421875 41.21875 -1.421875 
Q 24.65625 -1.421875 15.125 8.703125 
Q 5.609375 18.84375 5.609375 36.375 
Q 5.609375 53.953125 15.125 64.078125 
Q 24.65625 74.21875 41.21875 74.21875 
Q 47.75 74.21875 53.53125 72.484375 
Q 59.328125 70.75 64.40625 67.28125 
z
" id="DejaVuSans-67"/>
      <path d="M 54.890625 33.015625 
L 54.890625 0 
L 45.90625 0 
L 45.90625 32.71875 
Q 45.90625 40.484375 42.875 44.328125 
Q 39.84375 48.1875 33.796875 48.1875 
Q 26.515625 48.1875 22.3125 43.546875 
Q 18.109375 38.921875 18.109375 30.90625 
L 18.109375 0 
L 9.078125 0 
L 9.078125 54.6875 
L 18.109375 54.6875 
L 18.109375 46.1875 
Q 21.34375 51.125 25.703125 53.5625 
Q 30.078125 56 35.796875 56 
Q 45.21875 56 50.046875 50.171875 
Q 54.890625 44.34375 54.890625 33.015625 
z
" id="DejaVuSans-110"/>
      <path d="M 45.40625 46.390625 
L 45.40625 75.984375 
L 54.390625 75.984375 
L 54.390625 0 
L 45.40625 0 
L 45.40625 8.203125 
Q 42.578125 3.328125 38.25 0.953125 
Q 33.9375 -1.421875 27.875 -1.421875 
Q 17.96875 -1.421875 11.734375 6.484375 
Q 5.515625 14.40625 5.515625 27.296875 
Q 5.515625 40.1875 11.734375 48.09375 
Q 17.96875 56 27.875 56 
Q 33.9375 56 38.25 53.625 
Q 42.578125 51.265625 45.40625 46.390625 
z
M 14.796875 27.296875 
Q 14.796875 17.390625 18.875 11.75 
Q 22.953125 6.109375 30.078125 6.109375 
Q 37.203125 6.109375 41.296875 11.75 
Q 45.40625 17.390625 45.40625 27.296875 
Q 45.40625 37.203125 41.296875 42.84375 
Q 37.203125 48.484375 30.078125 48.484375 
Q 22.953125 48.484375 18.875 42.84375 
Q 14.796875 37.203125 14.796875 27.296875 
z
" id="DejaVuSans-100"/>
     </defs>
     <use xlink:href="#DejaVuSans-67"/>
     <use x="69.824219" xlink:href="#DejaVuSans-97"/>
     <use x="131.103516" xlink:href="#DejaVuSans-110"/>
     <use x="194.482422" xlink:href="#DejaVuSans-97"/>
     <use x="255.761719" xlink:href="#DejaVuSans-100"/>
     <use x="319.238281" xlink:href="#DejaVuSans-97"/>
    </g>
   </g>
   <g id="text_14">
    <!-- China -->
    <g transform="translate(86.197908 313.266108)scale(0.07 -0.07)">
     <defs>
      <path d="M 54.890625 33.015625 
L 54.890625 0 
L 45.90625 0 
L 45.90625 32.71875 
Q 45.90625 40.484375 42.875 44.328125 
Q 39.84375 48.1875 33.796875 48.1875 
Q 26.515625 48.1875 22.3125 43.546875 
Q 18.109375 38.921875 18.109375 30.90625 
L 18.109375 0 
L 9.078125 0 
L 9.078125 75.984375 
L 18.109375 75.984375 
L 18.109375 46.1875 
Q 21.34375 51.125 25.703125 53.5625 
Q 30.078125 56 35.796875 56 
Q 45.21875 56 50.046875 50.171875 
Q 54.890625 44.34375 54.890625 33.015625 
z
" id="DejaVuSans-104"/>
     </defs>
     <use xlink:href="#DejaVuSans-67"/>
     <use x="69.824219" xlink:href="#DejaVuSans-104"/>
     <use x="133.203125" xlink:href="#DejaVuSans-105"/>
     <use x="160.986328" xlink:href="#DejaVuSans-110"/>
     <use x="224.365234" xlink:href="#DejaVuSans-97"/>
    </g>
   </g>
   <g id="text_15">
    <!-- Czechia -->
    <g transform="translate(277.454213 169.259846)scale(0.07 -0.07)">
     <defs>
      <path d="M 5.515625 54.6875 
L 48.1875 54.6875 
L 48.1875 46.484375 
L 14.40625 7.171875 
L 48.1875 7.171875 
L 48.1875 0 
L 4.296875 0 
L 4.296875 8.203125 
L 38.09375 47.515625 
L 5.515625 47.515625 
z
" id="DejaVuSans-122"/>
      <path d="M 48.78125 52.59375 
L 48.78125 44.1875 
Q 44.96875 46.296875 41.140625 47.34375 
Q 37.3125 48.390625 33.40625 48.390625 
Q 24.65625 48.390625 19.8125 42.84375 
Q 14.984375 37.3125 14.984375 27.296875 
Q 14.984375 17.28125 19.8125 11.734375 
Q 24.65625 6.203125 33.40625 6.203125 
Q 37.3125 6.203125 41.140625 7.25 
Q 44.96875 8.296875 48.78125 10.40625 
L 48.78125 2.09375 
Q 45.015625 0.34375 40.984375 -0.53125 
Q 36.96875 -1.421875 32.421875 -1.421875 
Q 20.0625 -1.421875 12.78125 6.34375 
Q 5.515625 14.109375 5.515625 27.296875 
Q 5.515625 40.671875 12.859375 48.328125 
Q 20.21875 56 33.015625 56 
Q 37.15625 56 41.109375 55.140625 
Q 45.0625 54.296875 48.78125 52.59375 
z
" id="DejaVuSans-99"/>
     </defs>
     <use xlink:href="#DejaVuSans-67"/>
     <use x="69.824219" xlink:href="#DejaVuSans-122"/>
     <use x="122.314453" xlink:href="#DejaVuSans-101"/>
     <use x="183.837891" xlink:href="#DejaVuSans-99"/>
     <use x="238.818359" xlink:href="#DejaVuSans-104"/>
     <use x="302.197266" xlink:href="#DejaVuSans-105"/>
     <use x="329.980469" xlink:href="#DejaVuSans-97"/>
    </g>
   </g>
   <g id="text_16">
    <!-- Denmark -->
    <g transform="translate(194.773032 277.253731)scale(0.07 -0.07)">
     <defs>
      <path d="M 19.671875 64.796875 
L 19.671875 8.109375 
L 31.59375 8.109375 
Q 46.6875 8.109375 53.6875 14.9375 
Q 60.6875 21.78125 60.6875 36.53125 
Q 60.6875 51.171875 53.6875 57.984375 
Q 46.6875 64.796875 31.59375 64.796875 
z
M 9.8125 72.90625 
L 30.078125 72.90625 
Q 51.265625 72.90625 61.171875 64.09375 
Q 71.09375 55.28125 71.09375 36.53125 
Q 71.09375 17.671875 61.125 8.828125 
Q 51.171875 0 30.078125 0 
L 9.8125 0 
z
" id="DejaVuSans-68"/>
      <path d="M 9.078125 75.984375 
L 18.109375 75.984375 
L 18.109375 31.109375 
L 44.921875 54.6875 
L 56.390625 54.6875 
L 27.390625 29.109375 
L 57.625 0 
L 45.90625 0 
L 18.109375 26.703125 
L 18.109375 0 
L 9.078125 0 
z
" id="DejaVuSans-107"/>
     </defs>
     <use xlink:href="#DejaVuSans-68"/>
     <use x="77.001953" xlink:href="#DejaVuSans-101"/>
     <use x="138.525391" xlink:href="#DejaVuSans-110"/>
     <use x="201.904297" xlink:href="#DejaVuSans-109"/>
     <use x="299.316406" xlink:href="#DejaVuSans-97"/>
     <use x="360.595703" xlink:href="#DejaVuSans-114"/>
     <use x="401.708984" xlink:href="#DejaVuSans-107"/>
    </g>
   </g>
   <g id="text_17">
    <!-- Finland -->
    <g transform="translate(129.936214 308.486503)scale(0.07 -0.07)">
     <defs>
      <path d="M 9.8125 72.90625 
L 51.703125 72.90625 
L 51.703125 64.59375 
L 19.671875 64.59375 
L 19.671875 43.109375 
L 48.578125 43.109375 
L 48.578125 34.8125 
L 19.671875 34.8125 
L 19.671875 0 
L 9.8125 0 
z
" id="DejaVuSans-70"/>
     </defs>
     <use xlink:href="#DejaVuSans-70"/>
     <use x="50.269531" xlink:href="#DejaVuSans-105"/>
     <use x="78.052734" xlink:href="#DejaVuSans-110"/>
     <use x="141.431641" xlink:href="#DejaVuSans-108"/>
     <use x="169.214844" xlink:href="#DejaVuSans-97"/>
     <use x="230.494141" xlink:href="#DejaVuSans-110"/>
     <use x="293.873047" xlink:href="#DejaVuSans-100"/>
    </g>
   </g>
   <g id="text_18">
    <!-- France -->
    <g transform="translate(339.484538 133.653644)scale(0.07 -0.07)">
     <use xlink:href="#DejaVuSans-70"/>
     <use x="50.269531" xlink:href="#DejaVuSans-114"/>
     <use x="91.382812" xlink:href="#DejaVuSans-97"/>
     <use x="152.662109" xlink:href="#DejaVuSans-110"/>
     <use x="216.041016" xlink:href="#DejaVuSans-99"/>
     <use x="271.021484" xlink:href="#DejaVuSans-101"/>
    </g>
   </g>
   <g id="text_19">
    <!-- Germany -->
    <g transform="translate(309.981121 158.127491)scale(0.07 -0.07)">
     <defs>
      <path d="M 59.515625 10.40625 
L 59.515625 29.984375 
L 43.40625 29.984375 
L 43.40625 38.09375 
L 69.28125 38.09375 
L 69.28125 6.78125 
Q 63.578125 2.734375 56.6875 0.65625 
Q 49.8125 -1.421875 42 -1.421875 
Q 24.90625 -1.421875 15.25 8.5625 
Q 5.609375 18.5625 5.609375 36.375 
Q 5.609375 54.25 15.25 64.234375 
Q 24.90625 74.21875 42 74.21875 
Q 49.125 74.21875 55.546875 72.453125 
Q 61.96875 70.703125 67.390625 67.28125 
L 67.390625 56.78125 
Q 61.921875 61.421875 55.765625 63.765625 
Q 49.609375 66.109375 42.828125 66.109375 
Q 29.4375 66.109375 22.71875 58.640625 
Q 16.015625 51.171875 16.015625 36.375 
Q 16.015625 21.625 22.71875 14.15625 
Q 29.4375 6.6875 42.828125 6.6875 
Q 48.046875 6.6875 52.140625 7.59375 
Q 56.25 8.5 59.515625 10.40625 
z
" id="DejaVuSans-71"/>
      <path d="M 32.171875 -5.078125 
Q 28.375 -14.84375 24.75 -17.8125 
Q 21.140625 -20.796875 15.09375 -20.796875 
L 7.90625 -20.796875 
L 7.90625 -13.28125 
L 13.1875 -13.28125 
Q 16.890625 -13.28125 18.9375 -11.515625 
Q 21 -9.765625 23.484375 -3.21875 
L 25.09375 0.875 
L 2.984375 54.6875 
L 12.5 54.6875 
L 29.59375 11.921875 
L 46.6875 54.6875 
L 56.203125 54.6875 
z
" id="DejaVuSans-121"/>
     </defs>
     <use xlink:href="#DejaVuSans-71"/>
     <use x="77.490234" xlink:href="#DejaVuSans-101"/>
     <use x="139.013672" xlink:href="#DejaVuSans-114"/>
     <use x="178.376953" xlink:href="#DejaVuSans-109"/>
     <use x="275.789062" xlink:href="#DejaVuSans-97"/>
     <use x="337.068359" xlink:href="#DejaVuSans-110"/>
     <use x="400.447266" xlink:href="#DejaVuSans-121"/>
    </g>
   </g>
   <g id="text_20">
    <!-- Greece -->
    <g transform="translate(206.023874 201.663325)scale(0.07 -0.07)">
     <use xlink:href="#DejaVuSans-71"/>
     <use x="77.490234" xlink:href="#DejaVuSans-114"/>
     <use x="116.353516" xlink:href="#DejaVuSans-101"/>
     <use x="177.876953" xlink:href="#DejaVuSans-101"/>
     <use x="239.400391" xlink:href="#DejaVuSans-99"/>
     <use x="294.380859" xlink:href="#DejaVuSans-101"/>
    </g>
   </g>
   <g id="text_21">
    <!-- Hungary -->
    <g transform="translate(243.883284 181.737845)scale(0.07 -0.07)">
     <defs>
      <path d="M 9.8125 72.90625 
L 19.671875 72.90625 
L 19.671875 43.015625 
L 55.515625 43.015625 
L 55.515625 72.90625 
L 65.375 72.90625 
L 65.375 0 
L 55.515625 0 
L 55.515625 34.71875 
L 19.671875 34.71875 
L 19.671875 0 
L 9.8125 0 
z
" id="DejaVuSans-72"/>
     </defs>
     <use xlink:href="#DejaVuSans-72"/>
     <use x="75.195312" xlink:href="#DejaVuSans-117"/>
     <use x="138.574219" xlink:href="#DejaVuSans-110"/>
     <use x="201.953125" xlink:href="#DejaVuSans-103"/>
     <use x="265.429688" xlink:href="#DejaVuSans-97"/>
     <use x="326.708984" xlink:href="#DejaVuSans-114"/>
     <use x="367.822266" xlink:href="#DejaVuSans-121"/>
    </g>
   </g>
   <g id="text_22">
    <!-- India -->
    <g transform="translate(405.307702 85.988366)scale(0.07 -0.07)">
     <defs>
      <path d="M 9.8125 72.90625 
L 19.671875 72.90625 
L 19.671875 0 
L 9.8125 0 
z
" id="DejaVuSans-73"/>
     </defs>
     <use xlink:href="#DejaVuSans-73"/>
     <use x="29.492188" xlink:href="#DejaVuSans-110"/>
     <use x="92.871094" xlink:href="#DejaVuSans-100"/>
     <use x="156.347656" xlink:href="#DejaVuSans-105"/>
     <use x="184.130859" xlink:href="#DejaVuSans-97"/>
    </g>
   </g>
   <g id="text_23">
    <!-- Ireland -->
    <g transform="translate(165.630201 272.442773)scale(0.07 -0.07)">
     <use xlink:href="#DejaVuSans-73"/>
     <use x="29.492188" xlink:href="#DejaVuSans-114"/>
     <use x="68.355469" xlink:href="#DejaVuSans-101"/>
     <use x="129.878906" xlink:href="#DejaVuSans-108"/>
     <use x="157.662109" xlink:href="#DejaVuSans-97"/>
     <use x="218.941406" xlink:href="#DejaVuSans-110"/>
     <use x="282.320312" xlink:href="#DejaVuSans-100"/>
    </g>
   </g>
   <g id="text_24">
    <!-- Italy -->
    <g transform="translate(325.324533 131.614876)scale(0.07 -0.07)">
     <use xlink:href="#DejaVuSans-73"/>
     <use x="29.492188" xlink:href="#DejaVuSans-116"/>
     <use x="68.701172" xlink:href="#DejaVuSans-97"/>
     <use x="129.980469" xlink:href="#DejaVuSans-108"/>
     <use x="157.763672" xlink:href="#DejaVuSans-121"/>
    </g>
   </g>
   <g id="text_25">
    <!-- Japan -->
    <g transform="translate(218.124642 228.158103)scale(0.07 -0.07)">
     <defs>
      <path d="M 9.8125 72.90625 
L 19.671875 72.90625 
L 19.671875 5.078125 
Q 19.671875 -8.109375 14.671875 -14.0625 
Q 9.671875 -20.015625 -1.421875 -20.015625 
L -5.171875 -20.015625 
L -5.171875 -11.71875 
L -2.09375 -11.71875 
Q 4.4375 -11.71875 7.125 -8.046875 
Q 9.8125 -4.390625 9.8125 5.078125 
z
" id="DejaVuSans-74"/>
      <path d="M 18.109375 8.203125 
L 18.109375 -20.796875 
L 9.078125 -20.796875 
L 9.078125 54.6875 
L 18.109375 54.6875 
L 18.109375 46.390625 
Q 20.953125 51.265625 25.265625 53.625 
Q 29.59375 56 35.59375 56 
Q 45.5625 56 51.78125 48.09375 
Q 58.015625 40.1875 58.015625 27.296875 
Q 58.015625 14.40625 51.78125 6.484375 
Q 45.5625 -1.421875 35.59375 -1.421875 
Q 29.59375 -1.421875 25.265625 0.953125 
Q 20.953125 3.328125 18.109375 8.203125 
z
M 48.6875 27.296875 
Q 48.6875 37.203125 44.609375 42.84375 
Q 40.53125 48.484375 33.40625 48.484375 
Q 26.265625 48.484375 22.1875 42.84375 
Q 18.109375 37.203125 18.109375 27.296875 
Q 18.109375 17.390625 22.1875 11.75 
Q 26.265625 6.109375 33.40625 6.109375 
Q 40.53125 6.109375 44.609375 11.75 
Q 48.6875 17.390625 48.6875 27.296875 
z
" id="DejaVuSans-112"/>
     </defs>
     <use xlink:href="#DejaVuSans-74"/>
     <use x="29.492188" xlink:href="#DejaVuSans-97"/>
     <use x="90.771484" xlink:href="#DejaVuSans-112"/>
     <use x="154.248047" xlink:href="#DejaVuSans-97"/>
     <use x="215.527344" xlink:href="#DejaVuSans-110"/>
    </g>
   </g>
   <g id="text_26">
    <!-- Netherlands -->
    <g transform="translate(276.655488 196.840013)scale(0.07 -0.07)">
     <defs>
      <path d="M 9.8125 72.90625 
L 23.09375 72.90625 
L 55.421875 11.921875 
L 55.421875 72.90625 
L 64.984375 72.90625 
L 64.984375 0 
L 51.703125 0 
L 19.390625 60.984375 
L 19.390625 0 
L 9.8125 0 
z
" id="DejaVuSans-78"/>
     </defs>
     <use xlink:href="#DejaVuSans-78"/>
     <use x="74.804688" xlink:href="#DejaVuSans-101"/>
     <use x="136.328125" xlink:href="#DejaVuSans-116"/>
     <use x="175.537109" xlink:href="#DejaVuSans-104"/>
     <use x="238.916016" xlink:href="#DejaVuSans-101"/>
     <use x="300.439453" xlink:href="#DejaVuSans-114"/>
     <use x="341.552734" xlink:href="#DejaVuSans-108"/>
     <use x="369.335938" xlink:href="#DejaVuSans-97"/>
     <use x="430.615234" xlink:href="#DejaVuSans-110"/>
     <use x="493.994141" xlink:href="#DejaVuSans-100"/>
     <use x="557.470703" xlink:href="#DejaVuSans-115"/>
    </g>
   </g>
   <g id="text_27">
    <!-- Norway -->
    <g transform="translate(144.623644 305.972493)scale(0.07 -0.07)">
     <defs>
      <path d="M 30.609375 48.390625 
Q 23.390625 48.390625 19.1875 42.75 
Q 14.984375 37.109375 14.984375 27.296875 
Q 14.984375 17.484375 19.15625 11.84375 
Q 23.34375 6.203125 30.609375 6.203125 
Q 37.796875 6.203125 41.984375 11.859375 
Q 46.1875 17.53125 46.1875 27.296875 
Q 46.1875 37.015625 41.984375 42.703125 
Q 37.796875 48.390625 30.609375 48.390625 
z
M 30.609375 56 
Q 42.328125 56 49.015625 48.375 
Q 55.71875 40.765625 55.71875 27.296875 
Q 55.71875 13.875 49.015625 6.21875 
Q 42.328125 -1.421875 30.609375 -1.421875 
Q 18.84375 -1.421875 12.171875 6.21875 
Q 5.515625 13.875 5.515625 27.296875 
Q 5.515625 40.765625 12.171875 48.375 
Q 18.84375 56 30.609375 56 
z
" id="DejaVuSans-111"/>
      <path d="M 4.203125 54.6875 
L 13.1875 54.6875 
L 24.421875 12.015625 
L 35.59375 54.6875 
L 46.1875 54.6875 
L 57.421875 12.015625 
L 68.609375 54.6875 
L 77.59375 54.6875 
L 63.28125 0 
L 52.6875 0 
L 40.921875 44.828125 
L 29.109375 0 
L 18.5 0 
z
" id="DejaVuSans-119"/>
     </defs>
     <use xlink:href="#DejaVuSans-78"/>
     <use x="74.804688" xlink:href="#DejaVuSans-111"/>
     <use x="135.986328" xlink:href="#DejaVuSans-114"/>
     <use x="177.099609" xlink:href="#DejaVuSans-119"/>
     <use x="258.886719" xlink:href="#DejaVuSans-97"/>
     <use x="320.166016" xlink:href="#DejaVuSans-121"/>
    </g>
   </g>
   <g id="text_28">
    <!-- Poland -->
    <g transform="translate(308.009264 141.999932)scale(0.07 -0.07)">
     <defs>
      <path d="M 19.671875 64.796875 
L 19.671875 37.40625 
L 32.078125 37.40625 
Q 38.96875 37.40625 42.71875 40.96875 
Q 46.484375 44.53125 46.484375 51.125 
Q 46.484375 57.671875 42.71875 61.234375 
Q 38.96875 64.796875 32.078125 64.796875 
z
M 9.8125 72.90625 
L 32.078125 72.90625 
Q 44.34375 72.90625 50.609375 67.359375 
Q 56.890625 61.8125 56.890625 51.125 
Q 56.890625 40.328125 50.609375 34.8125 
Q 44.34375 29.296875 32.078125 29.296875 
L 19.671875 29.296875 
L 19.671875 0 
L 9.8125 0 
z
" id="DejaVuSans-80"/>
     </defs>
     <use xlink:href="#DejaVuSans-80"/>
     <use x="56.677734" xlink:href="#DejaVuSans-111"/>
     <use x="117.859375" xlink:href="#DejaVuSans-108"/>
     <use x="145.642578" xlink:href="#DejaVuSans-97"/>
     <use x="206.921875" xlink:href="#DejaVuSans-110"/>
     <use x="270.300781" xlink:href="#DejaVuSans-100"/>
    </g>
   </g>
   <g id="text_29">
    <!-- Portugal -->
    <g transform="translate(248.052723 197.608505)scale(0.07 -0.07)">
     <use xlink:href="#DejaVuSans-80"/>
     <use x="56.677734" xlink:href="#DejaVuSans-111"/>
     <use x="117.859375" xlink:href="#DejaVuSans-114"/>
     <use x="158.972656" xlink:href="#DejaVuSans-116"/>
     <use x="198.181641" xlink:href="#DejaVuSans-117"/>
     <use x="261.560547" xlink:href="#DejaVuSans-103"/>
     <use x="325.037109" xlink:href="#DejaVuSans-97"/>
     <use x="386.316406" xlink:href="#DejaVuSans-108"/>
    </g>
   </g>
   <g id="text_30">
    <!-- Russia -->
    <g transform="translate(332.879931 126.207628)scale(0.07 -0.07)">
     <defs>
      <path d="M 44.390625 34.1875 
Q 47.5625 33.109375 50.5625 29.59375 
Q 53.5625 26.078125 56.59375 19.921875 
L 66.609375 0 
L 56 0 
L 46.6875 18.703125 
Q 43.0625 26.03125 39.671875 28.421875 
Q 36.28125 30.8125 30.421875 30.8125 
L 19.671875 30.8125 
L 19.671875 0 
L 9.8125 0 
L 9.8125 72.90625 
L 32.078125 72.90625 
Q 44.578125 72.90625 50.734375 67.671875 
Q 56.890625 62.453125 56.890625 51.90625 
Q 56.890625 45.015625 53.6875 40.46875 
Q 50.484375 35.9375 44.390625 34.1875 
z
M 19.671875 64.796875 
L 19.671875 38.921875 
L 32.078125 38.921875 
Q 39.203125 38.921875 42.84375 42.21875 
Q 46.484375 45.515625 46.484375 51.90625 
Q 46.484375 58.296875 42.84375 61.546875 
Q 39.203125 64.796875 32.078125 64.796875 
z
" id="DejaVuSans-82"/>
     </defs>
     <use xlink:href="#DejaVuSans-82"/>
     <use x="64.982422" xlink:href="#DejaVuSans-117"/>
     <use x="128.361328" xlink:href="#DejaVuSans-115"/>
     <use x="180.460938" xlink:href="#DejaVuSans-115"/>
     <use x="232.560547" xlink:href="#DejaVuSans-105"/>
     <use x="260.34375" xlink:href="#DejaVuSans-97"/>
    </g>
   </g>
   <g id="text_31">
    <!-- Spain -->
    <g transform="translate(322.040332 145.014898)scale(0.07 -0.07)">
     <defs>
      <path d="M 53.515625 70.515625 
L 53.515625 60.890625 
Q 47.90625 63.578125 42.921875 64.890625 
Q 37.9375 66.21875 33.296875 66.21875 
Q 25.25 66.21875 20.875 63.09375 
Q 16.5 59.96875 16.5 54.203125 
Q 16.5 49.359375 19.40625 46.890625 
Q 22.3125 44.4375 30.421875 42.921875 
L 36.375 41.703125 
Q 47.40625 39.59375 52.65625 34.296875 
Q 57.90625 29 57.90625 20.125 
Q 57.90625 9.515625 50.796875 4.046875 
Q 43.703125 -1.421875 29.984375 -1.421875 
Q 24.8125 -1.421875 18.96875 -0.25 
Q 13.140625 0.921875 6.890625 3.21875 
L 6.890625 13.375 
Q 12.890625 10.015625 18.65625 8.296875 
Q 24.421875 6.59375 29.984375 6.59375 
Q 38.421875 6.59375 43.015625 9.90625 
Q 47.609375 13.234375 47.609375 19.390625 
Q 47.609375 24.75 44.3125 27.78125 
Q 41.015625 30.8125 33.5 32.328125 
L 27.484375 33.5 
Q 16.453125 35.6875 11.515625 40.375 
Q 6.59375 45.0625 6.59375 53.421875 
Q 6.59375 63.09375 13.40625 68.65625 
Q 20.21875 74.21875 32.171875 74.21875 
Q 37.3125 74.21875 42.625 73.28125 
Q 47.953125 72.359375 53.515625 70.515625 
z
" id="DejaVuSans-83"/>
     </defs>
     <use xlink:href="#DejaVuSans-83"/>
     <use x="63.476562" xlink:href="#DejaVuSans-112"/>
     <use x="126.953125" xlink:href="#DejaVuSans-97"/>
     <use x="188.232422" xlink:href="#DejaVuSans-105"/>
     <use x="216.015625" xlink:href="#DejaVuSans-110"/>
    </g>
   </g>
   <g id="text_32">
    <!-- Sweden -->
    <g transform="translate(239.376349 221.127418)scale(0.07 -0.07)">
     <use xlink:href="#DejaVuSans-83"/>
     <use x="63.476562" xlink:href="#DejaVuSans-119"/>
     <use x="145.263672" xlink:href="#DejaVuSans-101"/>
     <use x="206.787109" xlink:href="#DejaVuSans-100"/>
     <use x="270.263672" xlink:href="#DejaVuSans-101"/>
     <use x="331.787109" xlink:href="#DejaVuSans-110"/>
    </g>
   </g>
   <g id="text_33">
    <!-- Switzerland -->
    <g transform="translate(254.315895 195.821329)scale(0.07 -0.07)">
     <use xlink:href="#DejaVuSans-83"/>
     <use x="63.476562" xlink:href="#DejaVuSans-119"/>
     <use x="145.263672" xlink:href="#DejaVuSans-105"/>
     <use x="173.046875" xlink:href="#DejaVuSans-116"/>
     <use x="212.255859" xlink:href="#DejaVuSans-122"/>
     <use x="264.746094" xlink:href="#DejaVuSans-101"/>
     <use x="326.269531" xlink:href="#DejaVuSans-114"/>
     <use x="367.382812" xlink:href="#DejaVuSans-108"/>
     <use x="395.166016" xlink:href="#DejaVuSans-97"/>
     <use x="456.445312" xlink:href="#DejaVuSans-110"/>
     <use x="519.824219" xlink:href="#DejaVuSans-100"/>
    </g>
   </g>
   <g id="text_34">
    <!-- US -->
    <g transform="translate(421.420454 76.198897)scale(0.07 -0.07)">
     <defs>
      <path d="M 8.6875 72.90625 
L 18.609375 72.90625 
L 18.609375 28.609375 
Q 18.609375 16.890625 22.84375 11.734375 
Q 27.09375 6.59375 36.625 6.59375 
Q 46.09375 6.59375 50.34375 11.734375 
Q 54.59375 16.890625 54.59375 28.609375 
L 54.59375 72.90625 
L 64.5 72.90625 
L 64.5 27.390625 
Q 64.5 13.140625 57.4375 5.859375 
Q 50.390625 -1.421875 36.625 -1.421875 
Q 22.796875 -1.421875 15.734375 5.859375 
Q 8.6875 13.140625 8.6875 27.390625 
z
" id="DejaVuSans-85"/>
     </defs>
     <use xlink:href="#DejaVuSans-85"/>
     <use x="73.193359" xlink:href="#DejaVuSans-83"/>
    </g>
   </g>
   <g id="text_35">
    <!-- Ukraine -->
    <g transform="translate(296.740026 155.050014)scale(0.07 -0.07)">
     <use xlink:href="#DejaVuSans-85"/>
     <use x="73.193359" xlink:href="#DejaVuSans-107"/>
     <use x="131.103516" xlink:href="#DejaVuSans-114"/>
     <use x="172.216797" xlink:href="#DejaVuSans-97"/>
     <use x="233.496094" xlink:href="#DejaVuSans-105"/>
     <use x="261.279297" xlink:href="#DejaVuSans-110"/>
     <use x="324.658203" xlink:href="#DejaVuSans-101"/>
    </g>
   </g>
   <g id="text_36">
    <!-- United Kingdom -->
    <g transform="translate(324.054985 139.008185)scale(0.07 -0.07)">
     <defs>
      <path id="DejaVuSans-32"/>
      <path d="M 9.8125 72.90625 
L 19.671875 72.90625 
L 19.671875 42.09375 
L 52.390625 72.90625 
L 65.09375 72.90625 
L 28.90625 38.921875 
L 67.671875 0 
L 54.6875 0 
L 19.671875 35.109375 
L 19.671875 0 
L 9.8125 0 
z
" id="DejaVuSans-75"/>
     </defs>
     <use xlink:href="#DejaVuSans-85"/>
     <use x="73.193359" xlink:href="#DejaVuSans-110"/>
     <use x="136.572266" xlink:href="#DejaVuSans-105"/>
     <use x="164.355469" xlink:href="#DejaVuSans-116"/>
     <use x="203.564453" xlink:href="#DejaVuSans-101"/>
     <use x="265.087891" xlink:href="#DejaVuSans-100"/>
     <use x="328.564453" xlink:href="#DejaVuSans-32"/>
     <use x="360.351562" xlink:href="#DejaVuSans-75"/>
     <use x="425.927734" xlink:href="#DejaVuSans-105"/>
     <use x="453.710938" xlink:href="#DejaVuSans-110"/>
     <use x="517.089844" xlink:href="#DejaVuSans-103"/>
     <use x="580.566406" xlink:href="#DejaVuSans-100"/>
     <use x="644.042969" xlink:href="#DejaVuSans-111"/>
     <use x="705.224609" xlink:href="#DejaVuSans-109"/>
    </g>
   </g>
   <g id="text_37">
    <!-- cfr 1.0% -->
    <g transform="translate(450.709091 59.761475)scale(0.1 -0.1)">
     <defs>
      <path d="M 37.109375 75.984375 
L 37.109375 68.5 
L 28.515625 68.5 
Q 23.6875 68.5 21.796875 66.546875 
Q 19.921875 64.59375 19.921875 59.515625 
L 19.921875 54.6875 
L 34.71875 54.6875 
L 34.71875 47.703125 
L 19.921875 47.703125 
L 19.921875 0 
L 10.890625 0 
L 10.890625 47.703125 
L 2.296875 47.703125 
L 2.296875 54.6875 
L 10.890625 54.6875 
L 10.890625 58.5 
Q 10.890625 67.625 15.140625 71.796875 
Q 19.390625 75.984375 28.609375 75.984375 
z
" id="DejaVuSans-102"/>
      <path d="M 10.6875 12.40625 
L 21 12.40625 
L 21 0 
L 10.6875 0 
z
" id="DejaVuSans-46"/>
      <path d="M 72.703125 32.078125 
Q 68.453125 32.078125 66.03125 28.46875 
Q 63.625 24.859375 63.625 18.40625 
Q 63.625 12.0625 66.03125 8.421875 
Q 68.453125 4.78125 72.703125 4.78125 
Q 76.859375 4.78125 79.265625 8.421875 
Q 81.6875 12.0625 81.6875 18.40625 
Q 81.6875 24.8125 79.265625 28.4375 
Q 76.859375 32.078125 72.703125 32.078125 
z
M 72.703125 38.28125 
Q 80.421875 38.28125 84.953125 32.90625 
Q 89.5 27.546875 89.5 18.40625 
Q 89.5 9.28125 84.9375 3.921875 
Q 80.375 -1.421875 72.703125 -1.421875 
Q 64.890625 -1.421875 60.34375 3.921875 
Q 55.8125 9.28125 55.8125 18.40625 
Q 55.8125 27.59375 60.375 32.9375 
Q 64.9375 38.28125 72.703125 38.28125 
z
M 22.3125 68.015625 
Q 18.109375 68.015625 15.6875 64.375 
Q 13.28125 60.75 13.28125 54.390625 
Q 13.28125 47.953125 15.671875 44.328125 
Q 18.0625 40.71875 22.3125 40.71875 
Q 26.5625 40.71875 28.96875 44.328125 
Q 31.390625 47.953125 31.390625 54.390625 
Q 31.390625 60.6875 28.953125 64.34375 
Q 26.515625 68.015625 22.3125 68.015625 
z
M 66.40625 74.21875 
L 74.21875 74.21875 
L 28.609375 -1.421875 
L 20.796875 -1.421875 
z
M 22.3125 74.21875 
Q 30.03125 74.21875 34.609375 68.875 
Q 39.203125 63.53125 39.203125 54.390625 
Q 39.203125 45.171875 34.640625 39.84375 
Q 30.078125 34.515625 22.3125 34.515625 
Q 14.546875 34.515625 10.03125 39.859375 
Q 5.515625 45.21875 5.515625 54.390625 
Q 5.515625 63.484375 10.046875 68.84375 
Q 14.59375 74.21875 22.3125 74.21875 
z
" id="DejaVuSans-37"/>
     </defs>
     <use xlink:href="#DejaVuSans-99"/>
     <use x="54.980469" xlink:href="#DejaVuSans-102"/>
     <use x="90.185547" xlink:href="#DejaVuSans-114"/>
     <use x="131.298828" xlink:href="#DejaVuSans-32"/>
     <use x="163.085938" xlink:href="#DejaVuSans-49"/>
     <use x="226.708984" xlink:href="#DejaVuSans-46"/>
     <use x="258.496094" xlink:href="#DejaVuSans-48"/>
     <use x="322.119141" xlink:href="#DejaVuSans-37"/>
    </g>
   </g>
   <g id="text_38">
    <!-- cfr 2.0% -->
    <g transform="translate(450.709091 37.293465)scale(0.1 -0.1)">
     <use xlink:href="#DejaVuSans-99"/>
     <use x="54.980469" xlink:href="#DejaVuSans-102"/>
     <use x="90.185547" xlink:href="#DejaVuSans-114"/>
     <use x="131.298828" xlink:href="#DejaVuSans-32"/>
     <use x="163.085938" xlink:href="#DejaVuSans-50"/>
     <use x="226.708984" xlink:href="#DejaVuSans-46"/>
     <use x="258.496094" xlink:href="#DejaVuSans-48"/>
     <use x="322.119141" xlink:href="#DejaVuSans-37"/>
    </g>
   </g>
   <g id="text_39">
    <!-- cfr 4.0% -->
    <g transform="translate(450.709091 14.825455)scale(0.1 -0.1)">
     <use xlink:href="#DejaVuSans-99"/>
     <use x="54.980469" xlink:href="#DejaVuSans-102"/>
     <use x="90.185547" xlink:href="#DejaVuSans-114"/>
     <use x="131.298828" xlink:href="#DejaVuSans-32"/>
     <use x="163.085938" xlink:href="#DejaVuSans-52"/>
     <use x="226.708984" xlink:href="#DejaVuSans-46"/>
     <use x="258.496094" xlink:href="#DejaVuSans-48"/>
     <use x="322.119141" xlink:href="#DejaVuSans-37"/>
    </g>
   </g>
  </g>
 </g>
 <defs>
  <clipPath id="p26ebb03c24">
   <rect height="326.16" width="446.4" x="24.6" y="-0"/>
  </clipPath>
 </defs>
</svg>
