<?xml version="1.0" encoding="utf-8" standalone="no"?>
<!DOCTYPE svg PUBLIC "-//W3C//DTD SVG 1.1//EN"
  "http://www.w3.org/Graphics/SVG/1.1/DTD/svg11.dtd">
<!-- Created with matplotlib (https://matplotlib.org/) -->
<svg height="356.51625pt" version="1.1" viewBox="0 0 390.471875 356.51625" width="390.471875pt" xmlns="http://www.w3.org/2000/svg" xmlns:xlink="http://www.w3.org/1999/xlink">
 <metadata>
  <rdf:RDF xmlns:cc="http://creativecommons.org/ns#" xmlns:dc="http://purl.org/dc/elements/1.1/" xmlns:rdf="http://www.w3.org/1999/02/22-rdf-syntax-ns#">
   <cc:Work>
    <dc:type rdf:resource="http://purl.org/dc/dcmitype/StillImage"/>
    <dc:date>2020-12-04T21:45:22.969791</dc:date>
    <dc:format>image/svg+xml</dc:format>
    <dc:creator>
     <cc:Agent>
      <dc:title>Matplotlib v3.3.2, https://matplotlib.org/</dc:title>
     </cc:Agent>
    </dc:creator>
   </cc:Work>
  </rdf:RDF>
 </metadata>
 <defs>
  <style type="text/css">*{stroke-linecap:butt;stroke-linejoin:round;}</style>
 </defs>
 <g id="figure_1">
  <g id="patch_1">
   <path d="M 0 356.51625 
L 390.471875 356.51625 
L 390.471875 0 
L 0 0 
z
" style="fill:none;"/>
  </g>
  <g id="axes_1">
   <g id="patch_2">
    <path d="M 46.128125 148.254545 
L 380.928125 148.254545 
L 380.928125 0 
L 46.128125 0 
z
" style="fill:none;"/>
   </g>
   <g id="matplotlib.axis_1">
    <g id="xtick_1">
     <g id="line2d_1">
      <defs>
       <path d="M 0 0 
L 0 3.5 
" id="m4bc3140c5d" style="stroke:#000000;stroke-width:0.8;"/>
      </defs>
      <g>
       <use style="stroke:#000000;stroke-width:0.8;" x="46.128125" xlink:href="#m4bc3140c5d" y="148.254545"/>
      </g>
     </g>
    </g>
    <g id="xtick_2">
     <g id="line2d_2">
      <g>
       <use style="stroke:#000000;stroke-width:0.8;" x="87.978125" xlink:href="#m4bc3140c5d" y="148.254545"/>
      </g>
     </g>
    </g>
    <g id="xtick_3">
     <g id="line2d_3">
      <g>
       <use style="stroke:#000000;stroke-width:0.8;" x="129.828125" xlink:href="#m4bc3140c5d" y="148.254545"/>
      </g>
     </g>
    </g>
    <g id="xtick_4">
     <g id="line2d_4">
      <g>
       <use style="stroke:#000000;stroke-width:0.8;" x="171.678125" xlink:href="#m4bc3140c5d" y="148.254545"/>
      </g>
     </g>
    </g>
    <g id="xtick_5">
     <g id="line2d_5">
      <g>
       <use style="stroke:#000000;stroke-width:0.8;" x="213.528125" xlink:href="#m4bc3140c5d" y="148.254545"/>
      </g>
     </g>
    </g>
    <g id="xtick_6">
     <g id="line2d_6">
      <g>
       <use style="stroke:#000000;stroke-width:0.8;" x="255.378125" xlink:href="#m4bc3140c5d" y="148.254545"/>
      </g>
     </g>
    </g>
    <g id="xtick_7">
     <g id="line2d_7">
      <g>
       <use style="stroke:#000000;stroke-width:0.8;" x="297.228125" xlink:href="#m4bc3140c5d" y="148.254545"/>
      </g>
     </g>
    </g>
    <g id="xtick_8">
     <g id="line2d_8">
      <g>
       <use style="stroke:#000000;stroke-width:0.8;" x="339.078125" xlink:href="#m4bc3140c5d" y="148.254545"/>
      </g>
     </g>
    </g>
    <g id="xtick_9">
     <g id="line2d_9">
      <g>
       <use style="stroke:#000000;stroke-width:0.8;" x="380.928125" xlink:href="#m4bc3140c5d" y="148.254545"/>
      </g>
     </g>
    </g>
   </g>
   <g id="matplotlib.axis_2">
    <g id="ytick_1">
     <g id="line2d_10">
      <defs>
       <path d="M 0 0 
L -3.5 0 
" id="mcb58fd56cc" style="stroke:#000000;stroke-width:0.8;"/>
      </defs>
      <g>
       <use style="stroke:#000000;stroke-width:0.8;" x="46.128125" xlink:href="#mcb58fd56cc" y="141.622576"/>
      </g>
     </g>
     <g id="text_1">
      <!-- 0 -->
      <g transform="translate(32.765625 145.421794)scale(0.1 -0.1)">
       <defs>
        <path d="M 31.78125 66.40625 
Q 24.171875 66.40625 20.328125 58.90625 
Q 16.5 51.421875 16.5 36.375 
Q 16.5 21.390625 20.328125 13.890625 
Q 24.171875 6.390625 31.78125 6.390625 
Q 39.453125 6.390625 43.28125 13.890625 
Q 47.125 21.390625 47.125 36.375 
Q 47.125 51.421875 43.28125 58.90625 
Q 39.453125 66.40625 31.78125 66.40625 
z
M 31.78125 74.21875 
Q 44.046875 74.21875 50.515625 64.515625 
Q 56.984375 54.828125 56.984375 36.375 
Q 56.984375 17.96875 50.515625 8.265625 
Q 44.046875 -1.421875 31.78125 -1.421875 
Q 19.53125 -1.421875 13.0625 8.265625 
Q 6.59375 17.96875 6.59375 36.375 
Q 6.59375 54.828125 13.0625 64.515625 
Q 19.53125 74.21875 31.78125 74.21875 
z
" id="DejaVuSans-48"/>
       </defs>
       <use xlink:href="#DejaVuSans-48"/>
      </g>
     </g>
    </g>
    <g id="ytick_2">
     <g id="line2d_11">
      <g>
       <use style="stroke:#000000;stroke-width:0.8;" x="46.128125" xlink:href="#mcb58fd56cc" y="117.333205"/>
      </g>
     </g>
     <g id="text_2">
      <!-- 10 -->
      <g transform="translate(26.403125 121.132424)scale(0.1 -0.1)">
       <defs>
        <path d="M 12.40625 8.296875 
L 28.515625 8.296875 
L 28.515625 63.921875 
L 10.984375 60.40625 
L 10.984375 69.390625 
L 28.421875 72.90625 
L 38.28125 72.90625 
L 38.28125 8.296875 
L 54.390625 8.296875 
L 54.390625 0 
L 12.40625 0 
z
" id="DejaVuSans-49"/>
       </defs>
       <use xlink:href="#DejaVuSans-49"/>
       <use x="63.623047" xlink:href="#DejaVuSans-48"/>
      </g>
     </g>
    </g>
    <g id="ytick_3">
     <g id="line2d_12">
      <g>
       <use style="stroke:#000000;stroke-width:0.8;" x="46.128125" xlink:href="#mcb58fd56cc" y="93.043835"/>
      </g>
     </g>
     <g id="text_3">
      <!-- 20 -->
      <g transform="translate(26.403125 96.843053)scale(0.1 -0.1)">
       <defs>
        <path d="M 19.1875 8.296875 
L 53.609375 8.296875 
L 53.609375 0 
L 7.328125 0 
L 7.328125 8.296875 
Q 12.9375 14.109375 22.625 23.890625 
Q 32.328125 33.6875 34.8125 36.53125 
Q 39.546875 41.84375 41.421875 45.53125 
Q 43.3125 49.21875 43.3125 52.78125 
Q 43.3125 58.59375 39.234375 62.25 
Q 35.15625 65.921875 28.609375 65.921875 
Q 23.96875 65.921875 18.8125 64.3125 
Q 13.671875 62.703125 7.8125 59.421875 
L 7.8125 69.390625 
Q 13.765625 71.78125 18.9375 73 
Q 24.125 74.21875 28.421875 74.21875 
Q 39.75 74.21875 46.484375 68.546875 
Q 53.21875 62.890625 53.21875 53.421875 
Q 53.21875 48.921875 51.53125 44.890625 
Q 49.859375 40.875 45.40625 35.40625 
Q 44.1875 33.984375 37.640625 27.21875 
Q 31.109375 20.453125 19.1875 8.296875 
z
" id="DejaVuSans-50"/>
       </defs>
       <use xlink:href="#DejaVuSans-50"/>
       <use x="63.623047" xlink:href="#DejaVuSans-48"/>
      </g>
     </g>
    </g>
    <g id="ytick_4">
     <g id="line2d_13">
      <g>
       <use style="stroke:#000000;stroke-width:0.8;" x="46.128125" xlink:href="#mcb58fd56cc" y="68.754464"/>
      </g>
     </g>
     <g id="text_4">
      <!-- 30 -->
      <g transform="translate(26.403125 72.553683)scale(0.1 -0.1)">
       <defs>
        <path d="M 40.578125 39.3125 
Q 47.65625 37.796875 51.625 33 
Q 55.609375 28.21875 55.609375 21.1875 
Q 55.609375 10.40625 48.1875 4.484375 
Q 40.765625 -1.421875 27.09375 -1.421875 
Q 22.515625 -1.421875 17.65625 -0.515625 
Q 12.796875 0.390625 7.625 2.203125 
L 7.625 11.71875 
Q 11.71875 9.328125 16.59375 8.109375 
Q 21.484375 6.890625 26.8125 6.890625 
Q 36.078125 6.890625 40.9375 10.546875 
Q 45.796875 14.203125 45.796875 21.1875 
Q 45.796875 27.640625 41.28125 31.265625 
Q 36.765625 34.90625 28.71875 34.90625 
L 20.21875 34.90625 
L 20.21875 43.015625 
L 29.109375 43.015625 
Q 36.375 43.015625 40.234375 45.921875 
Q 44.09375 48.828125 44.09375 54.296875 
Q 44.09375 59.90625 40.109375 62.90625 
Q 36.140625 65.921875 28.71875 65.921875 
Q 24.65625 65.921875 20.015625 65.03125 
Q 15.375 64.15625 9.8125 62.3125 
L 9.8125 71.09375 
Q 15.4375 72.65625 20.34375 73.4375 
Q 25.25 74.21875 29.59375 74.21875 
Q 40.828125 74.21875 47.359375 69.109375 
Q 53.90625 64.015625 53.90625 55.328125 
Q 53.90625 49.265625 50.4375 45.09375 
Q 46.96875 40.921875 40.578125 39.3125 
z
" id="DejaVuSans-51"/>
       </defs>
       <use xlink:href="#DejaVuSans-51"/>
       <use x="63.623047" xlink:href="#DejaVuSans-48"/>
      </g>
     </g>
    </g>
    <g id="ytick_5">
     <g id="line2d_14">
      <g>
       <use style="stroke:#000000;stroke-width:0.8;" x="46.128125" xlink:href="#mcb58fd56cc" y="44.465093"/>
      </g>
     </g>
     <g id="text_5">
      <!-- 40 -->
      <g transform="translate(26.403125 48.264312)scale(0.1 -0.1)">
       <defs>
        <path d="M 37.796875 64.3125 
L 12.890625 25.390625 
L 37.796875 25.390625 
z
M 35.203125 72.90625 
L 47.609375 72.90625 
L 47.609375 25.390625 
L 58.015625 25.390625 
L 58.015625 17.1875 
L 47.609375 17.1875 
L 47.609375 0 
L 37.796875 0 
L 37.796875 17.1875 
L 4.890625 17.1875 
L 4.890625 26.703125 
z
" id="DejaVuSans-52"/>
       </defs>
       <use xlink:href="#DejaVuSans-52"/>
       <use x="63.623047" xlink:href="#DejaVuSans-48"/>
      </g>
     </g>
    </g>
    <g id="ytick_6">
     <g id="line2d_15">
      <g>
       <use style="stroke:#000000;stroke-width:0.8;" x="46.128125" xlink:href="#mcb58fd56cc" y="20.175723"/>
      </g>
     </g>
     <g id="text_6">
      <!-- 50 -->
      <g transform="translate(26.403125 23.974942)scale(0.1 -0.1)">
       <defs>
        <path d="M 10.796875 72.90625 
L 49.515625 72.90625 
L 49.515625 64.59375 
L 19.828125 64.59375 
L 19.828125 46.734375 
Q 21.96875 47.46875 24.109375 47.828125 
Q 26.265625 48.1875 28.421875 48.1875 
Q 40.625 48.1875 47.75 41.5 
Q 54.890625 34.8125 54.890625 23.390625 
Q 54.890625 11.625 47.5625 5.09375 
Q 40.234375 -1.421875 26.90625 -1.421875 
Q 22.3125 -1.421875 17.546875 -0.640625 
Q 12.796875 0.140625 7.71875 1.703125 
L 7.71875 11.625 
Q 12.109375 9.234375 16.796875 8.0625 
Q 21.484375 6.890625 26.703125 6.890625 
Q 35.15625 6.890625 40.078125 11.328125 
Q 45.015625 15.765625 45.015625 23.390625 
Q 45.015625 31 40.078125 35.4375 
Q 35.15625 39.890625 26.703125 39.890625 
Q 22.75 39.890625 18.8125 39.015625 
Q 14.890625 38.140625 10.796875 36.28125 
z
" id="DejaVuSans-53"/>
       </defs>
       <use xlink:href="#DejaVuSans-53"/>
       <use x="63.623047" xlink:href="#DejaVuSans-48"/>
      </g>
     </g>
    </g>
    <g id="text_7">
     <!-- % of popn -->
     <g transform="translate(20.323438 99.452273)rotate(-90)scale(0.1 -0.1)">
      <defs>
       <path d="M 72.703125 32.078125 
Q 68.453125 32.078125 66.03125 28.46875 
Q 63.625 24.859375 63.625 18.40625 
Q 63.625 12.0625 66.03125 8.421875 
Q 68.453125 4.78125 72.703125 4.78125 
Q 76.859375 4.78125 79.265625 8.421875 
Q 81.6875 12.0625 81.6875 18.40625 
Q 81.6875 24.8125 79.265625 28.4375 
Q 76.859375 32.078125 72.703125 32.078125 
z
M 72.703125 38.28125 
Q 80.421875 38.28125 84.953125 32.90625 
Q 89.5 27.546875 89.5 18.40625 
Q 89.5 9.28125 84.9375 3.921875 
Q 80.375 -1.421875 72.703125 -1.421875 
Q 64.890625 -1.421875 60.34375 3.921875 
Q 55.8125 9.28125 55.8125 18.40625 
Q 55.8125 27.59375 60.375 32.9375 
Q 64.9375 38.28125 72.703125 38.28125 
z
M 22.3125 68.015625 
Q 18.109375 68.015625 15.6875 64.375 
Q 13.28125 60.75 13.28125 54.390625 
Q 13.28125 47.953125 15.671875 44.328125 
Q 18.0625 40.71875 22.3125 40.71875 
Q 26.5625 40.71875 28.96875 44.328125 
Q 31.390625 47.953125 31.390625 54.390625 
Q 31.390625 60.6875 28.953125 64.34375 
Q 26.515625 68.015625 22.3125 68.015625 
z
M 66.40625 74.21875 
L 74.21875 74.21875 
L 28.609375 -1.421875 
L 20.796875 -1.421875 
z
M 22.3125 74.21875 
Q 30.03125 74.21875 34.609375 68.875 
Q 39.203125 63.53125 39.203125 54.390625 
Q 39.203125 45.171875 34.640625 39.84375 
Q 30.078125 34.515625 22.3125 34.515625 
Q 14.546875 34.515625 10.03125 39.859375 
Q 5.515625 45.21875 5.515625 54.390625 
Q 5.515625 63.484375 10.046875 68.84375 
Q 14.59375 74.21875 22.3125 74.21875 
z
" id="DejaVuSans-37"/>
       <path id="DejaVuSans-32"/>
       <path d="M 30.609375 48.390625 
Q 23.390625 48.390625 19.1875 42.75 
Q 14.984375 37.109375 14.984375 27.296875 
Q 14.984375 17.484375 19.15625 11.84375 
Q 23.34375 6.203125 30.609375 6.203125 
Q 37.796875 6.203125 41.984375 11.859375 
Q 46.1875 17.53125 46.1875 27.296875 
Q 46.1875 37.015625 41.984375 42.703125 
Q 37.796875 48.390625 30.609375 48.390625 
z
M 30.609375 56 
Q 42.328125 56 49.015625 48.375 
Q 55.71875 40.765625 55.71875 27.296875 
Q 55.71875 13.875 49.015625 6.21875 
Q 42.328125 -1.421875 30.609375 -1.421875 
Q 18.84375 -1.421875 12.171875 6.21875 
Q 5.515625 13.875 5.515625 27.296875 
Q 5.515625 40.765625 12.171875 48.375 
Q 18.84375 56 30.609375 56 
z
" id="DejaVuSans-111"/>
       <path d="M 37.109375 75.984375 
L 37.109375 68.5 
L 28.515625 68.5 
Q 23.6875 68.5 21.796875 66.546875 
Q 19.921875 64.59375 19.921875 59.515625 
L 19.921875 54.6875 
L 34.71875 54.6875 
L 34.71875 47.703125 
L 19.921875 47.703125 
L 19.921875 0 
L 10.890625 0 
L 10.890625 47.703125 
L 2.296875 47.703125 
L 2.296875 54.6875 
L 10.890625 54.6875 
L 10.890625 58.5 
Q 10.890625 67.625 15.140625 71.796875 
Q 19.390625 75.984375 28.609375 75.984375 
z
" id="DejaVuSans-102"/>
       <path d="M 18.109375 8.203125 
L 18.109375 -20.796875 
L 9.078125 -20.796875 
L 9.078125 54.6875 
L 18.109375 54.6875 
L 18.109375 46.390625 
Q 20.953125 51.265625 25.265625 53.625 
Q 29.59375 56 35.59375 56 
Q 45.5625 56 51.78125 48.09375 
Q 58.015625 40.1875 58.015625 27.296875 
Q 58.015625 14.40625 51.78125 6.484375 
Q 45.5625 -1.421875 35.59375 -1.421875 
Q 29.59375 -1.421875 25.265625 0.953125 
Q 20.953125 3.328125 18.109375 8.203125 
z
M 48.6875 27.296875 
Q 48.6875 37.203125 44.609375 42.84375 
Q 40.53125 48.484375 33.40625 48.484375 
Q 26.265625 48.484375 22.1875 42.84375 
Q 18.109375 37.203125 18.109375 27.296875 
Q 18.109375 17.390625 22.1875 11.75 
Q 26.265625 6.109375 33.40625 6.109375 
Q 40.53125 6.109375 44.609375 11.75 
Q 48.6875 17.390625 48.6875 27.296875 
z
" id="DejaVuSans-112"/>
       <path d="M 54.890625 33.015625 
L 54.890625 0 
L 45.90625 0 
L 45.90625 32.71875 
Q 45.90625 40.484375 42.875 44.328125 
Q 39.84375 48.1875 33.796875 48.1875 
Q 26.515625 48.1875 22.3125 43.546875 
Q 18.109375 38.921875 18.109375 30.90625 
L 18.109375 0 
L 9.078125 0 
L 9.078125 54.6875 
L 18.109375 54.6875 
L 18.109375 46.1875 
Q 21.34375 51.125 25.703125 53.5625 
Q 30.078125 56 35.796875 56 
Q 45.21875 56 50.046875 50.171875 
Q 54.890625 44.34375 54.890625 33.015625 
z
" id="DejaVuSans-110"/>
      </defs>
      <use xlink:href="#DejaVuSans-37"/>
      <use x="95.019531" xlink:href="#DejaVuSans-32"/>
      <use x="126.806641" xlink:href="#DejaVuSans-111"/>
      <use x="187.988281" xlink:href="#DejaVuSans-102"/>
      <use x="223.193359" xlink:href="#DejaVuSans-32"/>
      <use x="254.980469" xlink:href="#DejaVuSans-112"/>
      <use x="318.457031" xlink:href="#DejaVuSans-111"/>
      <use x="379.638672" xlink:href="#DejaVuSans-112"/>
      <use x="443.115234" xlink:href="#DejaVuSans-110"/>
     </g>
    </g>
   </g>
   <g id="line2d_16">
    <path clip-path="url(#p3b091afe29)" d="M 46.128125 141.515702 
L 54.498125 141.029915 
L 69.564125 139.489969 
L 79.608125 138.13948 
L 84.630125 137.260205 
L 91.326125 135.958294 
L 101.370125 133.563363 
L 109.740125 130.906105 
L 113.088125 129.531327 
L 118.110125 127.724198 
L 123.132125 125.436139 
L 128.154125 122.837176 
L 138.198125 117.260337 
L 141.546125 115.025715 
L 143.220125 113.816104 
L 144.894125 112.757088 
L 146.568125 111.474609 
L 148.242125 110.396161 
L 163.308125 98.465222 
L 171.678125 91.265853 
L 176.700125 86.850045 
L 181.722125 82.555684 
L 186.744125 78.285613 
L 190.092125 75.210579 
L 191.766125 73.758074 
L 193.440125 72.130686 
L 195.114125 70.833634 
L 198.462125 67.943199 
L 205.158125 62.468375 
L 208.506125 59.621661 
L 215.202125 54.32172 
L 220.224125 50.858056 
L 223.572125 48.735165 
L 226.920125 46.447106 
L 233.616125 42.283908 
L 235.290125 41.234607 
L 236.964125 40.3359 
L 240.312125 38.383035 
L 245.334125 35.682057 
L 252.030125 32.436997 
L 258.726125 29.454262 
L 268.770125 25.606826 
L 273.792125 23.857991 
L 280.488125 21.720527 
L 288.858125 19.345026 
L 293.880125 18.183994 
L 297.228125 17.431024 
L 305.598125 15.72591 
L 312.294125 14.535731 
L 320.664125 13.316405 
L 337.404125 11.319818 
L 340.752125 10.921473 
L 354.144125 9.663283 
L 364.188125 8.920028 
L 380.928125 8.249642 
L 391.471875 7.874206 
L 391.471875 7.874206 
" style="fill:none;stroke:#1f77b4;stroke-linecap:square;stroke-width:1.5;"/>
   </g>
   <g id="line2d_17">
    <path clip-path="url(#p3b091afe29)" d="M 46.128125 140.490691 
L 52.824125 139.834878 
L 59.520125 138.955603 
L 64.542125 138.222064 
L 69.564125 137.45452 
L 76.260125 136.147752 
L 82.956125 134.549511 
L 86.304125 133.665378 
L 96.348125 130.600059 
L 101.370125 128.705488 
L 108.066125 125.756759 
L 113.088125 123.094644 
L 116.436125 121.365241 
L 121.458125 118.309638 
L 128.154125 113.709231 
L 129.828125 112.698793 
L 133.176125 110.221277 
L 136.524125 107.855493 
L 146.568125 99.397934 
L 148.242125 97.823983 
L 151.590125 95.050137 
L 154.938125 92.062544 
L 173.352125 75.025979 
L 180.048125 69.094515 
L 185.070125 64.479535 
L 191.766125 59.126157 
L 193.440125 57.717374 
L 196.788125 55.16699 
L 201.810125 51.198107 
L 206.832125 47.544986 
L 211.854125 44.275636 
L 215.202125 42.14303 
L 221.898125 38.436472 
L 228.594125 34.856218 
L 231.942125 33.141389 
L 245.334125 27.146772 
L 253.704125 24.120317 
L 263.748125 20.991846 
L 272.118125 18.762081 
L 283.836125 16.163119 
L 298.902125 13.55444 
L 307.272125 12.437129 
L 317.316125 11.251808 
L 342.426125 9.162922 
L 365.862125 8.031037 
L 384.276125 7.511245 
L 389.298125 7.370367 
L 391.471875 7.343684 
L 391.471875 7.343684 
" style="fill:none;stroke:#ff7f0e;stroke-linecap:square;stroke-width:1.5;"/>
   </g>
   <g id="patch_3">
    <path d="M 46.128125 148.254545 
L 46.128125 0 
" style="fill:none;stroke:#000000;stroke-linecap:square;stroke-linejoin:miter;stroke-width:0.8;"/>
   </g>
   <g id="patch_4">
    <path d="M 380.928125 148.254545 
L 380.928125 0 
" style="fill:none;stroke:#000000;stroke-linecap:square;stroke-linejoin:miter;stroke-width:0.8;"/>
   </g>
   <g id="patch_5">
    <path d="M 46.128125 148.254545 
L 380.928125 148.254545 
" style="fill:none;stroke:#000000;stroke-linecap:square;stroke-linejoin:miter;stroke-width:0.8;"/>
   </g>
   <g id="patch_6">
    <path d="M 46.128125 0 
L 380.928125 0 
" style="fill:none;stroke:#000000;stroke-linecap:square;stroke-linejoin:miter;stroke-width:0.8;"/>
   </g>
   <g id="legend_1">
    <g id="patch_7">
     <path d="M 53.128125 37.35625 
L 154.007812 37.35625 
Q 156.007812 37.35625 156.007812 35.35625 
L 156.007812 7 
Q 156.007812 5 154.007812 5 
L 53.128125 5 
Q 51.128125 5 51.128125 7 
L 51.128125 35.35625 
Q 51.128125 37.35625 53.128125 37.35625 
z
" style="fill:#ffffff;opacity:0.8;stroke:#cccccc;stroke-linejoin:miter;"/>
    </g>
    <g id="line2d_18">
     <path d="M 55.128125 13.098437 
L 75.128125 13.098437 
" style="fill:none;stroke:#1f77b4;stroke-linecap:square;stroke-width:1.5;"/>
    </g>
    <g id="line2d_19"/>
    <g id="text_8">
     <!-- recovered -->
     <g transform="translate(83.128125 16.598437)scale(0.1 -0.1)">
      <defs>
       <path d="M 41.109375 46.296875 
Q 39.59375 47.171875 37.8125 47.578125 
Q 36.03125 48 33.890625 48 
Q 26.265625 48 22.1875 43.046875 
Q 18.109375 38.09375 18.109375 28.8125 
L 18.109375 0 
L 9.078125 0 
L 9.078125 54.6875 
L 18.109375 54.6875 
L 18.109375 46.1875 
Q 20.953125 51.171875 25.484375 53.578125 
Q 30.03125 56 36.53125 56 
Q 37.453125 56 38.578125 55.875 
Q 39.703125 55.765625 41.0625 55.515625 
z
" id="DejaVuSans-114"/>
       <path d="M 56.203125 29.59375 
L 56.203125 25.203125 
L 14.890625 25.203125 
Q 15.484375 15.921875 20.484375 11.0625 
Q 25.484375 6.203125 34.421875 6.203125 
Q 39.59375 6.203125 44.453125 7.46875 
Q 49.3125 8.734375 54.109375 11.28125 
L 54.109375 2.78125 
Q 49.265625 0.734375 44.1875 -0.34375 
Q 39.109375 -1.421875 33.890625 -1.421875 
Q 20.796875 -1.421875 13.15625 6.1875 
Q 5.515625 13.8125 5.515625 26.8125 
Q 5.515625 40.234375 12.765625 48.109375 
Q 20.015625 56 32.328125 56 
Q 43.359375 56 49.78125 48.890625 
Q 56.203125 41.796875 56.203125 29.59375 
z
M 47.21875 32.234375 
Q 47.125 39.59375 43.09375 43.984375 
Q 39.0625 48.390625 32.421875 48.390625 
Q 24.90625 48.390625 20.390625 44.140625 
Q 15.875 39.890625 15.1875 32.171875 
z
" id="DejaVuSans-101"/>
       <path d="M 48.78125 52.59375 
L 48.78125 44.1875 
Q 44.96875 46.296875 41.140625 47.34375 
Q 37.3125 48.390625 33.40625 48.390625 
Q 24.65625 48.390625 19.8125 42.84375 
Q 14.984375 37.3125 14.984375 27.296875 
Q 14.984375 17.28125 19.8125 11.734375 
Q 24.65625 6.203125 33.40625 6.203125 
Q 37.3125 6.203125 41.140625 7.25 
Q 44.96875 8.296875 48.78125 10.40625 
L 48.78125 2.09375 
Q 45.015625 0.34375 40.984375 -0.53125 
Q 36.96875 -1.421875 32.421875 -1.421875 
Q 20.0625 -1.421875 12.78125 6.34375 
Q 5.515625 14.109375 5.515625 27.296875 
Q 5.515625 40.671875 12.859375 48.328125 
Q 20.21875 56 33.015625 56 
Q 37.15625 56 41.109375 55.140625 
Q 45.0625 54.296875 48.78125 52.59375 
z
" id="DejaVuSans-99"/>
       <path d="M 2.984375 54.6875 
L 12.5 54.6875 
L 29.59375 8.796875 
L 46.6875 54.6875 
L 56.203125 54.6875 
L 35.6875 0 
L 23.484375 0 
z
" id="DejaVuSans-118"/>
       <path d="M 45.40625 46.390625 
L 45.40625 75.984375 
L 54.390625 75.984375 
L 54.390625 0 
L 45.40625 0 
L 45.40625 8.203125 
Q 42.578125 3.328125 38.25 0.953125 
Q 33.9375 -1.421875 27.875 -1.421875 
Q 17.96875 -1.421875 11.734375 6.484375 
Q 5.515625 14.40625 5.515625 27.296875 
Q 5.515625 40.1875 11.734375 48.09375 
Q 17.96875 56 27.875 56 
Q 33.9375 56 38.25 53.625 
Q 42.578125 51.265625 45.40625 46.390625 
z
M 14.796875 27.296875 
Q 14.796875 17.390625 18.875 11.75 
Q 22.953125 6.109375 30.078125 6.109375 
Q 37.203125 6.109375 41.296875 11.75 
Q 45.40625 17.390625 45.40625 27.296875 
Q 45.40625 37.203125 41.296875 42.84375 
Q 37.203125 48.484375 30.078125 48.484375 
Q 22.953125 48.484375 18.875 42.84375 
Q 14.796875 37.203125 14.796875 27.296875 
z
" id="DejaVuSans-100"/>
      </defs>
      <use xlink:href="#DejaVuSans-114"/>
      <use x="38.863281" xlink:href="#DejaVuSans-101"/>
      <use x="100.386719" xlink:href="#DejaVuSans-99"/>
      <use x="155.367188" xlink:href="#DejaVuSans-111"/>
      <use x="216.548828" xlink:href="#DejaVuSans-118"/>
      <use x="275.728516" xlink:href="#DejaVuSans-101"/>
      <use x="337.251953" xlink:href="#DejaVuSans-114"/>
      <use x="376.115234" xlink:href="#DejaVuSans-101"/>
      <use x="437.638672" xlink:href="#DejaVuSans-100"/>
     </g>
    </g>
    <g id="line2d_20">
     <path d="M 55.128125 27.776563 
L 75.128125 27.776563 
" style="fill:none;stroke:#ff7f0e;stroke-linecap:square;stroke-width:1.5;"/>
    </g>
    <g id="line2d_21"/>
    <g id="text_9">
     <!-- been infected -->
     <g transform="translate(83.128125 31.276563)scale(0.1 -0.1)">
      <defs>
       <path d="M 48.6875 27.296875 
Q 48.6875 37.203125 44.609375 42.84375 
Q 40.53125 48.484375 33.40625 48.484375 
Q 26.265625 48.484375 22.1875 42.84375 
Q 18.109375 37.203125 18.109375 27.296875 
Q 18.109375 17.390625 22.1875 11.75 
Q 26.265625 6.109375 33.40625 6.109375 
Q 40.53125 6.109375 44.609375 11.75 
Q 48.6875 17.390625 48.6875 27.296875 
z
M 18.109375 46.390625 
Q 20.953125 51.265625 25.265625 53.625 
Q 29.59375 56 35.59375 56 
Q 45.5625 56 51.78125 48.09375 
Q 58.015625 40.1875 58.015625 27.296875 
Q 58.015625 14.40625 51.78125 6.484375 
Q 45.5625 -1.421875 35.59375 -1.421875 
Q 29.59375 -1.421875 25.265625 0.953125 
Q 20.953125 3.328125 18.109375 8.203125 
L 18.109375 0 
L 9.078125 0 
L 9.078125 75.984375 
L 18.109375 75.984375 
z
" id="DejaVuSans-98"/>
       <path d="M 9.421875 54.6875 
L 18.40625 54.6875 
L 18.40625 0 
L 9.421875 0 
z
M 9.421875 75.984375 
L 18.40625 75.984375 
L 18.40625 64.59375 
L 9.421875 64.59375 
z
" id="DejaVuSans-105"/>
       <path d="M 18.3125 70.21875 
L 18.3125 54.6875 
L 36.8125 54.6875 
L 36.8125 47.703125 
L 18.3125 47.703125 
L 18.3125 18.015625 
Q 18.3125 11.328125 20.140625 9.421875 
Q 21.96875 7.515625 27.59375 7.515625 
L 36.8125 7.515625 
L 36.8125 0 
L 27.59375 0 
Q 17.1875 0 13.234375 3.875 
Q 9.28125 7.765625 9.28125 18.015625 
L 9.28125 47.703125 
L 2.6875 47.703125 
L 2.6875 54.6875 
L 9.28125 54.6875 
L 9.28125 70.21875 
z
" id="DejaVuSans-116"/>
      </defs>
      <use xlink:href="#DejaVuSans-98"/>
      <use x="63.476562" xlink:href="#DejaVuSans-101"/>
      <use x="125" xlink:href="#DejaVuSans-101"/>
      <use x="186.523438" xlink:href="#DejaVuSans-110"/>
      <use x="249.902344" xlink:href="#DejaVuSans-32"/>
      <use x="281.689453" xlink:href="#DejaVuSans-105"/>
      <use x="309.472656" xlink:href="#DejaVuSans-110"/>
      <use x="372.851562" xlink:href="#DejaVuSans-102"/>
      <use x="408.056641" xlink:href="#DejaVuSans-101"/>
      <use x="469.580078" xlink:href="#DejaVuSans-99"/>
      <use x="524.560547" xlink:href="#DejaVuSans-116"/>
      <use x="563.769531" xlink:href="#DejaVuSans-101"/>
      <use x="625.292969" xlink:href="#DejaVuSans-100"/>
     </g>
    </g>
   </g>
  </g>
  <g id="axes_2">
   <g id="patch_8">
    <path d="M 46.128125 326.16 
L 380.928125 326.16 
L 380.928125 177.905455 
L 46.128125 177.905455 
z
" style="fill:none;"/>
   </g>
   <g id="matplotlib.axis_3">
    <g id="xtick_10">
     <g id="line2d_22">
      <g>
       <use style="stroke:#000000;stroke-width:0.8;" x="46.128125" xlink:href="#m4bc3140c5d" y="326.16"/>
      </g>
     </g>
     <g id="text_10">
      <!-- 0 -->
      <g transform="translate(42.946875 340.758437)scale(0.1 -0.1)">
       <use xlink:href="#DejaVuSans-48"/>
      </g>
     </g>
    </g>
    <g id="xtick_11">
     <g id="line2d_23">
      <g>
       <use style="stroke:#000000;stroke-width:0.8;" x="87.978125" xlink:href="#m4bc3140c5d" y="326.16"/>
      </g>
     </g>
     <g id="text_11">
      <!-- 25 -->
      <g transform="translate(81.615625 340.758437)scale(0.1 -0.1)">
       <use xlink:href="#DejaVuSans-50"/>
       <use x="63.623047" xlink:href="#DejaVuSans-53"/>
      </g>
     </g>
    </g>
    <g id="xtick_12">
     <g id="line2d_24">
      <g>
       <use style="stroke:#000000;stroke-width:0.8;" x="129.828125" xlink:href="#m4bc3140c5d" y="326.16"/>
      </g>
     </g>
     <g id="text_12">
      <!-- 50 -->
      <g transform="translate(123.465625 340.758437)scale(0.1 -0.1)">
       <use xlink:href="#DejaVuSans-53"/>
       <use x="63.623047" xlink:href="#DejaVuSans-48"/>
      </g>
     </g>
    </g>
    <g id="xtick_13">
     <g id="line2d_25">
      <g>
       <use style="stroke:#000000;stroke-width:0.8;" x="171.678125" xlink:href="#m4bc3140c5d" y="326.16"/>
      </g>
     </g>
     <g id="text_13">
      <!-- 75 -->
      <g transform="translate(165.315625 340.758437)scale(0.1 -0.1)">
       <defs>
        <path d="M 8.203125 72.90625 
L 55.078125 72.90625 
L 55.078125 68.703125 
L 28.609375 0 
L 18.3125 0 
L 43.21875 64.59375 
L 8.203125 64.59375 
z
" id="DejaVuSans-55"/>
       </defs>
       <use xlink:href="#DejaVuSans-55"/>
       <use x="63.623047" xlink:href="#DejaVuSans-53"/>
      </g>
     </g>
    </g>
    <g id="xtick_14">
     <g id="line2d_26">
      <g>
       <use style="stroke:#000000;stroke-width:0.8;" x="213.528125" xlink:href="#m4bc3140c5d" y="326.16"/>
      </g>
     </g>
     <g id="text_14">
      <!-- 100 -->
      <g transform="translate(203.984375 340.758437)scale(0.1 -0.1)">
       <use xlink:href="#DejaVuSans-49"/>
       <use x="63.623047" xlink:href="#DejaVuSans-48"/>
       <use x="127.246094" xlink:href="#DejaVuSans-48"/>
      </g>
     </g>
    </g>
    <g id="xtick_15">
     <g id="line2d_27">
      <g>
       <use style="stroke:#000000;stroke-width:0.8;" x="255.378125" xlink:href="#m4bc3140c5d" y="326.16"/>
      </g>
     </g>
     <g id="text_15">
      <!-- 125 -->
      <g transform="translate(245.834375 340.758437)scale(0.1 -0.1)">
       <use xlink:href="#DejaVuSans-49"/>
       <use x="63.623047" xlink:href="#DejaVuSans-50"/>
       <use x="127.246094" xlink:href="#DejaVuSans-53"/>
      </g>
     </g>
    </g>
    <g id="xtick_16">
     <g id="line2d_28">
      <g>
       <use style="stroke:#000000;stroke-width:0.8;" x="297.228125" xlink:href="#m4bc3140c5d" y="326.16"/>
      </g>
     </g>
     <g id="text_16">
      <!-- 150 -->
      <g transform="translate(287.684375 340.758437)scale(0.1 -0.1)">
       <use xlink:href="#DejaVuSans-49"/>
       <use x="63.623047" xlink:href="#DejaVuSans-53"/>
       <use x="127.246094" xlink:href="#DejaVuSans-48"/>
      </g>
     </g>
    </g>
    <g id="xtick_17">
     <g id="line2d_29">
      <g>
       <use style="stroke:#000000;stroke-width:0.8;" x="339.078125" xlink:href="#m4bc3140c5d" y="326.16"/>
      </g>
     </g>
     <g id="text_17">
      <!-- 175 -->
      <g transform="translate(329.534375 340.758437)scale(0.1 -0.1)">
       <use xlink:href="#DejaVuSans-49"/>
       <use x="63.623047" xlink:href="#DejaVuSans-55"/>
       <use x="127.246094" xlink:href="#DejaVuSans-53"/>
      </g>
     </g>
    </g>
    <g id="xtick_18">
     <g id="line2d_30">
      <g>
       <use style="stroke:#000000;stroke-width:0.8;" x="380.928125" xlink:href="#m4bc3140c5d" y="326.16"/>
      </g>
     </g>
     <g id="text_18">
      <!-- 200 -->
      <g transform="translate(371.384375 340.758437)scale(0.1 -0.1)">
       <use xlink:href="#DejaVuSans-50"/>
       <use x="63.623047" xlink:href="#DejaVuSans-48"/>
       <use x="127.246094" xlink:href="#DejaVuSans-48"/>
      </g>
     </g>
    </g>
    <g id="text_19">
     <!-- day -->
     <g transform="translate(204.330469 354.436562)scale(0.1 -0.1)">
      <defs>
       <path d="M 34.28125 27.484375 
Q 23.390625 27.484375 19.1875 25 
Q 14.984375 22.515625 14.984375 16.5 
Q 14.984375 11.71875 18.140625 8.90625 
Q 21.296875 6.109375 26.703125 6.109375 
Q 34.1875 6.109375 38.703125 11.40625 
Q 43.21875 16.703125 43.21875 25.484375 
L 43.21875 27.484375 
z
M 52.203125 31.203125 
L 52.203125 0 
L 43.21875 0 
L 43.21875 8.296875 
Q 40.140625 3.328125 35.546875 0.953125 
Q 30.953125 -1.421875 24.3125 -1.421875 
Q 15.921875 -1.421875 10.953125 3.296875 
Q 6 8.015625 6 15.921875 
Q 6 25.140625 12.171875 29.828125 
Q 18.359375 34.515625 30.609375 34.515625 
L 43.21875 34.515625 
L 43.21875 35.40625 
Q 43.21875 41.609375 39.140625 45 
Q 35.0625 48.390625 27.6875 48.390625 
Q 23 48.390625 18.546875 47.265625 
Q 14.109375 46.140625 10.015625 43.890625 
L 10.015625 52.203125 
Q 14.9375 54.109375 19.578125 55.046875 
Q 24.21875 56 28.609375 56 
Q 40.484375 56 46.34375 49.84375 
Q 52.203125 43.703125 52.203125 31.203125 
z
" id="DejaVuSans-97"/>
       <path d="M 32.171875 -5.078125 
Q 28.375 -14.84375 24.75 -17.8125 
Q 21.140625 -20.796875 15.09375 -20.796875 
L 7.90625 -20.796875 
L 7.90625 -13.28125 
L 13.1875 -13.28125 
Q 16.890625 -13.28125 18.9375 -11.515625 
Q 21 -9.765625 23.484375 -3.21875 
L 25.09375 0.875 
L 2.984375 54.6875 
L 12.5 54.6875 
L 29.59375 11.921875 
L 46.6875 54.6875 
L 56.203125 54.6875 
z
" id="DejaVuSans-121"/>
      </defs>
      <use xlink:href="#DejaVuSans-100"/>
      <use x="63.476562" xlink:href="#DejaVuSans-97"/>
      <use x="124.755859" xlink:href="#DejaVuSans-121"/>
     </g>
    </g>
   </g>
   <g id="matplotlib.axis_4">
    <g id="ytick_7">
     <g id="line2d_31">
      <g>
       <use style="stroke:#000000;stroke-width:0.8;" x="46.128125" xlink:href="#mcb58fd56cc" y="319.421157"/>
      </g>
     </g>
     <g id="text_20">
      <!-- 0 -->
      <g transform="translate(32.765625 323.220376)scale(0.1 -0.1)">
       <use xlink:href="#DejaVuSans-48"/>
      </g>
     </g>
    </g>
    <g id="ytick_8">
     <g id="line2d_32">
      <g>
       <use style="stroke:#000000;stroke-width:0.8;" x="46.128125" xlink:href="#mcb58fd56cc" y="297.9325"/>
      </g>
     </g>
     <g id="text_21">
      <!-- 500 -->
      <g transform="translate(20.040625 301.731718)scale(0.1 -0.1)">
       <use xlink:href="#DejaVuSans-53"/>
       <use x="63.623047" xlink:href="#DejaVuSans-48"/>
       <use x="127.246094" xlink:href="#DejaVuSans-48"/>
      </g>
     </g>
    </g>
    <g id="ytick_9">
     <g id="line2d_33">
      <g>
       <use style="stroke:#000000;stroke-width:0.8;" x="46.128125" xlink:href="#mcb58fd56cc" y="276.443842"/>
      </g>
     </g>
     <g id="text_22">
      <!-- 1000 -->
      <g transform="translate(13.678125 280.243061)scale(0.1 -0.1)">
       <use xlink:href="#DejaVuSans-49"/>
       <use x="63.623047" xlink:href="#DejaVuSans-48"/>
       <use x="127.246094" xlink:href="#DejaVuSans-48"/>
       <use x="190.869141" xlink:href="#DejaVuSans-48"/>
      </g>
     </g>
    </g>
    <g id="ytick_10">
     <g id="line2d_34">
      <g>
       <use style="stroke:#000000;stroke-width:0.8;" x="46.128125" xlink:href="#mcb58fd56cc" y="254.955185"/>
      </g>
     </g>
     <g id="text_23">
      <!-- 1500 -->
      <g transform="translate(13.678125 258.754403)scale(0.1 -0.1)">
       <use xlink:href="#DejaVuSans-49"/>
       <use x="63.623047" xlink:href="#DejaVuSans-53"/>
       <use x="127.246094" xlink:href="#DejaVuSans-48"/>
       <use x="190.869141" xlink:href="#DejaVuSans-48"/>
      </g>
     </g>
    </g>
    <g id="ytick_11">
     <g id="line2d_35">
      <g>
       <use style="stroke:#000000;stroke-width:0.8;" x="46.128125" xlink:href="#mcb58fd56cc" y="233.466527"/>
      </g>
     </g>
     <g id="text_24">
      <!-- 2000 -->
      <g transform="translate(13.678125 237.265746)scale(0.1 -0.1)">
       <use xlink:href="#DejaVuSans-50"/>
       <use x="63.623047" xlink:href="#DejaVuSans-48"/>
       <use x="127.246094" xlink:href="#DejaVuSans-48"/>
       <use x="190.869141" xlink:href="#DejaVuSans-48"/>
      </g>
     </g>
    </g>
    <g id="ytick_12">
     <g id="line2d_36">
      <g>
       <use style="stroke:#000000;stroke-width:0.8;" x="46.128125" xlink:href="#mcb58fd56cc" y="211.97787"/>
      </g>
     </g>
     <g id="text_25">
      <!-- 2500 -->
      <g transform="translate(13.678125 215.777089)scale(0.1 -0.1)">
       <use xlink:href="#DejaVuSans-50"/>
       <use x="63.623047" xlink:href="#DejaVuSans-53"/>
       <use x="127.246094" xlink:href="#DejaVuSans-48"/>
       <use x="190.869141" xlink:href="#DejaVuSans-48"/>
      </g>
     </g>
    </g>
    <g id="ytick_13">
     <g id="line2d_37">
      <g>
       <use style="stroke:#000000;stroke-width:0.8;" x="46.128125" xlink:href="#mcb58fd56cc" y="190.489212"/>
      </g>
     </g>
     <g id="text_26">
      <!-- 3000 -->
      <g transform="translate(13.678125 194.288431)scale(0.1 -0.1)">
       <use xlink:href="#DejaVuSans-51"/>
       <use x="63.623047" xlink:href="#DejaVuSans-48"/>
       <use x="127.246094" xlink:href="#DejaVuSans-48"/>
       <use x="190.869141" xlink:href="#DejaVuSans-48"/>
      </g>
     </g>
    </g>
    <g id="text_27">
     <!-- num. people -->
     <g transform="translate(7.598437 283.368665)rotate(-90)scale(0.1 -0.1)">
      <defs>
       <path d="M 8.5 21.578125 
L 8.5 54.6875 
L 17.484375 54.6875 
L 17.484375 21.921875 
Q 17.484375 14.15625 20.5 10.265625 
Q 23.53125 6.390625 29.59375 6.390625 
Q 36.859375 6.390625 41.078125 11.03125 
Q 45.3125 15.671875 45.3125 23.6875 
L 45.3125 54.6875 
L 54.296875 54.6875 
L 54.296875 0 
L 45.3125 0 
L 45.3125 8.40625 
Q 42.046875 3.421875 37.71875 1 
Q 33.40625 -1.421875 27.6875 -1.421875 
Q 18.265625 -1.421875 13.375 4.4375 
Q 8.5 10.296875 8.5 21.578125 
z
M 31.109375 56 
z
" id="DejaVuSans-117"/>
       <path d="M 52 44.1875 
Q 55.375 50.25 60.0625 53.125 
Q 64.75 56 71.09375 56 
Q 79.640625 56 84.28125 50.015625 
Q 88.921875 44.046875 88.921875 33.015625 
L 88.921875 0 
L 79.890625 0 
L 79.890625 32.71875 
Q 79.890625 40.578125 77.09375 44.375 
Q 74.3125 48.1875 68.609375 48.1875 
Q 61.625 48.1875 57.5625 43.546875 
Q 53.515625 38.921875 53.515625 30.90625 
L 53.515625 0 
L 44.484375 0 
L 44.484375 32.71875 
Q 44.484375 40.625 41.703125 44.40625 
Q 38.921875 48.1875 33.109375 48.1875 
Q 26.21875 48.1875 22.15625 43.53125 
Q 18.109375 38.875 18.109375 30.90625 
L 18.109375 0 
L 9.078125 0 
L 9.078125 54.6875 
L 18.109375 54.6875 
L 18.109375 46.1875 
Q 21.1875 51.21875 25.484375 53.609375 
Q 29.78125 56 35.6875 56 
Q 41.65625 56 45.828125 52.96875 
Q 50 49.953125 52 44.1875 
z
" id="DejaVuSans-109"/>
       <path d="M 10.6875 12.40625 
L 21 12.40625 
L 21 0 
L 10.6875 0 
z
" id="DejaVuSans-46"/>
       <path d="M 9.421875 75.984375 
L 18.40625 75.984375 
L 18.40625 0 
L 9.421875 0 
z
" id="DejaVuSans-108"/>
      </defs>
      <use xlink:href="#DejaVuSans-110"/>
      <use x="63.378906" xlink:href="#DejaVuSans-117"/>
      <use x="126.757812" xlink:href="#DejaVuSans-109"/>
      <use x="224.169922" xlink:href="#DejaVuSans-46"/>
      <use x="255.957031" xlink:href="#DejaVuSans-32"/>
      <use x="287.744141" xlink:href="#DejaVuSans-112"/>
      <use x="351.220703" xlink:href="#DejaVuSans-101"/>
      <use x="412.744141" xlink:href="#DejaVuSans-111"/>
      <use x="473.925781" xlink:href="#DejaVuSans-112"/>
      <use x="537.402344" xlink:href="#DejaVuSans-108"/>
      <use x="565.185547" xlink:href="#DejaVuSans-101"/>
     </g>
    </g>
   </g>
   <g id="line2d_38">
    <path clip-path="url(#p0f6e60bdfa)" d="M 46.128125 310.352944 
L 49.476125 309.192556 
L 51.150125 308.762783 
L 52.824125 308.075146 
L 54.498125 307.000713 
L 56.172125 306.399031 
L 57.846125 305.668416 
L 59.520125 305.367575 
L 61.194125 304.551006 
L 62.868125 304.16421 
L 64.542125 303.992301 
L 71.238125 300.597093 
L 72.912125 299.092887 
L 74.586125 298.963955 
L 77.934125 295.955543 
L 79.608125 295.095997 
L 81.282125 293.505836 
L 84.630125 291.786744 
L 87.978125 288.735354 
L 89.652125 288.047717 
L 94.674125 284.136781 
L 96.348125 282.202802 
L 98.022125 280.612642 
L 99.696125 278.119957 
L 101.370125 276.443842 
L 104.718125 272.661838 
L 106.392125 270.985723 
L 108.066125 268.664948 
L 109.740125 265.785468 
L 111.414125 263.550648 
L 113.088125 262.476215 
L 114.762125 259.940553 
L 116.436125 258.092529 
L 118.110125 254.439457 
L 119.784125 252.419523 
L 121.458125 249.540043 
L 123.132125 246.144835 
L 124.806125 244.210856 
L 126.480125 241.546262 
L 128.154125 238.666782 
L 129.828125 237.807236 
L 131.502125 234.197142 
L 133.176125 231.962321 
L 134.850125 230.286206 
L 136.524125 226.848021 
L 138.198125 223.796631 
L 139.872125 221.432879 
L 143.220125 217.607898 
L 144.894125 212.966348 
L 146.568125 212.579552 
L 148.242125 208.195866 
L 149.916125 208.109911 
L 151.590125 207.078456 
L 153.264125 205.531273 
L 154.938125 203.425384 
L 156.612125 200.674836 
L 158.286125 198.783834 
L 159.960125 196.205195 
L 161.634125 194.357171 
L 163.308125 193.23976 
L 164.982125 193.454647 
L 166.656125 192.638078 
L 168.330125 190.446235 
L 170.004125 190.231348 
L 171.678125 188.168437 
L 173.352125 188.426301 
L 175.026125 189.328825 
L 176.700125 189.801575 
L 181.722125 186.578277 
L 183.396125 186.062549 
L 185.070125 184.644298 
L 186.744125 185.632776 
L 188.418125 187.437823 
L 190.092125 189.543711 
L 191.766125 189.973485 
L 193.440125 191.907464 
L 195.114125 192.29426 
L 196.788125 194.056329 
L 198.462125 194.314193 
L 200.136125 195.216717 
L 201.810125 195.517558 
L 205.158125 198.311084 
L 210.180125 204.714704 
L 211.854125 207.33632 
L 213.528125 209.313276 
L 215.202125 211.677029 
L 216.876125 213.696962 
L 218.550125 216.189647 
L 220.224125 217.564921 
L 221.898125 218.725308 
L 223.572125 220.186537 
L 226.920125 224.742132 
L 228.594125 226.37527 
L 230.268125 228.867955 
L 231.942125 230.54407 
L 233.616125 231.790412 
L 235.290125 234.841801 
L 236.964125 236.30303 
L 238.638125 238.494873 
L 240.312125 240.213966 
L 241.986125 240.858625 
L 243.660125 242.749627 
L 245.334125 243.910015 
L 247.008125 245.715062 
L 248.682125 248.336678 
L 250.356125 249.368134 
L 252.030125 251.087226 
L 253.704125 252.548455 
L 255.378125 253.708843 
L 257.052125 256.502368 
L 258.726125 258.780166 
L 260.400125 259.51078 
L 262.074125 261.100941 
L 265.422125 262.777056 
L 267.096125 264.582103 
L 268.770125 265.742491 
L 270.444125 267.547538 
L 272.118125 269.782358 
L 273.792125 270.942746 
L 275.466125 272.360997 
L 277.140125 274.123067 
L 280.488125 276.31491 
L 282.162125 277.43232 
L 283.836125 279.452254 
L 285.510125 280.913483 
L 287.184125 282.116848 
L 288.858125 283.062349 
L 292.206125 283.707008 
L 293.880125 285.512056 
L 295.554125 286.758398 
L 298.902125 288.305581 
L 302.250125 290.712311 
L 305.598125 292.517358 
L 307.272125 293.204995 
L 308.946125 294.365382 
L 310.620125 294.967065 
L 312.294125 295.740657 
L 313.968125 295.99852 
L 315.642125 296.557226 
L 317.316125 296.858067 
L 318.990125 297.545704 
L 320.664125 298.663114 
L 322.338125 299.221819 
L 324.012125 300.16732 
L 325.686125 300.897934 
L 327.360125 301.241753 
L 329.034125 301.456639 
L 330.708125 302.230231 
L 332.382125 302.745959 
L 335.730125 303.218709 
L 337.404125 303.820392 
L 339.078125 303.605505 
L 340.752125 304.894825 
L 342.426125 305.367575 
L 344.100125 306.227121 
L 345.774125 306.356053 
L 347.448125 306.871781 
L 350.796125 308.247055 
L 352.470125 308.547896 
L 354.144125 309.020647 
L 355.818125 309.751261 
L 357.492125 310.181034 
L 359.166125 310.395921 
L 360.840125 311.040581 
L 362.514125 311.298445 
L 364.188125 311.900127 
L 369.210125 312.97456 
L 374.232125 313.275401 
L 379.254125 313.318378 
L 380.928125 313.44731 
L 384.276125 314.134947 
L 385.950125 314.306857 
L 387.624125 314.306857 
L 389.298125 314.56472 
L 391.471875 314.727657 
L 391.471875 314.727657 
" style="fill:none;stroke:#1f77b4;stroke-linecap:square;stroke-width:1.5;"/>
   </g>
   <g id="line2d_39">
    <path clip-path="url(#p0f6e60bdfa)" d="M 46.128125 318.002906 
L 47.802125 318.131838 
L 49.476125 317.745042 
L 51.150125 318.174815 
L 54.498125 317.573132 
L 56.172125 317.401223 
L 57.846125 317.401223 
L 59.520125 317.530155 
L 61.194125 316.928473 
L 62.868125 317.487178 
L 64.542125 317.358246 
L 66.216125 317.444201 
L 72.912125 316.32679 
L 74.586125 316.97145 
L 76.260125 316.068926 
L 79.608125 316.068926 
L 81.282125 315.553199 
L 82.956125 315.85404 
L 84.630125 315.768085 
L 86.304125 315.252357 
L 87.978125 315.037471 
L 89.652125 315.467244 
L 91.326125 315.381289 
L 93.000125 314.693652 
L 94.674125 314.607698 
L 96.348125 314.220902 
L 99.696125 313.705174 
L 101.370125 313.791129 
L 103.044125 312.97456 
L 104.718125 313.232424 
L 106.392125 313.017537 
L 108.066125 312.372877 
L 109.740125 311.341422 
L 111.414125 310.997603 
L 113.088125 312.372877 
L 114.762125 311.814172 
L 116.436125 311.728218 
L 118.110125 310.696762 
L 119.784125 310.997603 
L 121.458125 309.536375 
L 123.132125 309.192556 
L 124.806125 310.138057 
L 126.480125 308.891715 
L 128.154125 308.762783 
L 129.828125 310.481876 
L 131.502125 308.075146 
L 133.176125 308.848738 
L 134.850125 309.192556 
L 136.524125 308.719806 
L 138.198125 307.000713 
L 139.872125 307.645373 
L 143.220125 306.785826 
L 144.894125 305.410552 
L 146.568125 307.68835 
L 148.242125 305.496507 
L 149.916125 307.68835 
L 151.590125 306.613917 
L 153.264125 306.527963 
L 154.938125 305.883303 
L 156.612125 305.625439 
L 158.286125 305.754371 
L 159.960125 304.636961 
L 161.634125 305.539484 
L 163.308125 306.012235 
L 164.982125 306.656895 
L 166.656125 305.539484 
L 168.330125 304.722915 
L 170.004125 306.442008 
L 171.678125 304.980779 
L 173.352125 307.000713 
L 175.026125 306.613917 
L 176.700125 307.2156 
L 178.374125 305.238643 
L 180.048125 306.141167 
L 181.722125 305.668416 
L 183.396125 306.270099 
L 185.070125 305.496507 
L 186.744125 307.774305 
L 188.418125 306.957736 
L 190.092125 308.590874 
L 191.766125 307.000713 
L 193.440125 306.957736 
L 195.114125 308.33301 
L 196.788125 307.946214 
L 198.462125 307.344532 
L 200.136125 308.461942 
L 201.810125 307.344532 
L 203.484125 308.547896 
L 205.158125 308.891715 
L 206.832125 308.504919 
L 208.506125 309.493397 
L 210.180125 309.665307 
L 211.854125 310.181034 
L 213.528125 309.837216 
L 215.202125 310.138057 
L 216.876125 310.997603 
L 218.550125 311.298445 
L 220.224125 311.21249 
L 221.898125 311.384399 
L 223.572125 311.298445 
L 225.246125 311.040581 
L 226.920125 312.115013 
L 228.594125 311.556308 
L 230.268125 311.642263 
L 231.942125 312.029059 
L 233.616125 312.673719 
L 235.290125 313.189446 
L 236.964125 312.931582 
L 238.638125 312.458832 
L 240.312125 313.017537 
L 241.986125 311.900127 
L 243.660125 312.845628 
L 247.008125 313.877083 
L 248.682125 313.748151 
L 250.356125 314.177925 
L 252.030125 314.349834 
L 253.704125 314.177925 
L 255.378125 314.693652 
L 257.052125 314.779607 
L 258.726125 315.338312 
L 260.400125 314.349834 
L 262.074125 315.123426 
L 263.748125 314.56472 
L 265.422125 315.338312 
L 267.096125 314.865562 
L 268.770125 315.20938 
L 272.118125 316.240836 
L 275.466125 315.897017 
L 277.140125 315.85404 
L 278.814125 316.369768 
L 280.488125 316.025949 
L 285.510125 316.756564 
L 287.184125 316.627632 
L 290.532125 316.670609 
L 292.206125 316.455722 
L 293.880125 317.315269 
L 295.554125 317.014427 
L 297.228125 317.186337 
L 298.902125 317.014427 
L 300.576125 317.272291 
L 302.250125 317.659087 
L 303.924125 317.487178 
L 305.598125 317.573132 
L 307.272125 317.229314 
L 308.946125 317.530155 
L 310.620125 317.61611 
L 312.294125 318.002906 
L 313.968125 317.401223 
L 315.642125 317.530155 
L 317.316125 317.959928 
L 320.664125 318.217792 
L 322.338125 318.131838 
L 324.012125 318.174815 
L 325.686125 317.873974 
L 329.034125 318.002906 
L 330.708125 318.475656 
L 332.382125 318.174815 
L 334.056125 318.432679 
L 335.730125 318.002906 
L 337.404125 318.475656 
L 339.078125 317.916951 
L 340.752125 318.475656 
L 342.426125 318.389701 
L 344.100125 318.647565 
L 345.774125 318.26077 
L 347.448125 318.647565 
L 349.122125 318.303747 
L 350.796125 318.776497 
L 352.470125 318.561611 
L 355.818125 318.905429 
L 357.492125 318.561611 
L 359.166125 318.690543 
L 360.840125 319.077339 
L 362.514125 318.690543 
L 365.862125 319.077339 
L 369.210125 319.034361 
L 370.884125 318.905429 
L 372.558125 318.905429 
L 374.232125 319.120316 
L 375.906125 318.905429 
L 377.580125 318.862452 
L 379.254125 318.991384 
L 380.928125 318.948407 
L 382.602125 319.120316 
L 384.276125 319.163293 
L 385.950125 318.819475 
L 390.972125 319.249248 
L 391.471875 319.236417 
L 391.471875 319.236417 
" style="fill:none;stroke:#ff7f0e;stroke-linecap:square;stroke-width:1.5;"/>
   </g>
   <g id="patch_9">
    <path d="M 46.128125 326.16 
L 46.128125 177.905455 
" style="fill:none;stroke:#000000;stroke-linecap:square;stroke-linejoin:miter;stroke-width:0.8;"/>
   </g>
   <g id="patch_10">
    <path d="M 380.928125 326.16 
L 380.928125 177.905455 
" style="fill:none;stroke:#000000;stroke-linecap:square;stroke-linejoin:miter;stroke-width:0.8;"/>
   </g>
   <g id="patch_11">
    <path d="M 46.128125 326.16 
L 380.928125 326.16 
" style="fill:none;stroke:#000000;stroke-linecap:square;stroke-linejoin:miter;stroke-width:0.8;"/>
   </g>
   <g id="patch_12">
    <path d="M 46.128125 177.905455 
L 380.928125 177.905455 
" style="fill:none;stroke:#000000;stroke-linecap:square;stroke-linejoin:miter;stroke-width:0.8;"/>
   </g>
   <g id="legend_2">
    <g id="patch_13">
     <path d="M 275.55 215.53983 
L 373.928125 215.53983 
Q 375.928125 215.53983 375.928125 213.53983 
L 375.928125 184.905455 
Q 375.928125 182.905455 373.928125 182.905455 
L 275.55 182.905455 
Q 273.55 182.905455 273.55 184.905455 
L 273.55 213.53983 
Q 273.55 215.53983 275.55 215.53983 
z
" style="fill:#ffffff;opacity:0.8;stroke:#cccccc;stroke-linejoin:miter;"/>
    </g>
    <g id="line2d_40">
     <path d="M 277.55 191.003892 
L 297.55 191.003892 
" style="fill:none;stroke:#1f77b4;stroke-linecap:square;stroke-width:1.5;"/>
    </g>
    <g id="line2d_41"/>
    <g id="text_28">
     <!-- infected -->
     <g transform="translate(305.55 194.503892)scale(0.1 -0.1)">
      <use xlink:href="#DejaVuSans-105"/>
      <use x="27.783203" xlink:href="#DejaVuSans-110"/>
      <use x="91.162109" xlink:href="#DejaVuSans-102"/>
      <use x="126.367188" xlink:href="#DejaVuSans-101"/>
      <use x="187.890625" xlink:href="#DejaVuSans-99"/>
      <use x="242.871094" xlink:href="#DejaVuSans-116"/>
      <use x="282.080078" xlink:href="#DejaVuSans-101"/>
      <use x="343.603516" xlink:href="#DejaVuSans-100"/>
     </g>
    </g>
    <g id="line2d_42">
     <path d="M 277.55 205.682017 
L 297.55 205.682017 
" style="fill:none;stroke:#ff7f0e;stroke-linecap:square;stroke-width:1.5;"/>
    </g>
    <g id="line2d_43"/>
    <g id="text_29">
     <!-- new_infected -->
     <g transform="translate(305.55 209.182017)scale(0.1 -0.1)">
      <defs>
       <path d="M 4.203125 54.6875 
L 13.1875 54.6875 
L 24.421875 12.015625 
L 35.59375 54.6875 
L 46.1875 54.6875 
L 57.421875 12.015625 
L 68.609375 54.6875 
L 77.59375 54.6875 
L 63.28125 0 
L 52.6875 0 
L 40.921875 44.828125 
L 29.109375 0 
L 18.5 0 
z
" id="DejaVuSans-119"/>
       <path d="M 50.984375 -16.609375 
L 50.984375 -23.578125 
L -0.984375 -23.578125 
L -0.984375 -16.609375 
z
" id="DejaVuSans-95"/>
      </defs>
      <use xlink:href="#DejaVuSans-110"/>
      <use x="63.378906" xlink:href="#DejaVuSans-101"/>
      <use x="124.902344" xlink:href="#DejaVuSans-119"/>
      <use x="206.689453" xlink:href="#DejaVuSans-95"/>
      <use x="256.689453" xlink:href="#DejaVuSans-105"/>
      <use x="284.472656" xlink:href="#DejaVuSans-110"/>
      <use x="347.851562" xlink:href="#DejaVuSans-102"/>
      <use x="383.056641" xlink:href="#DejaVuSans-101"/>
      <use x="444.580078" xlink:href="#DejaVuSans-99"/>
      <use x="499.560547" xlink:href="#DejaVuSans-116"/>
      <use x="538.769531" xlink:href="#DejaVuSans-101"/>
      <use x="600.292969" xlink:href="#DejaVuSans-100"/>
     </g>
    </g>
   </g>
  </g>
 </g>
 <defs>
  <clipPath id="p3b091afe29">
   <rect height="148.254545" width="334.8" x="46.128125" y="0"/>
  </clipPath>
  <clipPath id="p0f6e60bdfa">
   <rect height="148.254545" width="334.8" x="46.128125" y="177.905455"/>
  </clipPath>
 </defs>
</svg>
