<?xml version="1.0" encoding="utf-8" standalone="no"?>
<!DOCTYPE svg PUBLIC "-//W3C//DTD SVG 1.1//EN"
  "http://www.w3.org/Graphics/SVG/1.1/DTD/svg11.dtd">
<!-- Created with matplotlib (https://matplotlib.org/) -->
<svg height="250.059879pt" version="1.1" viewBox="0 0 505.001278 250.059879" width="505.001278pt" xmlns="http://www.w3.org/2000/svg" xmlns:xlink="http://www.w3.org/1999/xlink">
 <metadata>
  <rdf:RDF xmlns:cc="http://creativecommons.org/ns#" xmlns:dc="http://purl.org/dc/elements/1.1/" xmlns:rdf="http://www.w3.org/1999/02/22-rdf-syntax-ns#">
   <cc:Work>
    <dc:type rdf:resource="http://purl.org/dc/dcmitype/StillImage"/>
    <dc:date>2020-12-14T15:07:44.649119</dc:date>
    <dc:format>image/svg+xml</dc:format>
    <dc:creator>
     <cc:Agent>
      <dc:title>Matplotlib v3.3.2, https://matplotlib.org/</dc:title>
     </cc:Agent>
    </dc:creator>
   </cc:Work>
  </rdf:RDF>
 </metadata>
 <defs>
  <style type="text/css">*{stroke-linecap:butt;stroke-linejoin:round;}</style>
 </defs>
 <g id="figure_1">
  <g id="patch_1">
   <path d="M 0 250.059879 
L 505.001278 250.059879 
L 505.001278 0 
L 0 0 
z
" style="fill:none;"/>
  </g>
  <g id="axes_1">
   <g id="patch_2">
    <path d="M 39.765625 219.703629 
L 486.165625 219.703629 
L 486.165625 2.263629 
L 39.765625 2.263629 
z
" style="fill:none;"/>
   </g>
   <g id="matplotlib.axis_1">
    <g id="xtick_1">
     <g id="line2d_1">
      <defs>
       <path d="M 0 0 
L 0 3.5 
" id="m04b21917c4" style="stroke:#000000;stroke-width:0.8;"/>
      </defs>
      <g>
       <use style="stroke:#000000;stroke-width:0.8;" x="60.056534" xlink:href="#m04b21917c4" y="219.703629"/>
      </g>
     </g>
     <g id="text_1">
      <!-- 0 -->
      <g transform="translate(56.875284 234.302066)scale(0.1 -0.1)">
       <defs>
        <path d="M 31.78125 66.40625 
Q 24.171875 66.40625 20.328125 58.90625 
Q 16.5 51.421875 16.5 36.375 
Q 16.5 21.390625 20.328125 13.890625 
Q 24.171875 6.390625 31.78125 6.390625 
Q 39.453125 6.390625 43.28125 13.890625 
Q 47.125 21.390625 47.125 36.375 
Q 47.125 51.421875 43.28125 58.90625 
Q 39.453125 66.40625 31.78125 66.40625 
z
M 31.78125 74.21875 
Q 44.046875 74.21875 50.515625 64.515625 
Q 56.984375 54.828125 56.984375 36.375 
Q 56.984375 17.96875 50.515625 8.265625 
Q 44.046875 -1.421875 31.78125 -1.421875 
Q 19.53125 -1.421875 13.0625 8.265625 
Q 6.59375 17.96875 6.59375 36.375 
Q 6.59375 54.828125 13.0625 64.515625 
Q 19.53125 74.21875 31.78125 74.21875 
z
" id="DejaVuSans-48"/>
       </defs>
       <use xlink:href="#DejaVuSans-48"/>
      </g>
     </g>
    </g>
    <g id="xtick_2">
     <g id="line2d_2">
      <g>
       <use style="stroke:#000000;stroke-width:0.8;" x="135.581968" xlink:href="#m04b21917c4" y="219.703629"/>
      </g>
     </g>
     <g id="text_2">
      <!-- 1000 -->
      <g transform="translate(122.856968 234.302066)scale(0.1 -0.1)">
       <defs>
        <path d="M 12.40625 8.296875 
L 28.515625 8.296875 
L 28.515625 63.921875 
L 10.984375 60.40625 
L 10.984375 69.390625 
L 28.421875 72.90625 
L 38.28125 72.90625 
L 38.28125 8.296875 
L 54.390625 8.296875 
L 54.390625 0 
L 12.40625 0 
z
" id="DejaVuSans-49"/>
       </defs>
       <use xlink:href="#DejaVuSans-49"/>
       <use x="63.623047" xlink:href="#DejaVuSans-48"/>
       <use x="127.246094" xlink:href="#DejaVuSans-48"/>
       <use x="190.869141" xlink:href="#DejaVuSans-48"/>
      </g>
     </g>
    </g>
    <g id="xtick_3">
     <g id="line2d_3">
      <g>
       <use style="stroke:#000000;stroke-width:0.8;" x="211.107401" xlink:href="#m04b21917c4" y="219.703629"/>
      </g>
     </g>
     <g id="text_3">
      <!-- 2000 -->
      <g transform="translate(198.382401 234.302066)scale(0.1 -0.1)">
       <defs>
        <path d="M 19.1875 8.296875 
L 53.609375 8.296875 
L 53.609375 0 
L 7.328125 0 
L 7.328125 8.296875 
Q 12.9375 14.109375 22.625 23.890625 
Q 32.328125 33.6875 34.8125 36.53125 
Q 39.546875 41.84375 41.421875 45.53125 
Q 43.3125 49.21875 43.3125 52.78125 
Q 43.3125 58.59375 39.234375 62.25 
Q 35.15625 65.921875 28.609375 65.921875 
Q 23.96875 65.921875 18.8125 64.3125 
Q 13.671875 62.703125 7.8125 59.421875 
L 7.8125 69.390625 
Q 13.765625 71.78125 18.9375 73 
Q 24.125 74.21875 28.421875 74.21875 
Q 39.75 74.21875 46.484375 68.546875 
Q 53.21875 62.890625 53.21875 53.421875 
Q 53.21875 48.921875 51.53125 44.890625 
Q 49.859375 40.875 45.40625 35.40625 
Q 44.1875 33.984375 37.640625 27.21875 
Q 31.109375 20.453125 19.1875 8.296875 
z
" id="DejaVuSans-50"/>
       </defs>
       <use xlink:href="#DejaVuSans-50"/>
       <use x="63.623047" xlink:href="#DejaVuSans-48"/>
       <use x="127.246094" xlink:href="#DejaVuSans-48"/>
       <use x="190.869141" xlink:href="#DejaVuSans-48"/>
      </g>
     </g>
    </g>
    <g id="xtick_4">
     <g id="line2d_4">
      <g>
       <use style="stroke:#000000;stroke-width:0.8;" x="286.632835" xlink:href="#m04b21917c4" y="219.703629"/>
      </g>
     </g>
     <g id="text_4">
      <!-- 3000 -->
      <g transform="translate(273.907835 234.302066)scale(0.1 -0.1)">
       <defs>
        <path d="M 40.578125 39.3125 
Q 47.65625 37.796875 51.625 33 
Q 55.609375 28.21875 55.609375 21.1875 
Q 55.609375 10.40625 48.1875 4.484375 
Q 40.765625 -1.421875 27.09375 -1.421875 
Q 22.515625 -1.421875 17.65625 -0.515625 
Q 12.796875 0.390625 7.625 2.203125 
L 7.625 11.71875 
Q 11.71875 9.328125 16.59375 8.109375 
Q 21.484375 6.890625 26.8125 6.890625 
Q 36.078125 6.890625 40.9375 10.546875 
Q 45.796875 14.203125 45.796875 21.1875 
Q 45.796875 27.640625 41.28125 31.265625 
Q 36.765625 34.90625 28.71875 34.90625 
L 20.21875 34.90625 
L 20.21875 43.015625 
L 29.109375 43.015625 
Q 36.375 43.015625 40.234375 45.921875 
Q 44.09375 48.828125 44.09375 54.296875 
Q 44.09375 59.90625 40.109375 62.90625 
Q 36.140625 65.921875 28.71875 65.921875 
Q 24.65625 65.921875 20.015625 65.03125 
Q 15.375 64.15625 9.8125 62.3125 
L 9.8125 71.09375 
Q 15.4375 72.65625 20.34375 73.4375 
Q 25.25 74.21875 29.59375 74.21875 
Q 40.828125 74.21875 47.359375 69.109375 
Q 53.90625 64.015625 53.90625 55.328125 
Q 53.90625 49.265625 50.4375 45.09375 
Q 46.96875 40.921875 40.578125 39.3125 
z
" id="DejaVuSans-51"/>
       </defs>
       <use xlink:href="#DejaVuSans-51"/>
       <use x="63.623047" xlink:href="#DejaVuSans-48"/>
       <use x="127.246094" xlink:href="#DejaVuSans-48"/>
       <use x="190.869141" xlink:href="#DejaVuSans-48"/>
      </g>
     </g>
    </g>
    <g id="xtick_5">
     <g id="line2d_5">
      <g>
       <use style="stroke:#000000;stroke-width:0.8;" x="362.158268" xlink:href="#m04b21917c4" y="219.703629"/>
      </g>
     </g>
     <g id="text_5">
      <!-- 4000 -->
      <g transform="translate(349.433268 234.302066)scale(0.1 -0.1)">
       <defs>
        <path d="M 37.796875 64.3125 
L 12.890625 25.390625 
L 37.796875 25.390625 
z
M 35.203125 72.90625 
L 47.609375 72.90625 
L 47.609375 25.390625 
L 58.015625 25.390625 
L 58.015625 17.1875 
L 47.609375 17.1875 
L 47.609375 0 
L 37.796875 0 
L 37.796875 17.1875 
L 4.890625 17.1875 
L 4.890625 26.703125 
z
" id="DejaVuSans-52"/>
       </defs>
       <use xlink:href="#DejaVuSans-52"/>
       <use x="63.623047" xlink:href="#DejaVuSans-48"/>
       <use x="127.246094" xlink:href="#DejaVuSans-48"/>
       <use x="190.869141" xlink:href="#DejaVuSans-48"/>
      </g>
     </g>
    </g>
    <g id="xtick_6">
     <g id="line2d_6">
      <g>
       <use style="stroke:#000000;stroke-width:0.8;" x="437.683702" xlink:href="#m04b21917c4" y="219.703629"/>
      </g>
     </g>
     <g id="text_6">
      <!-- 5000 -->
      <g transform="translate(424.958702 234.302066)scale(0.1 -0.1)">
       <defs>
        <path d="M 10.796875 72.90625 
L 49.515625 72.90625 
L 49.515625 64.59375 
L 19.828125 64.59375 
L 19.828125 46.734375 
Q 21.96875 47.46875 24.109375 47.828125 
Q 26.265625 48.1875 28.421875 48.1875 
Q 40.625 48.1875 47.75 41.5 
Q 54.890625 34.8125 54.890625 23.390625 
Q 54.890625 11.625 47.5625 5.09375 
Q 40.234375 -1.421875 26.90625 -1.421875 
Q 22.3125 -1.421875 17.546875 -0.640625 
Q 12.796875 0.140625 7.71875 1.703125 
L 7.71875 11.625 
Q 12.109375 9.234375 16.796875 8.0625 
Q 21.484375 6.890625 26.703125 6.890625 
Q 35.15625 6.890625 40.078125 11.328125 
Q 45.015625 15.765625 45.015625 23.390625 
Q 45.015625 31 40.078125 35.4375 
Q 35.15625 39.890625 26.703125 39.890625 
Q 22.75 39.890625 18.8125 39.015625 
Q 14.890625 38.140625 10.796875 36.28125 
z
" id="DejaVuSans-53"/>
       </defs>
       <use xlink:href="#DejaVuSans-53"/>
       <use x="63.623047" xlink:href="#DejaVuSans-48"/>
       <use x="127.246094" xlink:href="#DejaVuSans-48"/>
       <use x="190.869141" xlink:href="#DejaVuSans-48"/>
      </g>
     </g>
    </g>
    <g id="text_7">
     <!-- confirmed/100k -->
     <g transform="translate(223.626562 247.980191)scale(0.1 -0.1)">
      <defs>
       <path d="M 48.78125 52.59375 
L 48.78125 44.1875 
Q 44.96875 46.296875 41.140625 47.34375 
Q 37.3125 48.390625 33.40625 48.390625 
Q 24.65625 48.390625 19.8125 42.84375 
Q 14.984375 37.3125 14.984375 27.296875 
Q 14.984375 17.28125 19.8125 11.734375 
Q 24.65625 6.203125 33.40625 6.203125 
Q 37.3125 6.203125 41.140625 7.25 
Q 44.96875 8.296875 48.78125 10.40625 
L 48.78125 2.09375 
Q 45.015625 0.34375 40.984375 -0.53125 
Q 36.96875 -1.421875 32.421875 -1.421875 
Q 20.0625 -1.421875 12.78125 6.34375 
Q 5.515625 14.109375 5.515625 27.296875 
Q 5.515625 40.671875 12.859375 48.328125 
Q 20.21875 56 33.015625 56 
Q 37.15625 56 41.109375 55.140625 
Q 45.0625 54.296875 48.78125 52.59375 
z
" id="DejaVuSans-99"/>
       <path d="M 30.609375 48.390625 
Q 23.390625 48.390625 19.1875 42.75 
Q 14.984375 37.109375 14.984375 27.296875 
Q 14.984375 17.484375 19.15625 11.84375 
Q 23.34375 6.203125 30.609375 6.203125 
Q 37.796875 6.203125 41.984375 11.859375 
Q 46.1875 17.53125 46.1875 27.296875 
Q 46.1875 37.015625 41.984375 42.703125 
Q 37.796875 48.390625 30.609375 48.390625 
z
M 30.609375 56 
Q 42.328125 56 49.015625 48.375 
Q 55.71875 40.765625 55.71875 27.296875 
Q 55.71875 13.875 49.015625 6.21875 
Q 42.328125 -1.421875 30.609375 -1.421875 
Q 18.84375 -1.421875 12.171875 6.21875 
Q 5.515625 13.875 5.515625 27.296875 
Q 5.515625 40.765625 12.171875 48.375 
Q 18.84375 56 30.609375 56 
z
" id="DejaVuSans-111"/>
       <path d="M 54.890625 33.015625 
L 54.890625 0 
L 45.90625 0 
L 45.90625 32.71875 
Q 45.90625 40.484375 42.875 44.328125 
Q 39.84375 48.1875 33.796875 48.1875 
Q 26.515625 48.1875 22.3125 43.546875 
Q 18.109375 38.921875 18.109375 30.90625 
L 18.109375 0 
L 9.078125 0 
L 9.078125 54.6875 
L 18.109375 54.6875 
L 18.109375 46.1875 
Q 21.34375 51.125 25.703125 53.5625 
Q 30.078125 56 35.796875 56 
Q 45.21875 56 50.046875 50.171875 
Q 54.890625 44.34375 54.890625 33.015625 
z
" id="DejaVuSans-110"/>
       <path d="M 37.109375 75.984375 
L 37.109375 68.5 
L 28.515625 68.5 
Q 23.6875 68.5 21.796875 66.546875 
Q 19.921875 64.59375 19.921875 59.515625 
L 19.921875 54.6875 
L 34.71875 54.6875 
L 34.71875 47.703125 
L 19.921875 47.703125 
L 19.921875 0 
L 10.890625 0 
L 10.890625 47.703125 
L 2.296875 47.703125 
L 2.296875 54.6875 
L 10.890625 54.6875 
L 10.890625 58.5 
Q 10.890625 67.625 15.140625 71.796875 
Q 19.390625 75.984375 28.609375 75.984375 
z
" id="DejaVuSans-102"/>
       <path d="M 9.421875 54.6875 
L 18.40625 54.6875 
L 18.40625 0 
L 9.421875 0 
z
M 9.421875 75.984375 
L 18.40625 75.984375 
L 18.40625 64.59375 
L 9.421875 64.59375 
z
" id="DejaVuSans-105"/>
       <path d="M 41.109375 46.296875 
Q 39.59375 47.171875 37.8125 47.578125 
Q 36.03125 48 33.890625 48 
Q 26.265625 48 22.1875 43.046875 
Q 18.109375 38.09375 18.109375 28.8125 
L 18.109375 0 
L 9.078125 0 
L 9.078125 54.6875 
L 18.109375 54.6875 
L 18.109375 46.1875 
Q 20.953125 51.171875 25.484375 53.578125 
Q 30.03125 56 36.53125 56 
Q 37.453125 56 38.578125 55.875 
Q 39.703125 55.765625 41.0625 55.515625 
z
" id="DejaVuSans-114"/>
       <path d="M 52 44.1875 
Q 55.375 50.25 60.0625 53.125 
Q 64.75 56 71.09375 56 
Q 79.640625 56 84.28125 50.015625 
Q 88.921875 44.046875 88.921875 33.015625 
L 88.921875 0 
L 79.890625 0 
L 79.890625 32.71875 
Q 79.890625 40.578125 77.09375 44.375 
Q 74.3125 48.1875 68.609375 48.1875 
Q 61.625 48.1875 57.5625 43.546875 
Q 53.515625 38.921875 53.515625 30.90625 
L 53.515625 0 
L 44.484375 0 
L 44.484375 32.71875 
Q 44.484375 40.625 41.703125 44.40625 
Q 38.921875 48.1875 33.109375 48.1875 
Q 26.21875 48.1875 22.15625 43.53125 
Q 18.109375 38.875 18.109375 30.90625 
L 18.109375 0 
L 9.078125 0 
L 9.078125 54.6875 
L 18.109375 54.6875 
L 18.109375 46.1875 
Q 21.1875 51.21875 25.484375 53.609375 
Q 29.78125 56 35.6875 56 
Q 41.65625 56 45.828125 52.96875 
Q 50 49.953125 52 44.1875 
z
" id="DejaVuSans-109"/>
       <path d="M 56.203125 29.59375 
L 56.203125 25.203125 
L 14.890625 25.203125 
Q 15.484375 15.921875 20.484375 11.0625 
Q 25.484375 6.203125 34.421875 6.203125 
Q 39.59375 6.203125 44.453125 7.46875 
Q 49.3125 8.734375 54.109375 11.28125 
L 54.109375 2.78125 
Q 49.265625 0.734375 44.1875 -0.34375 
Q 39.109375 -1.421875 33.890625 -1.421875 
Q 20.796875 -1.421875 13.15625 6.1875 
Q 5.515625 13.8125 5.515625 26.8125 
Q 5.515625 40.234375 12.765625 48.109375 
Q 20.015625 56 32.328125 56 
Q 43.359375 56 49.78125 48.890625 
Q 56.203125 41.796875 56.203125 29.59375 
z
M 47.21875 32.234375 
Q 47.125 39.59375 43.09375 43.984375 
Q 39.0625 48.390625 32.421875 48.390625 
Q 24.90625 48.390625 20.390625 44.140625 
Q 15.875 39.890625 15.1875 32.171875 
z
" id="DejaVuSans-101"/>
       <path d="M 45.40625 46.390625 
L 45.40625 75.984375 
L 54.390625 75.984375 
L 54.390625 0 
L 45.40625 0 
L 45.40625 8.203125 
Q 42.578125 3.328125 38.25 0.953125 
Q 33.9375 -1.421875 27.875 -1.421875 
Q 17.96875 -1.421875 11.734375 6.484375 
Q 5.515625 14.40625 5.515625 27.296875 
Q 5.515625 40.1875 11.734375 48.09375 
Q 17.96875 56 27.875 56 
Q 33.9375 56 38.25 53.625 
Q 42.578125 51.265625 45.40625 46.390625 
z
M 14.796875 27.296875 
Q 14.796875 17.390625 18.875 11.75 
Q 22.953125 6.109375 30.078125 6.109375 
Q 37.203125 6.109375 41.296875 11.75 
Q 45.40625 17.390625 45.40625 27.296875 
Q 45.40625 37.203125 41.296875 42.84375 
Q 37.203125 48.484375 30.078125 48.484375 
Q 22.953125 48.484375 18.875 42.84375 
Q 14.796875 37.203125 14.796875 27.296875 
z
" id="DejaVuSans-100"/>
       <path d="M 25.390625 72.90625 
L 33.6875 72.90625 
L 8.296875 -9.28125 
L 0 -9.28125 
z
" id="DejaVuSans-47"/>
       <path d="M 9.078125 75.984375 
L 18.109375 75.984375 
L 18.109375 31.109375 
L 44.921875 54.6875 
L 56.390625 54.6875 
L 27.390625 29.109375 
L 57.625 0 
L 45.90625 0 
L 18.109375 26.703125 
L 18.109375 0 
L 9.078125 0 
z
" id="DejaVuSans-107"/>
      </defs>
      <use xlink:href="#DejaVuSans-99"/>
      <use x="54.980469" xlink:href="#DejaVuSans-111"/>
      <use x="116.162109" xlink:href="#DejaVuSans-110"/>
      <use x="179.541016" xlink:href="#DejaVuSans-102"/>
      <use x="214.746094" xlink:href="#DejaVuSans-105"/>
      <use x="242.529297" xlink:href="#DejaVuSans-114"/>
      <use x="281.892578" xlink:href="#DejaVuSans-109"/>
      <use x="379.304688" xlink:href="#DejaVuSans-101"/>
      <use x="440.828125" xlink:href="#DejaVuSans-100"/>
      <use x="504.304688" xlink:href="#DejaVuSans-47"/>
      <use x="537.996094" xlink:href="#DejaVuSans-49"/>
      <use x="601.619141" xlink:href="#DejaVuSans-48"/>
      <use x="665.242188" xlink:href="#DejaVuSans-48"/>
      <use x="728.865234" xlink:href="#DejaVuSans-107"/>
     </g>
    </g>
   </g>
   <g id="matplotlib.axis_2">
    <g id="ytick_1">
     <g id="line2d_7">
      <defs>
       <path d="M 0 0 
L -3.5 0 
" id="m544f628ec3" style="stroke:#000000;stroke-width:0.8;"/>
      </defs>
      <g>
       <use style="stroke:#000000;stroke-width:0.8;" x="39.765625" xlink:href="#m544f628ec3" y="209.819992"/>
      </g>
     </g>
     <g id="text_8">
      <!-- 0 -->
      <g transform="translate(26.403125 213.619211)scale(0.1 -0.1)">
       <use xlink:href="#DejaVuSans-48"/>
      </g>
     </g>
    </g>
    <g id="ytick_2">
     <g id="line2d_8">
      <g>
       <use style="stroke:#000000;stroke-width:0.8;" x="39.765625" xlink:href="#m544f628ec3" y="184.067396"/>
      </g>
     </g>
     <g id="text_9">
      <!-- 20 -->
      <g transform="translate(20.040625 187.866614)scale(0.1 -0.1)">
       <use xlink:href="#DejaVuSans-50"/>
       <use x="63.623047" xlink:href="#DejaVuSans-48"/>
      </g>
     </g>
    </g>
    <g id="ytick_3">
     <g id="line2d_9">
      <g>
       <use style="stroke:#000000;stroke-width:0.8;" x="39.765625" xlink:href="#m544f628ec3" y="158.314799"/>
      </g>
     </g>
     <g id="text_10">
      <!-- 40 -->
      <g transform="translate(20.040625 162.114018)scale(0.1 -0.1)">
       <use xlink:href="#DejaVuSans-52"/>
       <use x="63.623047" xlink:href="#DejaVuSans-48"/>
      </g>
     </g>
    </g>
    <g id="ytick_4">
     <g id="line2d_10">
      <g>
       <use style="stroke:#000000;stroke-width:0.8;" x="39.765625" xlink:href="#m544f628ec3" y="132.562202"/>
      </g>
     </g>
     <g id="text_11">
      <!-- 60 -->
      <g transform="translate(20.040625 136.361421)scale(0.1 -0.1)">
       <defs>
        <path d="M 33.015625 40.375 
Q 26.375 40.375 22.484375 35.828125 
Q 18.609375 31.296875 18.609375 23.390625 
Q 18.609375 15.53125 22.484375 10.953125 
Q 26.375 6.390625 33.015625 6.390625 
Q 39.65625 6.390625 43.53125 10.953125 
Q 47.40625 15.53125 47.40625 23.390625 
Q 47.40625 31.296875 43.53125 35.828125 
Q 39.65625 40.375 33.015625 40.375 
z
M 52.59375 71.296875 
L 52.59375 62.3125 
Q 48.875 64.0625 45.09375 64.984375 
Q 41.3125 65.921875 37.59375 65.921875 
Q 27.828125 65.921875 22.671875 59.328125 
Q 17.53125 52.734375 16.796875 39.40625 
Q 19.671875 43.65625 24.015625 45.921875 
Q 28.375 48.1875 33.59375 48.1875 
Q 44.578125 48.1875 50.953125 41.515625 
Q 57.328125 34.859375 57.328125 23.390625 
Q 57.328125 12.15625 50.6875 5.359375 
Q 44.046875 -1.421875 33.015625 -1.421875 
Q 20.359375 -1.421875 13.671875 8.265625 
Q 6.984375 17.96875 6.984375 36.375 
Q 6.984375 53.65625 15.1875 63.9375 
Q 23.390625 74.21875 37.203125 74.21875 
Q 40.921875 74.21875 44.703125 73.484375 
Q 48.484375 72.75 52.59375 71.296875 
z
" id="DejaVuSans-54"/>
       </defs>
       <use xlink:href="#DejaVuSans-54"/>
       <use x="63.623047" xlink:href="#DejaVuSans-48"/>
      </g>
     </g>
    </g>
    <g id="ytick_5">
     <g id="line2d_11">
      <g>
       <use style="stroke:#000000;stroke-width:0.8;" x="39.765625" xlink:href="#m544f628ec3" y="106.809606"/>
      </g>
     </g>
     <g id="text_12">
      <!-- 80 -->
      <g transform="translate(20.040625 110.608824)scale(0.1 -0.1)">
       <defs>
        <path d="M 31.78125 34.625 
Q 24.75 34.625 20.71875 30.859375 
Q 16.703125 27.09375 16.703125 20.515625 
Q 16.703125 13.921875 20.71875 10.15625 
Q 24.75 6.390625 31.78125 6.390625 
Q 38.8125 6.390625 42.859375 10.171875 
Q 46.921875 13.96875 46.921875 20.515625 
Q 46.921875 27.09375 42.890625 30.859375 
Q 38.875 34.625 31.78125 34.625 
z
M 21.921875 38.8125 
Q 15.578125 40.375 12.03125 44.71875 
Q 8.5 49.078125 8.5 55.328125 
Q 8.5 64.0625 14.71875 69.140625 
Q 20.953125 74.21875 31.78125 74.21875 
Q 42.671875 74.21875 48.875 69.140625 
Q 55.078125 64.0625 55.078125 55.328125 
Q 55.078125 49.078125 51.53125 44.71875 
Q 48 40.375 41.703125 38.8125 
Q 48.828125 37.15625 52.796875 32.3125 
Q 56.78125 27.484375 56.78125 20.515625 
Q 56.78125 9.90625 50.3125 4.234375 
Q 43.84375 -1.421875 31.78125 -1.421875 
Q 19.734375 -1.421875 13.25 4.234375 
Q 6.78125 9.90625 6.78125 20.515625 
Q 6.78125 27.484375 10.78125 32.3125 
Q 14.796875 37.15625 21.921875 38.8125 
z
M 18.3125 54.390625 
Q 18.3125 48.734375 21.84375 45.5625 
Q 25.390625 42.390625 31.78125 42.390625 
Q 38.140625 42.390625 41.71875 45.5625 
Q 45.3125 48.734375 45.3125 54.390625 
Q 45.3125 60.0625 41.71875 63.234375 
Q 38.140625 66.40625 31.78125 66.40625 
Q 25.390625 66.40625 21.84375 63.234375 
Q 18.3125 60.0625 18.3125 54.390625 
z
" id="DejaVuSans-56"/>
       </defs>
       <use xlink:href="#DejaVuSans-56"/>
       <use x="63.623047" xlink:href="#DejaVuSans-48"/>
      </g>
     </g>
    </g>
    <g id="ytick_6">
     <g id="line2d_12">
      <g>
       <use style="stroke:#000000;stroke-width:0.8;" x="39.765625" xlink:href="#m544f628ec3" y="81.057009"/>
      </g>
     </g>
     <g id="text_13">
      <!-- 100 -->
      <g transform="translate(13.678125 84.856228)scale(0.1 -0.1)">
       <use xlink:href="#DejaVuSans-49"/>
       <use x="63.623047" xlink:href="#DejaVuSans-48"/>
       <use x="127.246094" xlink:href="#DejaVuSans-48"/>
      </g>
     </g>
    </g>
    <g id="ytick_7">
     <g id="line2d_13">
      <g>
       <use style="stroke:#000000;stroke-width:0.8;" x="39.765625" xlink:href="#m544f628ec3" y="55.304412"/>
      </g>
     </g>
     <g id="text_14">
      <!-- 120 -->
      <g transform="translate(13.678125 59.103631)scale(0.1 -0.1)">
       <use xlink:href="#DejaVuSans-49"/>
       <use x="63.623047" xlink:href="#DejaVuSans-50"/>
       <use x="127.246094" xlink:href="#DejaVuSans-48"/>
      </g>
     </g>
    </g>
    <g id="ytick_8">
     <g id="line2d_14">
      <g>
       <use style="stroke:#000000;stroke-width:0.8;" x="39.765625" xlink:href="#m544f628ec3" y="29.551815"/>
      </g>
     </g>
     <g id="text_15">
      <!-- 140 -->
      <g transform="translate(13.678125 33.351034)scale(0.1 -0.1)">
       <use xlink:href="#DejaVuSans-49"/>
       <use x="63.623047" xlink:href="#DejaVuSans-52"/>
       <use x="127.246094" xlink:href="#DejaVuSans-48"/>
      </g>
     </g>
    </g>
    <g id="ytick_9">
     <g id="line2d_15">
      <g>
       <use style="stroke:#000000;stroke-width:0.8;" x="39.765625" xlink:href="#m544f628ec3" y="3.799219"/>
      </g>
     </g>
     <g id="text_16">
      <!-- 160 -->
      <g transform="translate(13.678125 7.598437)scale(0.1 -0.1)">
       <use xlink:href="#DejaVuSans-49"/>
       <use x="63.623047" xlink:href="#DejaVuSans-54"/>
       <use x="127.246094" xlink:href="#DejaVuSans-48"/>
      </g>
     </g>
    </g>
    <g id="text_17">
     <!-- deaths/100k -->
     <g transform="translate(7.598438 142.155504)rotate(-90)scale(0.1 -0.1)">
      <defs>
       <path d="M 34.28125 27.484375 
Q 23.390625 27.484375 19.1875 25 
Q 14.984375 22.515625 14.984375 16.5 
Q 14.984375 11.71875 18.140625 8.90625 
Q 21.296875 6.109375 26.703125 6.109375 
Q 34.1875 6.109375 38.703125 11.40625 
Q 43.21875 16.703125 43.21875 25.484375 
L 43.21875 27.484375 
z
M 52.203125 31.203125 
L 52.203125 0 
L 43.21875 0 
L 43.21875 8.296875 
Q 40.140625 3.328125 35.546875 0.953125 
Q 30.953125 -1.421875 24.3125 -1.421875 
Q 15.921875 -1.421875 10.953125 3.296875 
Q 6 8.015625 6 15.921875 
Q 6 25.140625 12.171875 29.828125 
Q 18.359375 34.515625 30.609375 34.515625 
L 43.21875 34.515625 
L 43.21875 35.40625 
Q 43.21875 41.609375 39.140625 45 
Q 35.0625 48.390625 27.6875 48.390625 
Q 23 48.390625 18.546875 47.265625 
Q 14.109375 46.140625 10.015625 43.890625 
L 10.015625 52.203125 
Q 14.9375 54.109375 19.578125 55.046875 
Q 24.21875 56 28.609375 56 
Q 40.484375 56 46.34375 49.84375 
Q 52.203125 43.703125 52.203125 31.203125 
z
" id="DejaVuSans-97"/>
       <path d="M 18.3125 70.21875 
L 18.3125 54.6875 
L 36.8125 54.6875 
L 36.8125 47.703125 
L 18.3125 47.703125 
L 18.3125 18.015625 
Q 18.3125 11.328125 20.140625 9.421875 
Q 21.96875 7.515625 27.59375 7.515625 
L 36.8125 7.515625 
L 36.8125 0 
L 27.59375 0 
Q 17.1875 0 13.234375 3.875 
Q 9.28125 7.765625 9.28125 18.015625 
L 9.28125 47.703125 
L 2.6875 47.703125 
L 2.6875 54.6875 
L 9.28125 54.6875 
L 9.28125 70.21875 
z
" id="DejaVuSans-116"/>
       <path d="M 54.890625 33.015625 
L 54.890625 0 
L 45.90625 0 
L 45.90625 32.71875 
Q 45.90625 40.484375 42.875 44.328125 
Q 39.84375 48.1875 33.796875 48.1875 
Q 26.515625 48.1875 22.3125 43.546875 
Q 18.109375 38.921875 18.109375 30.90625 
L 18.109375 0 
L 9.078125 0 
L 9.078125 75.984375 
L 18.109375 75.984375 
L 18.109375 46.1875 
Q 21.34375 51.125 25.703125 53.5625 
Q 30.078125 56 35.796875 56 
Q 45.21875 56 50.046875 50.171875 
Q 54.890625 44.34375 54.890625 33.015625 
z
" id="DejaVuSans-104"/>
       <path d="M 44.28125 53.078125 
L 44.28125 44.578125 
Q 40.484375 46.53125 36.375 47.5 
Q 32.28125 48.484375 27.875 48.484375 
Q 21.1875 48.484375 17.84375 46.4375 
Q 14.5 44.390625 14.5 40.28125 
Q 14.5 37.15625 16.890625 35.375 
Q 19.28125 33.59375 26.515625 31.984375 
L 29.59375 31.296875 
Q 39.15625 29.25 43.1875 25.515625 
Q 47.21875 21.78125 47.21875 15.09375 
Q 47.21875 7.46875 41.1875 3.015625 
Q 35.15625 -1.421875 24.609375 -1.421875 
Q 20.21875 -1.421875 15.453125 -0.5625 
Q 10.6875 0.296875 5.421875 2 
L 5.421875 11.28125 
Q 10.40625 8.6875 15.234375 7.390625 
Q 20.0625 6.109375 24.8125 6.109375 
Q 31.15625 6.109375 34.5625 8.28125 
Q 37.984375 10.453125 37.984375 14.40625 
Q 37.984375 18.0625 35.515625 20.015625 
Q 33.0625 21.96875 24.703125 23.78125 
L 21.578125 24.515625 
Q 13.234375 26.265625 9.515625 29.90625 
Q 5.8125 33.546875 5.8125 39.890625 
Q 5.8125 47.609375 11.28125 51.796875 
Q 16.75 56 26.8125 56 
Q 31.78125 56 36.171875 55.265625 
Q 40.578125 54.546875 44.28125 53.078125 
z
" id="DejaVuSans-115"/>
      </defs>
      <use xlink:href="#DejaVuSans-100"/>
      <use x="63.476562" xlink:href="#DejaVuSans-101"/>
      <use x="125" xlink:href="#DejaVuSans-97"/>
      <use x="186.279297" xlink:href="#DejaVuSans-116"/>
      <use x="225.488281" xlink:href="#DejaVuSans-104"/>
      <use x="288.867188" xlink:href="#DejaVuSans-115"/>
      <use x="340.966797" xlink:href="#DejaVuSans-47"/>
      <use x="374.658203" xlink:href="#DejaVuSans-49"/>
      <use x="438.28125" xlink:href="#DejaVuSans-48"/>
      <use x="501.904297" xlink:href="#DejaVuSans-48"/>
      <use x="565.527344" xlink:href="#DejaVuSans-107"/>
     </g>
    </g>
   </g>
   <g id="line2d_16">
    <path clip-path="url(#pa85ec0fc72)" d="M 60.056534 209.819992 
L 62.059052 209.734211 
L 63.808319 209.519759 
L 65.85025 209.119448 
L 66.992389 208.847808 
L 69.038513 207.732655 
L 69.720274 207.418125 
L 71.633903 205.00196 
L 72.195748 203.958291 
L 73.208747 201.127519 
L 73.365561 200.98455 
L 73.471221 200.89877 
L 73.969335 200.598536 
L 74.110215 200.255412 
L 74.230132 200.212522 
L 74.42552 200.126741 
L 74.95466 199.740726 
L 77.223845 199.640648 
L 78.437263 199.511977 
L 79.654036 199.411899 
L 81.233073 199.354712 
L 82.837267 199.340415 
L 84.602468 199.297524 
L 84.845655 199.154556 
L 93.015054 198.797135 
L 94.857403 198.582683 
L 96.988223 198.439714 
L 102.696404 197.953622 
L 105.69431 197.639092 
L 107.266639 197.596201 
L 112.999139 197.110109 
L 114.401236 197.052922 
L 116.619267 196.752688 
L 122.459105 196.180815 
L 127.822632 195.823394 
L 155.66752 193.249965 
L 159.174441 192.778169 
L 171.180322 191.69161 
L 176.600872 190.662238 
L 188.486836 189.647163 
L 204.610121 187.459748 
L 220.415586 186.072955 
L 226.338442 184.857725 
L 231.08897 183.671088 
L 234.994215 182.841871 
L 240.012249 182.012655 
L 245.958585 180.4543 
L 251.824418 179.567897 
L 262.959858 176.536969 
L 267.342252 175.679159 
L 269.979571 174.664084 
L 273.650014 172.977058 
L 278.515427 171.690343 
L 283.149394 170.174879 
L 287.303695 168.559337 
L 291.219002 166.672155 
L 294.612716 165.42833 
L 296.917121 164.298881 
L 299.460519 162.283028 
L 302.79134 160.553111 
L 306.119645 159.237802 
L 316.403092 154.10524 
L 318.396385 152.604073 
L 320.855087 151.832044 
L 323.1075 150.302283 
L 325.533498 148.500882 
L 328.25132 146.699481 
L 328.25132 146.699481 
" style="fill:none;stroke:#1f77b4;stroke-linecap:square;stroke-width:1.5;"/>
   </g>
   <g id="line2d_17">
    <path clip-path="url(#pa85ec0fc72)" d="M 60.056534 209.819992 
L 60.866553 209.70889 
L 61.527341 209.408915 
L 61.89097 209.075609 
L 62.495715 208.842295 
L 63.273803 207.842376 
L 64.119663 207.375748 
L 64.80326 206.609144 
L 66.008839 205.898091 
L 67.117973 205.031495 
L 67.810692 204.120458 
L 68.38155 201.987299 
L 69.15638 200.620745 
L 70.058284 198.587577 
L 72.067366 195.565602 
L 72.888463 193.743529 
L 73.620283 191.688141 
L 74.51958 187.21073 
L 76.337073 181.788951 
L 77.434476 176.27829 
L 78.314875 172.645254 
L 79.376437 169.823262 
L 79.990305 166.456871 
L 80.335687 163.63488 
L 81.934872 160.490692 
L 82.74033 155.857738 
L 83.606392 152.458016 
L 84.287382 149.236057 
L 85.143017 146.68071 
L 86.112043 145.069731 
L 86.746113 143.180996 
L 87.945827 137.714777 
L 88.920718 135.614948 
L 90.480803 129.748761 
L 90.90243 128.371096 
L 91.244554 126.482362 
L 91.674653 125.449113 
L 92.008956 124.238101 
L 92.325014 123.549268 
L 92.813762 121.782746 
L 92.971465 120.760607 
L 93.148718 117.172012 
L 93.565132 116.327636 
L 93.950266 115.149955 
L 94.331489 114.483343 
L 95.102409 112.483506 
L 95.434106 110.905857 
L 96.262372 108.939351 
L 96.538678 108.161637 
L 96.882757 107.472805 
L 97.077604 107.19505 
L 98.789527 102.950952 
L 99.877156 101.706609 
L 100.04333 101.695499 
L 100.197775 101.373303 
L 100.765375 101.139989 
L 101.027996 101.073328 
L 101.931203 100.884454 
L 107.889373 100.162291 
L 108.683752 100.062299 
L 109.353012 99.828985 
L 109.707517 99.651222 
L 111.234368 99.340136 
L 111.470922 99.173483 
L 112.772296 98.884618 
L 113.784332 98.762406 
L 114.164252 100.062299 
L 115.765392 99.862316 
L 118.146575 99.695663 
L 119.0765 99.640112 
L 129.711016 99.173483 
L 136.376243 98.706855 
L 137.247518 98.540202 
L 143.223935 98.229116 
L 147.569235 97.695826 
L 157.142189 97.040324 
L 168.154671 96.373712 
L 185.149434 95.084929 
L 210.252209 93.796145 
L 216.559671 93.285076 
L 225.17924 92.729566 
L 236.092016 92.185166 
L 259.080791 90.529745 
L 269.261097 89.718701 
L 277.528767 88.729893 
L 286.372508 87.185574 
L 300.088746 85.719028 
L 315.677217 84.18582 
L 328.747003 82.585951 
L 347.452386 79.419543 
L 351.581985 78.075208 
L 354.961518 75.097674 
L 365.174407 72.820082 
L 372.426132 70.720254 
L 378.097569 68.631536 
L 382.088364 66.420606 
L 386.403036 64.776296 
L 387.962469 62.987553 
L 390.760066 59.154533 
L 399.17827 55.488166 
L 402.188309 53.099472 
L 406.272943 50.910762 
L 409.309049 49.599759 
L 410.568065 47.433269 
L 412.349716 44.955694 
L 418.644145 40.989351 
L 420.870232 39.25616 
L 424.19307 36.300846 
L 424.92489 34.778748 
L 426.163704 32.745581 
L 428.225571 31.201263 
L 429.897091 29.623614 
L 435.805735 25.979468 
L 436.291877 24.890668 
L 437.508535 23.324129 
L 439.489595 21.935354 
L 442.86978 19.368897 
L 444.500897 18.124554 
L 445.683016 17.391281 
L 446.242796 16.658007 
L 447.518104 15.313673 
L 451.314051 13.258285 
L 451.314051 13.258285 
L 453.113949 12.147265 
L 453.113949 12.147265 
" style="fill:none;stroke:#ff7f0e;stroke-linecap:square;stroke-width:1.5;"/>
   </g>
   <g id="line2d_18">
    <path clip-path="url(#pa85ec0fc72)" d="M 60.056534 209.819992 
L 61.663806 209.711778 
L 62.043232 209.627611 
L 62.530562 209.351063 
L 63.210426 209.110586 
L 63.594789 208.761895 
L 64.168865 208.268918 
L 64.329663 208.100585 
L 64.440388 207.824037 
L 64.675237 207.73987 
L 64.814172 207.58356 
L 65.680223 206.669749 
L 65.946103 206.29701 
L 66.803691 205.8882 
L 67.477913 205.779985 
L 68.024484 205.623676 
L 69.347539 205.587604 
L 69.999193 205.503437 
L 71.406173 205.32308 
L 72.05148 205.178794 
L 72.418917 205.154746 
L 73.099486 205.130699 
L 74.898587 204.938317 
L 76.396544 204.794031 
L 79.62872 204.637721 
L 80.308584 204.565578 
L 95.858005 203.543553 
L 97.546381 203.435338 
L 99.172695 203.146766 
L 104.694827 202.713909 
L 107.903024 202.172836 
L 120.402226 200.705929 
L 127.309475 199.852237 
L 131.115726 199.371284 
L 137.192893 198.938426 
L 140.45892 198.421401 
L 142.648731 197.952472 
L 145.689078 197.182947 
L 165.146307 195.030681 
L 172.976027 194.393418 
L 179.122309 193.563774 
L 182.689479 192.722106 
L 188.385809 191.627937 
L 196.837563 190.353411 
L 236.93191 184.846497 
L 242.080258 183.355542 
L 249.325324 181.383633 
L 260.371704 179.195296 
L 269.52589 177.656246 
L 278.73297 175.40779 
L 296.388277 170.73052 
L 301.002043 168.590278 
L 307.527046 165.884916 
L 316.052851 162.770744 
L 327.147189 160.125501 
L 336.476983 157.756807 
L 344.624067 155.905137 
L 350.070737 153.536442 
L 352.61529 151.408224 
L 354.274751 149.364173 
L 363.230761 145.817143 
L 369.525145 142.847257 
L 380.262625 138.566773 
L 383.223983 136.979628 
L 384.554795 135.176053 
L 388.368099 132.675096 
L 395.252075 128.779375 
L 399.815768 127.168182 
L 406.159521 124.510916 
L 407.226569 123.296509 
L 410.312051 121.324601 
L 414.470224 119.653288 
L 416.361008 118.306619 
L 420.807629 116.286616 
L 423.955879 114.026135 
L 425.835378 112.980062 
L 426.59282 111.97006 
L 429.1141 110.082319 
L 435.986087 107.437076 
L 439.245062 105.922074 
L 442.590078 104.755762 
L 443.840492 103.829927 
L 448.700391 101.172661 
L 452.831059 99.970278 
L 457.348911 98.888133 
L 461.490157 97.505392 
L 465.874716 96.194795 
L 465.874716 96.194795 
" style="fill:none;stroke:#2ca02c;stroke-linecap:square;stroke-width:1.5;"/>
   </g>
   <g id="line2d_19">
    <path clip-path="url(#pa85ec0fc72)" d="M 60.056534 209.819992 
L 61.434773 209.731071 
L 61.875496 209.530997 
L 61.947212 209.286463 
L 62.304484 209.064159 
L 62.724345 208.664012 
L 62.926452 208.375016 
L 63.785732 207.819256 
L 66.160163 205.662908 
L 67.100286 204.973765 
L 68.294672 203.484329 
L 69.855459 201.728127 
L 70.090164 201.594745 
L 71.23761 200.438764 
L 71.802205 199.971926 
L 72.197291 199.594009 
L 72.473722 199.060479 
L 73.511638 198.126803 
L 73.764598 197.97119 
L 73.866303 198.104572 
L 74.304419 197.659964 
L 74.552163 197.504351 
L 74.699505 197.348739 
L 75.025484 197.259817 
L 75.271924 197.059743 
L 75.749157 196.637366 
L 77.952775 196.148297 
L 78.887682 196.103836 
L 78.887682 196.103836 
L 80.245058 196.014915 
L 82.332627 195.925993 
L 83.18278 195.881532 
L 85.991414 195.792611 
L 87.951199 195.703689 
L 89.922719 195.636998 
L 93.428948 195.436924 
L 99.248323 195.170159 
L 100.09978 195.081238 
L 114.054283 194.08087 
L 117.47315 193.903027 
L 153.487296 192.280208 
L 160.090325 191.679987 
L 164.996959 191.213148 
L 168.979117 190.879692 
L 173.162078 190.546236 
L 180.863003 189.946016 
L 183.666421 189.790403 
L 187.001837 189.723712 
L 195.09524 189.212413 
L 199.726748 189.034569 
L 199.726748 189.034569 
" style="fill:none;stroke:#d62728;stroke-linecap:square;stroke-width:1.5;"/>
   </g>
   <g id="line2d_20">
    <path clip-path="url(#pa85ec0fc72)" d="M 60.056534 209.819992 
L 61.256061 209.750274 
L 62.683225 209.169289 
L 63.022636 209.192528 
L 63.44656 208.890416 
L 64.016335 208.681262 
L 64.233067 208.448868 
L 65.328998 207.542531 
L 65.528011 206.543236 
L 65.684767 206.357321 
L 66.047351 205.706618 
L 66.294072 205.404506 
L 66.51762 205.195351 
L 67.111931 204.707324 
L 67.433622 204.103099 
L 68.213314 203.522114 
L 68.308731 203.220002 
L 68.753101 202.848171 
L 69.247906 202.546059 
L 70.202075 202.174228 
L 70.594647 202.081271 
L 70.785481 202.058031 
L 71.815983 201.988313 
L 72.218097 201.941834 
L 73.254052 201.848877 
L 73.540303 201.802398 
L 74.020113 201.802398 
L 77.0939 201.779159 
L 77.700479 201.686201 
L 79.487501 201.570004 
L 80.295818 201.616483 
L 81.01826 201.593243 
L 82.262769 201.500286 
L 83.391414 201.430568 
L 89.552618 201.105216 
L 89.957459 200.896061 
L 91.609534 200.803104 
L 93.189365 200.686907 
L 93.628282 200.686907 
L 94.014039 200.54747 
L 94.763743 200.54747 
L 95.336245 200.338316 
L 96.530319 200.338316 
L 97.157344 200.17564 
L 97.720304 200.17564 
L 98.061078 199.966485 
L 98.553157 199.966485 
L 99.221075 199.75733 
L 100.366077 199.548176 
L 101.04899 199.292542 
L 101.562878 199.292542 
L 101.562878 199.292542 
" style="fill:none;stroke:#9467bd;stroke-linecap:square;stroke-width:1.5;"/>
   </g>
   <g id="line2d_21">
    <path clip-path="url(#pa85ec0fc72)" d="M 60.056534 209.819992 
L 60.32046 209.725304 
L 60.32046 209.725304 
L 61.314375 209.340634 
L 61.709049 208.711353 
L 62.976146 207.194371 
L 63.87067 205.884519 
L 64.404191 205.255238 
L 65.211241 203.854644 
L 66.088062 202.870282 
L 66.650509 201.134334 
L 66.895343 199.193229 
L 67.994551 194.906621 
L 69.100933 189.446275 
L 69.549988 188.379061 
L 70.045904 185.733713 
L 70.908609 182.534045 
L 74.014508 181.427379 
L 75.012357 178.825429 
L 75.384468 175.992678 
L 76.827439 174.507258 
L 77.056421 173.008031 
L 77.054454 171.741577 
L 77.621645 170.970264 
L 78.213251 168.857537 
L 77.958003 167.784405 
L 78.667513 164.79384 
L 79.449455 163.207815 
L 79.158801 162.365485 
L 79.603344 159.520898 
L 80.011786 158.980387 
L 80.418609 156.494825 
L 80.600615 154.204557 
L 80.803332 154.255846 
L 80.870557 153.638401 
L 80.888723 153.508205 
L 81.325166 153.277403 
L 81.572314 153.048573 
L 81.513073 152.677712 
L 81.761841 152.310795 
L 81.887961 152.046458 
L 82.04023 151.872863 
L 82.191573 151.519755 
L 82.324404 151.326434 
L 82.273262 151.271199 
L 82.672217 151.046315 
L 83.572873 150.503831 
L 83.734746 150.515667 
L 85.79848 150.239494 
L 85.789802 150.241466 
L 86.770064 150.152696 
L 86.758956 150.121134 
L 108.868424 148.896107 
L 110.037634 148.803391 
L 111.543202 148.4996 
L 111.543202 148.4996 
L 119.26994 148.010379 
L 121.097749 147.714478 
L 121.097749 147.714478 
L 124.022568 147.584282 
L 125.39461 147.26471 
L 128.302883 147.05758 
L 129.708249 146.789297 
L 129.708249 146.789297 
L 141.299339 145.992339 
L 141.299339 145.992339 
L 146.26961 145.795072 
L 148.736117 145.286124 
L 154.785926 144.966552 
L 157.651735 144.615417 
L 157.651272 144.615417 
L 166.353296 143.984163 
L 168.721569 143.467324 
L 171.765102 143.189178 
L 176.575583 142.869605 
L 181.413949 142.283723 
L 181.413949 142.283723 
L 195.751323 141.277662 
L 199.599708 140.247929 
L 203.631834 139.804079 
L 209.141295 139.340502 
L 214.835771 138.265398 
L 218.925172 137.829438 
L 224.281207 137.373752 
L 230.270733 136.553122 
L 234.434648 135.718683 
L 239.150019 134.128712 
L 245.784607 133.418552 
L 252.753816 131.787155 
L 252.753816 131.187464 
L 267.264981 130.654844 
L 269.529465 129.577767 
L 272.011824 127.190838 
L 276.140564 126.543803 
L 279.964419 125.705419 
L 282.697397 123.866892 
L 289.557265 122.574794 
L 290.606951 121.58057 
L 295.871347 119.183778 
L 299.110654 118.355257 
L 301.555524 117.508982 
L 304.19883 115.266059 
L 307.763504 114.346795 
L 309.298692 111.379902 
L 312.628714 109.983253 
L 314.055948 108.097382 
L 316.64117 107.286616 
L 317.997592 104.958867 
L 321.079308 103.708196 
L 322.364456 102.475278 
L 325.126592 101.709883 
L 325.504488 100.987886 
L 327.091166 99.348599 
L 330.291249 98.198533 
L 331.826438 96.963643 
L 331.826438 96.963643 
" style="fill:none;stroke:#8c564b;stroke-linecap:square;stroke-width:1.5;"/>
   </g>
   <g id="line2d_22">
    <path clip-path="url(#pa85ec0fc72)" d="M 60.056534 209.819992 
L 61.845694 209.717024 
L 64.642203 209.294391 
L 65.653969 209.000854 
L 68.273888 207.860514 
L 69.08193 207.385629 
L 69.761609 206.721712 
L 70.709734 205.813436 
L 71.069405 205.567541 
L 71.316127 205.615183 
L 74.36747 200.405277 
L 74.750668 199.641464 
L 76.194039 197.213248 
L 76.336375 197.050343 
L 76.773569 196.490931 
L 77.672116 196.003751 
L 80.339359 195.627224 
L 82.233085 195.516571 
L 83.039145 195.472002 
L 112.080903 193.349619 
L 119.009391 192.545848 
L 122.178281 192.287658 
L 124.57131 191.714415 
L 132.436564 190.497233 
L 133.750851 190.097653 
L 144.102973 188.059796 
L 146.881633 187.025499 
L 149.82814 186.444571 
L 153.68356 185.213558 
L 154.931591 184.952294 
L 155.219779 184.760189 
L 156.501704 184.163893 
L 162.958833 182.007698 
L 164.398418 181.270012 
L 167.736957 180.636832 
L 168.228778 179.952936 
L 176.078979 177.447878 
L 180.496801 176.163075 
L 180.496801 176.163075 
" style="fill:none;stroke:#e377c2;stroke-linecap:square;stroke-width:1.5;"/>
   </g>
   <g id="line2d_23">
    <path clip-path="url(#pa85ec0fc72)" d="M 60.056534 209.819992 
L 60.415211 209.74587 
L 60.560131 209.60998 
L 61.081843 209.202309 
L 61.225313 209.041711 
L 62.46293 207.460442 
L 62.989714 207.38632 
L 63.157096 207.312198 
L 63.984589 207.213368 
L 65.183077 207.003356 
L 66.334466 206.830404 
L 66.780819 206.756282 
L 67.682221 206.472148 
L 68.809699 206.200367 
L 70.909589 205.730928 
L 71.028423 205.644452 
L 72.311689 205.261489 
L 73.188455 205.026769 
L 74.434042 204.767342 
L 74.940537 204.631451 
L 76.054246 204.433793 
L 76.470167 204.186719 
L 77.772997 203.766695 
L 79.235964 203.297255 
L 80.50184 203.037828 
L 82.878527 202.642511 
L 85.78707 202.222486 
L 90.54769 201.888937 
L 94.034464 201.505973 
L 96.146672 201.147717 
L 97.919767 200.987119 
L 99.77112 200.567094 
L 101.139888 200.134716 
L 102.218817 199.628215 
L 105.938912 198.590507 
L 110.543019 197.503384 
L 112.597259 197.033945 
L 113.825456 196.156834 
L 117.173106 194.649687 
L 121.83663 193.1796 
L 123.685084 192.290136 
L 125.358185 190.95594 
L 127.448655 188.645804 
L 128.992777 187.398083 
L 130.551391 186.323314 
L 133.449065 183.85258 
L 134.714941 182.357786 
L 136.33587 180.097065 
L 137.929265 178.725808 
L 139.512515 177.626331 
L 142.070352 175.180305 
L 143.072474 173.969645 
L 143.726787 172.721924 
L 145.591907 170.362374 
L 147.916423 168.188128 
L 148.927239 166.928054 
L 149.792411 166.088004 
L 149.792411 166.088004 
" style="fill:none;stroke:#7f7f7f;stroke-linecap:square;stroke-width:1.5;"/>
   </g>
   <g id="line2d_24">
    <path clip-path="url(#pa85ec0fc72)" d="M 60.056534 209.819992 
L 60.187096 209.726689 
L 60.324694 209.673373 
L 60.543601 209.473438 
L 61.490371 207.527401 
L 61.842185 206.634357 
L 62.519231 204.714978 
L 62.771755 203.848592 
L 62.959389 203.395405 
L 63.129823 202.702297 
L 63.455055 201.875897 
L 63.727907 201.795923 
L 63.899904 201.715949 
L 64.94831 201.609317 
L 66.226566 201.502685 
L 68.585283 201.409382 
L 70.339661 201.262763 
L 71.361484 201.102814 
L 72.65225 200.902879 
L 77.35561 200.249757 
L 85.307384 198.45034 
L 86.673985 197.850534 
L 88.667596 197.384018 
L 89.502568 197.104109 
L 90.419629 196.917503 
L 93.693843 195.358007 
L 95.094062 195.038111 
L 97.401961 194.185054 
L 99.287683 193.038758 
L 103.914425 191.292657 
L 106.37634 190.826141 
L 108.187008 190.199677 
L 109.812388 189.359949 
L 111.603511 188.786801 
L 113.318799 188.040376 
L 115.887822 187.17399 
L 118.943129 186.49421 
L 124.774638 184.641477 
L 142.101859 178.403496 
L 145.75525 177.323845 
L 149.790946 176.590749 
L 159.182029 172.712005 
L 163.166906 171.392432 
L 166.947732 169.966227 
L 170.261036 168.540022 
L 175.338882 167.300423 
L 179.406632 166.087483 
L 182.76059 164.76791 
L 189.759339 162.262055 
L 205.228202 154.98441 
L 210.200503 153.451573 
L 215.198605 151.652156 
L 220.09898 149.626145 
L 225.430132 147.546818 
L 229.804351 145.534136 
L 236.126836 141.282179 
L 241.314135 138.856298 
L 246.170729 136.337114 
L 250.490221 133.764613 
L 255.725992 131.605312 
L 258.751591 130.059146 
L 260.486424 128.246399 
L 263.004629 126.113756 
L 267.238121 123.834494 
L 272.082988 121.555232 
L 276.028776 119.395931 
L 276.028776 119.395931 
" style="fill:none;stroke:#bcbd22;stroke-linecap:square;stroke-width:1.5;"/>
   </g>
   <g id="line2d_25">
    <path clip-path="url(#pa85ec0fc72)" d="M 60.056534 209.819992 
L 61.442295 209.715684 
L 62.44873 209.585299 
L 62.838763 209.324529 
L 63.300683 209.246298 
L 64.056274 208.62045 
L 64.507488 208.411834 
L 67.695044 205.699824 
L 68.260972 205.282592 
L 68.788663 204.343819 
L 70.111713 202.961737 
L 72.428962 202.335889 
L 73.712243 201.475347 
L 74.824217 201.110269 
L 76.341518 200.301882 
L 77.614093 199.232724 
L 79.247639 198.241797 
L 82.629446 194.930016 
L 83.383508 193.913013 
L 83.996853 191.905083 
L 84.590313 190.783771 
L 85.555451 189.766767 
L 86.987098 189.114842 
L 87.869641 183.377899 
L 88.446277 182.100125 
L 90.108884 181.083121 
L 90.459148 179.596731 
L 91.034254 178.788344 
L 91.921385 176.832568 
L 93.680353 174.902868 
L 94.295227 173.233939 
L 94.533835 172.555937 
L 95.229775 171.799704 
L 95.44238 171.56501 
L 95.606041 171.017393 
L 95.849237 170.7827 
L 96.50082 170.548007 
L 96.838848 169.843927 
L 97.363479 168.540077 
L 97.88964 167.705612 
L 98.18637 166.76684 
L 98.389799 166.792917 
L 98.464746 166.558223 
L 98.611582 165.932375 
L 98.746181 165.358681 
L 98.91443 164.784986 
L 99.073502 164.419908 
L 99.195865 164.341677 
L 99.466593 164.106984 
L 99.547659 164.080907 
L 99.659315 163.820137 
L 100.393493 163.715829 
L 100.543387 163.611521 
L 102.508843 163.507213 
L 103.57646 163.481136 
L 106.81602 163.376828 
L 107.449249 163.298596 
L 108.694292 163.194288 
L 116.033012 162.724902 
L 116.745777 162.855287 
L 117.671147 162.620594 
L 119.667193 162.594517 
L 122.313292 162.333747 
L 132.597902 161.812207 
L 134.511353 161.60359 
L 138.052232 161.525359 
L 139.984037 161.186358 
L 143.37961 161.029896 
L 145.875815 160.743049 
L 148.872179 160.664818 
L 156.490804 159.699968 
L 157.156153 159.491352 
L 158.017283 159.413121 
L 159.254678 159.100197 
L 160.484426 159.021966 
L 160.83622 158.630811 
L 162.68696 158.396118 
L 163.916708 158.213578 
L 164.609588 158.083193 
L 165.683324 157.509499 
L 166.318082 157.405191 
L 167.342872 157.092267 
L 168.546618 156.935805 
L 170.551841 156.309956 
L 171.015291 156.283879 
L 171.403793 155.866647 
L 172.463763 155.423338 
L 173.162761 155.084337 
L 174.618881 155.006106 
L 175.082331 154.61495 
L 175.928165 154.458488 
L 175.928165 154.458488 
" style="fill:none;stroke:#17becf;stroke-linecap:square;stroke-width:1.5;"/>
   </g>
   <g id="line2d_26">
    <path clip-path="url(#pa85ec0fc72)" d="M 60.056534 209.819992 
L 60.310859 209.70925 
L 61.202248 208.833961 
L 61.324289 208.476179 
L 62.26252 207.123846 
L 62.699345 206.751156 
L 66.749189 199.544395 
L 68.041927 196.878064 
L 69.348405 193.841172 
L 70.123248 192.324856 
L 72.765184 185.135133 
L 73.271461 183.352609 
L 76.613542 174.631662 
L 76.993156 173.345349 
L 79.07735 168.359821 
L 79.5885 167.441938 
L 81.595996 161.380933 
L 82.412686 159.432297 
L 83.035383 157.328195 
L 83.786867 155.409374 
L 84.966183 152.368223 
L 85.721789 150.259862 
L 85.967245 149.686984 
L 86.378088 148.306966 
L 86.664891 147.389084 
L 87.186034 145.502207 
L 87.924402 143.016897 
L 88.272912 141.656046 
L 90.130887 135.733468 
L 90.365601 135.41402 
L 91.499072 134.802808 
L 91.635978 134.783641 
L 91.814106 134.430118 
L 92.851519 134.306598 
L 95.230261 134.053169 
L 97.847714 133.667701 
L 100.37273 133.220473 
L 110.339013 132.142866 
L 114.325401 131.650915 
L 118.232344 131.090815 
L 120.623577 130.897016 
L 140.96024 128.209389 
L 144.927017 127.57688 
L 148.662577 127.133912 
L 151.442294 126.637701 
L 163.095668 124.224799 
L 172.790388 122.369868 
L 176.864341 121.664951 
L 180.020799 120.906793 
L 184.404039 119.671592 
L 188.521338 118.344815 
L 193.265206 116.990353 
L 203.027379 114.660508 
L 207.27159 113.497715 
L 210.688244 112.424367 
L 218.991419 109.263956 
L 228.161998 106.384659 
L 236.044211 103.714068 
L 238.90812 102.372384 
L 241.809503 100.555786 
L 258.067841 92.893279 
L 262.530152 89.790368 
L 265.117001 88.333682 
L 268.017385 86.218932 
L 273.658762 83.075558 
L 276.018017 81.874431 
L 279.580072 79.399769 
L 281.173353 78.33707 
L 283.296645 76.448064 
L 285.635789 74.827394 
L 288.121833 73.445247 
L 288.121833 73.445247 
" style="fill:none;stroke:#1f77b4;stroke-linecap:square;stroke-width:1.5;"/>
   </g>
   <g id="line2d_27">
    <path clip-path="url(#pa85ec0fc72)" d="M 60.056534 209.819992 
L 60.479233 209.729816 
L 61.656971 208.797997 
L 63.331898 206.558624 
L 65.235585 203.327314 
L 65.608036 202.012246 
L 66.534535 199.757844 
L 67.924725 196.549078 
L 68.344338 195.790096 
L 68.686817 194.031662 
L 69.648578 191.814834 
L 71.759427 188.606068 
L 72.142015 187.689278 
L 72.465541 186.269004 
L 72.933198 184.908848 
L 74.449889 182.135934 
L 74.780466 181.63245 
L 75.413853 179.355504 
L 76.989166 175.507991 
L 77.159304 174.418363 
L 77.791368 172.344313 
L 78.84525 168.940166 
L 78.916214 168.819931 
L 79.309822 167.414687 
L 79.919408 166.152222 
L 80.22971 165.701342 
L 80.572188 165.017506 
L 81.744197 164.175863 
L 82.73593 163.694924 
L 83.082816 163.687409 
L 83.299234 163.679894 
L 83.419565 163.537116 
L 83.582209 163.642321 
L 84.506063 163.612262 
L 86.147492 163.552145 
L 86.248869 163.67238 
L 87.31377 163.476998 
L 88.730406 163.296646 
L 91.996514 162.966 
L 101.391093 162.635355 
L 104.396705 162.507605 
L 106.742044 162.267136 
L 107.937854 161.981578 
L 116.440754 161.515668 
L 118.18929 161.35786 
L 121.971981 161.320287 
L 126.166792 160.839348 
L 140.055465 160.253203 
L 149.953403 159.531794 
L 164.177942 158.960679 
L 183.935912 157.074496 
L 192.991539 156.676218 
L 214.845372 154.248979 
L 222.324803 153.737981 
L 229.102087 152.092267 
L 232.172053 151.438491 
L 235.364111 150.551759 
L 238.30449 150.003188 
L 242.863818 149.37947 
L 244.920893 148.643032 
L 249.787438 147.41814 
L 252.47217 147.012348 
L 255.078886 146.3736 
L 259.593696 145.719824 
L 263.5214 144.457358 
L 266.009549 143.908787 
L 271.300115 143.164835 
L 273.674985 143.007026 
L 275.953768 142.601234 
L 277.684232 141.924913 
L 286.314956 139.738143 
L 290.790097 139.36241 
L 294.742043 138.400531 
L 299.802087 137.506285 
L 302.67635 137.213213 
L 308.779256 136.897597 
L 314.365579 135.868086 
L 326.106818 134.530474 
L 326.106818 134.530474 
" style="fill:none;stroke:#ff7f0e;stroke-linecap:square;stroke-width:1.5;"/>
   </g>
   <g id="line2d_28">
    <path clip-path="url(#pa85ec0fc72)" d="M 60.056534 209.819992 
L 62.094696 209.748738 
L 62.215899 209.677483 
L 65.649987 209.273706 
L 66.024741 209.226203 
L 66.522092 208.893681 
L 67.788455 208.347395 
L 68.227294 208.014873 
L 68.535178 207.706103 
L 68.535178 207.421084 
L 69.255431 206.637283 
L 69.446291 206.257258 
L 69.66362 206.209754 
L 69.720739 205.99599 
L 69.917172 205.900984 
L 70.074596 205.497207 
L 70.367155 205.212189 
L 70.642997 204.950921 
L 71.196073 204.689654 
L 71.38554 204.499642 
L 71.573614 204.285878 
L 71.735218 204.238375 
L 72.02917 204.143368 
L 72.165698 204.048362 
L 72.491692 203.858349 
L 72.968146 203.763343 
L 73.483607 203.739592 
L 73.780346 203.71584 
L 73.994889 203.620834 
L 77.467985 203.525828 
L 80.403328 203.288312 
L 85.609489 203.193306 
L 88.803956 203.122051 
L 96.990041 203.050796 
L 98.947401 202.837032 
L 102.00952 202.742026 
L 106.285064 202.433256 
L 108.465326 202.314498 
L 109.085273 202.029479 
L 110.418507 201.934473 
L 111.032881 201.88697 
L 111.559488 201.483193 
L 115.120351 201.245677 
L 115.814134 200.746894 
L 116.900782 200.628137 
L 116.900782 200.628137 
" style="fill:none;stroke:#2ca02c;stroke-linecap:square;stroke-width:1.5;"/>
   </g>
   <g id="line2d_29">
    <path clip-path="url(#pa85ec0fc72)" d="M 60.056534 209.819992 
L 60.466623 209.714523 
L 60.731634 209.578434 
L 61.244894 209.204188 
L 63.179796 207.149239 
L 64.461549 206.336105 
L 64.878822 206.165994 
L 65.12727 205.951653 
L 66.305852 205.281413 
L 67.850021 204.359408 
L 69.414546 203.930726 
L 69.792706 203.845671 
L 70.391775 203.672157 
L 70.92978 203.546274 
L 74.929295 202.324872 
L 75.33679 202.154761 
L 76.581624 201.760101 
L 80.427281 200.773454 
L 81.472759 200.320957 
L 83.272561 199.888873 
L 87.052164 199.269667 
L 88.354471 198.875008 
L 89.970681 198.565404 
L 91.508265 198.116309 
L 95.131816 197.663812 
L 96.624899 197.524321 
L 100.48253 196.717992 
L 102.898562 196.146416 
L 110.681673 194.720881 
L 112.725333 194.56778 
L 115.978107 194.118685 
L 119.733764 193.322563 
L 123.756028 192.301893 
L 128.07224 191.614641 
L 132.441933 190.662016 
L 135.868521 190.144877 
L 138.977215 189.831871 
L 142.841431 189.059564 
L 147.768885 187.790531 
L 153.185452 186.541911 
L 158.590645 185.027918 
L 164.153288 183.840538 
L 169.0993 183.037611 
L 173.432275 182.449025 
L 178.511791 181.326288 
L 183.54481 179.863327 
L 188.071355 178.927713 
L 192.870893 177.502177 
L 197.973757 175.644558 
L 202.334869 174.613681 
L 206.488841 174.127162 
L 210.310751 172.912564 
L 214.278537 170.861018 
L 223.54575 166.563997 
L 228.377616 164.611115 
L 231.940901 163.488378 
L 234.93465 162.95763 
L 241.466739 161.120424 
L 244.531132 158.827318 
L 251.314862 154.88413 
L 254.343534 152.846192 
L 257.779501 151.47169 
L 259.598061 149.944087 
L 265.322545 145.762742 
L 270.443768 142.248235 
L 273.157141 141.15952 
L 277.243263 137.828734 
L 279.987168 136.229684 
L 284.897061 132.670948 
L 284.897061 132.670948 
" style="fill:none;stroke:#d62728;stroke-linecap:square;stroke-width:1.5;"/>
   </g>
   <g id="line2d_30">
    <path clip-path="url(#pa85ec0fc72)" d="M 60.056534 209.819992 
L 60.812032 209.744225 
L 64.472495 208.317272 
L 64.802841 208.052087 
L 65.569449 207.799529 
L 68.744764 205.892716 
L 70.393528 204.655182 
L 71.516405 204.326856 
L 72.979998 202.659974 
L 74.011772 201.877044 
L 74.145836 201.523463 
L 76.338262 199.907092 
L 76.94192 199.035767 
L 77.73223 198.417 
L 77.852962 198.101302 
L 78.833628 197.103698 
L 78.714378 196.901652 
L 78.961767 196.396536 
L 79.093608 196.257629 
L 80.557942 195.373676 
L 81.03198 194.86856 
L 81.395656 194.62863 
L 83.234035 192.696562 
L 84.276919 191.837865 
L 84.692443 191.547423 
L 86.654516 190.827633 
L 87.064115 190.726609 
L 87.710733 190.60033 
L 89.23358 190.448796 
L 90.56459 190.107842 
L 91.269722 189.918424 
L 91.744501 189.779517 
L 92.954779 189.249145 
L 93.282902 189.22389 
L 93.592509 189.059727 
L 94.291715 188.933448 
L 95.435332 188.61775 
L 96.274527 188.390448 
L 98.061058 187.885332 
L 98.969878 187.72117 
L 99.272078 187.582263 
L 101.236373 187.140286 
L 101.469689 187.026635 
L 104.095416 186.673054 
L 106.072303 186.433124 
L 107.901793 186.193194 
L 119.22612 184.336893 
L 119.542392 184.160102 
L 122.220707 183.781265 
L 123.439874 183.718126 
L 126.067082 183.175126 
L 129.157959 182.947824 
L 138.769822 181.672406 
L 141.191861 181.47036 
L 143.339105 181.078895 
L 147.965421 180.573779 
L 152.221394 179.879244 
L 158.283157 179.159454 
L 164.699707 178.16185 
L 166.967683 177.694618 
L 170.746656 176.545479 
L 176.299568 175.800433 
L 183.676786 174.562899 
L 192.879051 173.249598 
L 198.740088 171.67111 
L 202.395366 170.635623 
L 206.720223 169.650646 
L 211.647997 168.779321 
L 216.537997 168.084787 
L 221.008028 167.125067 
L 227.208298 165.975928 
L 230.505826 164.953068 
L 234.869199 163.955464 
L 249.649559 161.530908 
L 253.195957 160.609071 
L 256.191285 159.674606 
L 259.094028 158.601235 
L 267.740038 156.669167 
L 271.772325 155.823097 
L 278.409599 153.916285 
L 280.825712 152.931309 
L 282.604096 152.0221 
L 287.904435 150.165799 
L 291.559713 149.168195 
L 296.06826 148.246358 
L 298.908044 147.147731 
L 302.983291 145.139895 
L 306.017875 144.255942 
L 308.339181 143.169943 
L 315.370499 140.859037 
L 315.370499 140.859037 
" style="fill:none;stroke:#9467bd;stroke-linecap:square;stroke-width:1.5;"/>
   </g>
   <g id="line2d_31">
    <path clip-path="url(#pa85ec0fc72)" d="M 60.056534 209.819992 
L 60.330336 209.723602 
L 61.088906 209.282961 
L 61.316186 209.024084 
L 61.662517 208.878122 
L 61.95425 208.352107 
L 62.958191 207.534167 
L 63.353468 206.947563 
L 64.155328 206.033233 
L 64.703579 204.939893 
L 65.732235 203.455483 
L 66.499366 202.086742 
L 69.391007 197.798753 
L 70.672466 195.669906 
L 80.437108 176.917875 
L 82.134358 173.07879 
L 83.999282 169.082726 
L 85.623195 165.532811 
L 86.391134 164.086958 
L 87.92798 160.093648 
L 88.752294 158.298036 
L 89.932147 156.626354 
L 91.027032 154.621437 
L 92.149379 153.492294 
L 92.397497 152.393446 
L 94.467409 148.799467 
L 92.846565 147.788746 
L 93.596734 145.954578 
L 94.450125 142.966481 
L 94.5338 142.228407 
L 94.821494 142.228407 
L 95.272985 139.791111 
L 95.646778 138.609642 
L 96.296957 136.505581 
L 96.795454 136.166838 
L 97.322382 133.911307 
L 97.322382 133.911307 
L 97.700213 132.873046 
L 98.142012 130.636793 
L 98.081921 135.918978 
L 98.22068 135.139594 
L 98.22068 135.139594 
L 99.67595 135.087268 
L 99.784179 131.821016 
L 100.456973 131.694332 
L 100.729321 131.639251 
L 101.509536 131.581417 
L 103.275439 131.534599 
L 110.837064 131.322541 
L 110.837064 131.322541 
L 112.81587 131.107728 
L 114.54785 131.041632 
L 118.887009 130.862622 
L 119.96461 130.512863 
L 126.698367 130.163104 
L 129.437034 129.964815 
L 131.016687 129.923505 
L 131.016687 129.923505 
L 136.135253 129.53519 
L 138.968581 129.309362 
L 140.660823 128.802625 
L 140.660823 128.802625 
L 144.951198 128.532732 
L 146.3992 128.317919 
L 155.96483 127.618402 
L 157.489238 127.188777 
L 159.297301 126.530569 
L 161.121195 126.08442 
L 168.522254 125.373886 
L 170.266672 124.710171 
L 173.811078 124.120813 
L 175.793438 123.806857 
L 175.793438 123.806857 
L 180.927834 123.313889 
L 180.927834 123.313889 
L 185.828974 121.766138 
L 187.65836 121.454935 
L 187.65836 121.454935 
L 191.451207 121.072128 
L 193.389306 120.353332 
L 197.090724 119.797023 
L 199.156436 119.133307 
L 199.156436 119.133307 
L 204.805968 118.375955 
L 206.739544 117.800368 
L 208.89087 117.414807 
L 211.343944 116.803418 
L 211.343944 116.803418 
L 217.464351 116.205798 
L 219.705329 115.605425 
L 229.043679 114.112753 
L 229.043679 114.112753 
L 237.473878 113.344385 
L 240.449034 112.609065 
L 251.58527 111.011742 
L 251.58527 111.011742 
L 260.472776 109.967973 
L 263.488476 109.31252 
L 267.533641 104.842767 
L 274.709681 102.873652 
L 274.709681 102.873652 
L 283.171864 101.463601 
L 283.171864 101.463601 
L 289.066445 99.370555 
L 292.218158 98.390129 
L 295.670327 97.541895 
L 295.670327 97.541895 
L 301.852764 96.208956 
L 303.978406 95.010963 
L 306.452802 94.044307 
L 309.075003 93.350297 
L 311.52323 92.446983 
L 311.52323 92.446983 
L 315.704731 91.036931 
L 317.679983 89.55803 
L 319.331196 88.541801 
L 323.069444 86.804023 
L 323.069444 86.804023 
L 326.296756 85.699666 
L 327.630552 84.482396 
L 330.773704 83.031034 
L 335.042433 81.356598 
L 335.042433 81.356598 
L 337.906129 79.434301 
L 339.605318 78.663179 
L 339.605318 78.663179 
" style="fill:none;stroke:#8c564b;stroke-linecap:square;stroke-width:1.5;"/>
   </g>
   <g id="line2d_32">
    <path clip-path="url(#pa85ec0fc72)" d="M 60.056534 209.819992 
L 60.913548 209.717995 
L 61.541726 209.055008 
L 64.034993 204.018864 
L 65.165713 201.022677 
L 65.710881 198.804224 
L 66.752609 196.241528 
L 67.23496 195.094052 
L 68.901875 188.833934 
L 69.353564 187.418714 
L 70.731816 184.154782 
L 71.021974 183.083805 
L 71.895441 181.311592 
L 73.00223 179.080389 
L 73.58479 178.149659 
L 73.938514 177.193429 
L 74.162863 176.262698 
L 74.583892 175.21722 
L 76.608269 171.226554 
L 77.383022 168.281366 
L 78.432228 166.330657 
L 79.020771 165.565673 
L 79.544252 164.685942 
L 79.924898 163.742462 
L 80.132795 162.926479 
L 80.473058 162.148745 
L 81.560404 160.924771 
L 82.836203 158.884814 
L 83.029891 158.10708 
L 83.851009 156.908606 
L 84.455256 156.22012 
L 85.610654 154.231162 
L 85.767699 153.695673 
L 87.290282 152.331452 
L 88.447176 151.324223 
L 88.968414 150.240496 
L 89.453008 149.768756 
L 90.126803 149.437263 
L 91.68603 148.379035 
L 92.543044 147.983793 
L 93.128595 147.563052 
L 93.474093 147.078562 
L 94.680344 146.147832 
L 98.501758 144.541366 
L 98.814352 144.146124 
L 99.325868 143.789132 
L 100.236726 143.36839 
L 103.352188 142.259164 
L 103.877165 141.991419 
L 104.117219 141.723675 
L 104.715483 141.404932 
L 106.966453 140.818444 
L 108.824065 140.486951 
L 111.363697 139.313976 
L 112.401686 139.020732 
L 112.91395 138.701989 
L 113.309553 138.408745 
L 114.478412 137.784008 
L 114.684813 137.503514 
L 115.348139 137.22302 
L 116.457172 136.560034 
L 116.787713 136.445286 
L 116.840809 136.394287 
L 117.951337 136.228541 
L 120.248673 135.833299 
L 120.992764 135.79505 
L 121.357706 135.705802 
L 122.842897 135.603804 
L 122.842897 135.603804 
L 123.263926 135.705802 
L 123.272152 135.616554 
L 123.419475 135.463557 
L 124.747622 135.28506 
L 124.747622 135.28506 
L 125.547801 135.106564 
L 126.042865 135.042816 
L 126.042865 135.042816 
L 130.564249 134.660324 
L 130.564249 134.660324 
L 131.956709 134.81332 
L 132.354555 134.698573 
L 135.328677 134.609325 
L 135.835707 134.507327 
L 142.762114 134.073836 
L 142.762114 133.946339 
L 153.053011 133.576596 
L 153.053011 133.487348 
L 163.055246 133.359851 
L 166.071994 133.296102 
L 169.584555 133.041108 
L 169.584555 133.041108 
L 181.384574 132.594867 
L 184.725133 132.276124 
L 188.208529 131.766135 
L 192.688034 131.230646 
L 192.688034 131.230646 
L 203.968311 130.452912 
L 206.964868 129.228938 
L 210.41162 128.986693 
L 215.825913 128.145211 
L 215.825913 128.145211 
L 228.737209 126.946736 
L 236.810041 125.391269 
L 241.875845 124.639034 
L 241.875845 124.639034 
L 255.059351 123.147316 
L 259.097637 120.928863 
L 263.947318 120.482622 
L 268.635468 119.717638 
L 268.635468 119.717638 
L 282.709641 118.021924 
L 287.990073 116.797949 
L 293.924109 116.058465 
L 299.43562 114.018508 
L 299.43562 114.018508 
" style="fill:none;stroke:#e377c2;stroke-linecap:square;stroke-width:1.5;"/>
   </g>
   <g id="line2d_33">
    <path clip-path="url(#pa85ec0fc72)" d="M 60.056534 209.819992 
L 60.625509 209.760481 
L 60.625509 209.760481 
L 61.24248 209.626579 
L 61.976387 209.611701 
L 61.976387 209.611701 
L 62.69895 209.40341 
L 65.794277 208.704146 
L 66.578799 208.361953 
L 67.731583 208.034638 
L 68.675802 208.004882 
L 69.565916 207.543666 
L 71.338289 206.383186 
L 72.340103 205.892213 
L 73.951035 204.478808 
L 74.547062 203.37784 
L 76.486114 201.845411 
L 77.950438 199.911277 
L 81.966422 194.406435 
L 82.235201 193.364978 
L 82.689857 192.353278 
L 83.038921 191.386211 
L 83.686435 190.076951 
L 84.442159 188.5594 
L 84.546006 187.830381 
L 85.506805 185.048204 
L 85.718862 184.289428 
L 86.502511 182.548708 
L 86.775654 181.685787 
L 86.841976 181.581641 
L 86.999055 181.254326 
L 87.223328 180.971645 
L 87.321066 180.71872 
L 87.73209 180.614574 
L 88.303682 180.56994 
L 89.62489 180.480673 
L 89.990535 180.406283 
L 91.408608 180.302137 
L 95.525821 180.019456 
L 96.862736 179.974822 
L 97.051231 179.900433 
L 99.184013 179.796287 
L 101.726946 179.647508 
L 102.175494 179.48385 
L 109.477044 178.858976 
L 112.737304 178.75483 
L 112.737304 178.75483 
L 135.251072 177.906787 
L 140.13448 179.48385 
L 144.721184 179.379704 
L 150.510414 179.067267 
L 150.510414 178.82922 
L 165.729613 178.412638 
L 170.921071 177.877031 
L 178.439914 177.713374 
L 186.630705 177.0885 
L 194.66529 175.942898 
L 194.66529 175.213878 
L 213.799245 174.053398 
L 219.145163 173.056575 
L 227.935472 171.806827 
L 236.773778 170.720737 
L 244.984641 169.500745 
L 244.984641 168.578312 
L 260.089522 166.644178 
L 265.308031 164.992726 
L 272.524934 163.504931 
L 284.448094 160.499584 
L 284.448094 159.696175 
L 295.652183 157.211557 
L 299.631515 155.307179 
L 304.966961 153.804506 
L 313.652551 150.427212 
L 313.652551 149.475023 
L 322.161864 147.005283 
L 325.862817 145.725779 
L 330.117909 144.461153 
L 334.052736 142.735311 
L 337.815648 141.812878 
L 337.815648 140.63752 
L 345.479352 138.182658 
L 348.797208 136.322914 
L 352.973761 134.760729 
L 356.861463 132.737328 
L 360.685462 131.070997 
L 360.685462 130.237832 
L 369.245389 128.065651 
L 381.802101 123.170805 
L 386.284085 121.623498 
L 386.284085 120.909357 
L 386.284085 120.909357 
" style="fill:none;stroke:#7f7f7f;stroke-linecap:square;stroke-width:1.5;"/>
   </g>
   <g id="line2d_34">
    <path clip-path="url(#pa85ec0fc72)" d="M 60.056534 209.819992 
L 60.398304 209.738432 
L 61.729673 208.848855 
L 62.728505 207.596998 
L 63.360313 206.641034 
L 64.338007 205.167257 
L 65.972763 201.250462 
L 66.819846 198.680362 
L 67.406707 197.604903 
L 69.123457 191.438559 
L 70.001468 187.711439 
L 70.855671 185.092023 
L 71.336842 183.051117 
L 73.042133 177.685203 
L 73.566804 175.589291 
L 74.53582 173.688744 
L 75.065386 171.367118 
L 76.801605 166.551262 
L 77.218583 165.005409 
L 77.604409 164.314991 
L 78.127522 163.70803 
L 78.652749 161.870076 
L 81.023891 156.297415 
L 81.399705 155.781499 
L 82.235774 153.177257 
L 82.654865 152.308544 
L 83.233271 150.688717 
L 83.49149 150.277121 
L 83.89011 149.922429 
L 84.634061 147.909974 
L 85.637233 145.671805 
L 85.923599 145.394879 
L 86.562971 143.824368 
L 87.071622 142.754599 
L 87.23928 142.337313 
L 87.38925 141.618444 
L 87.751602 141.172707 
L 88.312319 139.20198 
L 88.553516 138.796075 
L 88.713053 138.632955 
L 89.574376 136.48014 
L 90.062667 135.406578 
L 90.25113 135.152413 
L 90.365276 135.097407 
L 90.961816 134.181275 
L 91.061054 134.154721 
L 92.112287 132.396431 
L 93.115013 131.9469 
L 93.594404 131.732567 
L 94.132647 131.624452 
L 95.56826 131.353216 
L 97.423521 131.102845 
L 101.345423 130.844887 
L 103.485158 130.613483 
L 109.692871 130.019799 
L 112.028078 129.648035 
L 116.014507 129.492502 
L 119.033366 129.31231 
L 130.693492 128.225471 
L 136.738664 127.445905 
L 138.537741 127.161392 
L 142.51883 126.88257 
L 144.891864 126.425452 
L 150.223679 125.704686 
L 152.507821 125.279813 
L 159.593767 124.4699 
L 162.1398 123.773791 
L 172.607068 121.516655 
L 177.302403 120.951423 
L 182.330497 119.265209 
L 190.383235 117.09153 
L 195.047197 116.427667 
L 199.871363 114.290026 
L 203.595012 113.222154 
L 206.632339 112.508975 
L 209.620603 111.632675 
L 212.397708 111.314021 
L 214.774413 110.910012 
L 219.18672 108.772372 
L 221.73609 107.822098 
L 223.989192 106.852858 
L 226.200352 106.207962 
L 228.276561 105.453054 
L 229.995425 105.062323 
L 231.252476 103.909097 
L 233.278733 102.590854 
L 235.231785 101.646271 
L 236.871548 100.659959 
L 238.637249 99.751414 
L 241.361287 98.958572 
L 242.855307 97.814829 
L 244.654274 96.585733 
L 249.851472 94.091503 
L 253.410355 93.294867 
L 254.776657 92.158712 
L 256.621015 91.147743 
L 258.953329 90.169018 
L 261.364411 89.364795 
L 263.756469 88.378483 
L 263.756469 88.378483 
" style="fill:none;stroke:#bcbd22;stroke-linecap:square;stroke-width:1.5;"/>
   </g>
   <g id="line2d_35">
    <path clip-path="url(#pa85ec0fc72)" d="M 60.056534 209.819992 
L 61.498832 209.718842 
L 62.02983 209.481138 
L 62.149082 209.319298 
L 63.450472 209.223205 
L 65.365032 208.768028 
L 66.964553 207.817214 
L 67.783892 206.390993 
L 67.949421 205.758803 
L 68.261197 205.23282 
L 68.371549 205.227763 
L 68.371549 205.227763 
" style="fill:none;stroke:#17becf;stroke-linecap:square;stroke-width:1.5;"/>
   </g>
   <g id="line2d_36">
    <path clip-path="url(#pa85ec0fc72)" d="M 60.056557 209.819992 
L 60.369739 209.716815 
L 61.633057 209.300198 
L 62.919688 208.687387 
L 64.461917 207.757229 
L 67.241514 205.560413 
L 68.579563 204.251156 
L 70.037617 202.404518 
L 72.887062 199.127467 
L 74.133486 197.411364 
L 74.824975 196.392098 
L 78.174246 192.349034 
L 79.443616 190.401173 
L 80.978005 188.594007 
L 82.848637 186.83335 
L 84.72743 184.028023 
L 87.245424 181.685821 
L 88.38241 179.873575 
L 90.203298 177.836606 
L 91.081225 177.089743 
L 93.284203 174.427457 
L 95.241257 172.584727 
L 95.76992 171.991458 
L 98.258778 170.130359 
L 98.704664 169.871243 
L 99.129507 169.283446 
L 100.755682 167.992948 
L 101.580128 167.417657 
L 103.59997 165.878987 
L 105.317404 164.874181 
L 106.32588 164.188678 
L 107.476231 163.564533 
L 108.358215 163.289394 
L 109.508795 162.683228 
L 110.857801 162.148973 
L 112.184732 161.795278 
L 112.887935 161.643248 
L 114.507119 161.01754 
L 117.419971 160.362912 
L 119.264539 160.099106 
L 123.96151 159.039585 
L 127.154557 158.671821 
L 128.547278 158.198925 
L 134.282847 156.879507 
L 138.530699 156.193222 
L 144.923601 154.73936 
L 147.724701 154.34971 
L 154.094542 152.567557 
L 158.133354 151.589718 
L 162.837638 150.026817 
L 165.720277 149.106038 
L 167.802562 148.729676 
L 173.063957 146.689189 
L 174.312122 146.263583 
L 176.4922 145.84892 
L 182.613182 143.508281 
L 184.393542 143.106515 
L 187.52293 141.644838 
L 189.629743 140.830753 
L 191.255987 140.476668 
L 193.21593 139.522669 
L 195.326021 138.714838 
L 198.925388 137.568163 
L 200.867748 136.745872 
L 203.729343 135.909902 
L 204.884462 135.625773 
L 205.661457 135.165384 
L 207.575689 134.338793 
L 209.302017 133.90967 
L 210.077797 133.744743 
L 211.862282 132.856793 
L 214.984106 131.879735 
L 217.045829 131.619057 
L 219.883148 130.437208 
L 222.002386 129.777108 
L 223.597041 129.539878 
L 227.808422 128.124709 
L 234.14617 126.526243 
L 236.669321 125.903662 
L 239.863721 125.293587 
L 242.702369 124.584634 
L 246.708424 123.768596 
L 248.2413 123.586082 
L 252.813383 122.433545 
L 256.568447 121.694499 
L 259.509679 121.350965 
L 265.122584 120.198038 
L 269.419744 119.453129 
L 273.065921 119.080675 
L 278.279337 118.036005 
L 286.988781 116.728702 
L 292.289535 116.270267 
L 298.738921 115.174009 
L 310.325984 113.75493 
L 317.060034 113.216376 
L 333.442089 110.302401 
L 340.798354 109.392174 
L 344.73009 109.029881 
L 355.387922 106.819777 
L 370.468835 105.018083 
L 379.196846 102.912329 
L 384.186849 101.792231 
L 394.312396 99.904556 
L 402.750539 98.922809 
L 407.699234 97.934027 
L 412.771463 96.720522 
L 417.916704 95.650057 
L 423.229815 94.360342 
L 428.261768 93.441126 
L 428.261768 93.441126 
" style="fill:none;stroke:#1f77b4;stroke-linecap:square;stroke-width:1.5;"/>
   </g>
   <g id="line2d_37">
    <path clip-path="url(#pa85ec0fc72)" d="M 60.056534 209.819992 
L 60.702543 209.721351 
L 62.305197 209.350597 
L 63.872737 208.439018 
L 65.681882 206.394767 
L 66.200605 205.541011 
L 66.908263 205.05801 
L 67.163035 204.500178 
L 68.366073 202.755252 
L 71.610484 197.292578 
L 72.124818 196.915021 
L 73.261419 194.377565 
L 74.271532 192.425152 
L 74.973204 190.802677 
L 76.112798 189.319659 
L 76.801901 188.190389 
L 77.628466 186.853633 
L 78.190881 185.799194 
L 78.344902 185.472658 
L 78.50411 184.741354 
L 78.665512 184.639311 
L 78.935647 184.044063 
L 79.196205 183.367182 
L 79.441801 183.030441 
L 79.653878 182.71411 
L 80.085416 181.870559 
L 80.22168 181.690284 
L 80.92834 180.669859 
L 81.16795 180.475978 
L 81.66752 179.938554 
L 82.432437 179.564399 
L 83.467688 179.339905 
L 83.790094 179.227659 
L 86.846967 178.543974 
L 92.196195 178.033762 
L 92.559899 177.95893 
L 93.244214 177.550761 
L 94.246546 177.305859 
L 100.775869 176.380673 
L 102.852356 176.013321 
L 103.721216 175.826243 
L 105.614953 175.523517 
L 111.701765 174.132338 
L 113.355693 173.853422 
L 115.214316 173.452054 
L 124.741457 171.098275 
L 126.677091 170.700309 
L 128.032753 170.469013 
L 129.083964 170.108463 
L 131.206139 169.625462 
L 133.526226 169.030214 
L 136.175303 168.506396 
L 148.997929 165.162804 
L 151.53149 164.356669 
L 151.53149 164.356669 
" style="fill:none;stroke:#ff7f0e;stroke-linecap:square;stroke-width:1.5;"/>
   </g>
   <g id="line2d_38">
    <path clip-path="url(#pa85ec0fc72)" d="M 60.056654 209.819992 
L 60.356303 209.713094 
L 60.751677 209.511515 
L 60.997344 209.154169 
L 61.218648 208.82533 
L 63.270277 208.720467 
L 64.368734 208.418098 
L 64.717948 208.292874 
L 66.054907 208.032246 
L 66.843444 207.932475 
L 69.662888 207.550695 
L 70.702049 207.313483 
L 70.702049 207.313483 
" style="fill:none;stroke:#2ca02c;stroke-linecap:square;stroke-width:1.5;"/>
   </g>
   <g id="line2d_39">
    <path clip-path="url(#pa85ec0fc72)" d="M 60.059481 209.818434 
L 60.455545 209.636383 
L 60.563112 209.384664 
L 60.563112 209.384664 
" style="fill:none;stroke:#d62728;stroke-linecap:square;stroke-width:1.5;"/>
   </g>
   <g id="line2d_40">
    <path clip-path="url(#pa85ec0fc72)" d="M 60.056534 209.819992 
L 60.759547 209.726465 
L 66.476698 208.74178 
L 69.225092 208.386199 
L 75.579375 207.31681 
L 79.673553 206.165364 
L 80.580473 205.80096 
L 82.399072 205.224795 
L 94.225457 201.289584 
L 97.631062 199.833732 
L 98.6227 199.449917 
L 99.922425 198.946986 
L 100.529435 198.736991 
L 102.03198 198.129945 
L 102.60059 197.923479 
L 103.730357 197.437312 
L 104.551781 197.178788 
L 105.895081 196.670564 
L 106.672773 196.381158 
L 108.695694 195.651468 
L 111.657983 194.599725 
L 112.959881 194.142676 
L 113.483931 193.991797 
L 114.586735 193.5621 
L 116.009373 193.05917 
L 118.225643 192.290656 
L 121.10611 191.470968 
L 122.627907 191.061565 
L 123.778789 190.797747 
L 126.209523 190.116585 
L 128.307486 189.67277 
L 142.262677 185.589327 
L 144.136911 185.091691 
L 146.023204 184.575525 
L 149.074922 183.65525 
L 151.163517 183.092321 
L 153.354842 182.556744 
L 156.596286 181.44765 
L 163.508984 179.3574 
L 167.281362 178.198895 
L 168.569546 177.886548 
L 175.129288 175.69483 
L 179.195105 174.482503 
L 181.931389 173.491641 
L 184.805129 172.560778 
L 187.72912 171.771972 
L 194.720275 169.300553 
L 194.720275 169.300553 
" style="fill:none;stroke:#9467bd;stroke-linecap:square;stroke-width:1.5;"/>
   </g>
   <g id="line2d_41">
    <path clip-path="url(#pa85ec0fc72)" d="M 60.056534 209.819992 
L 60.282417 209.711055 
L 60.436978 209.616839 
L 61.042615 209.375411 
L 62.965904 208.477416 
L 64.144539 207.735466 
L 65.067241 207.343881 
L 65.557 207.173114 
L 67.630188 206.457662 
L 69.371803 205.730433 
L 70.965421 205.197525 
L 72.595649 204.717613 
L 73.615578 204.384913 
L 75.277063 203.863781 
L 76.747895 203.483973 
L 79.858108 202.609532 
L 84.090485 201.287565 
L 85.358056 200.887147 
L 106.349663 194.810222 
L 107.14509 194.677731 
L 109.060435 194.024108 
L 112.185155 193.129057 
L 125.967491 189.039498 
L 129.018297 188.03551 
L 133.223906 187.005023 
L 138.384339 185.211977 
L 141.955644 184.219766 
L 143.493999 183.875289 
L 149.124158 182.079298 
L 153.413523 180.948707 
L 157.038018 180.371635 
L 159.140909 179.88289 
L 163.698986 178.334216 
L 168.827642 176.994584 
L 172.901831 176.18786 
L 180.209019 174.221103 
L 185.921553 173.06107 
L 189.981408 172.336785 
L 192.187397 171.656664 
L 194.508918 171.132588 
L 202.180834 168.962678 
L 205.792377 167.988133 
L 207.718948 167.384562 
L 212.325206 165.71223 
L 217.007277 164.101727 
L 217.007277 164.101727 
" style="fill:none;stroke:#8c564b;stroke-linecap:square;stroke-width:1.5;"/>
   </g>
   <g id="line2d_42">
    <path clip-path="url(#pa85ec0fc72)" d="M 60.056534 209.819992 
L 60.247334 209.712317 
L 61.934216 208.896261 
L 62.064771 208.678204 
L 64.400886 207.804205 
L 67.913431 206.762254 
L 84.497488 202.816241 
L 114.002478 196.475431 
L 114.002478 196.475431 
" style="fill:none;stroke:#e377c2;stroke-linecap:square;stroke-width:1.5;"/>
   </g>
   <g id="patch_3">
    <path d="M 39.765625 219.703629 
L 39.765625 2.263629 
" style="fill:none;stroke:#000000;stroke-linecap:square;stroke-linejoin:miter;stroke-width:0.8;"/>
   </g>
   <g id="patch_4">
    <path d="M 486.165625 219.703629 
L 486.165625 2.263629 
" style="fill:none;stroke:#000000;stroke-linecap:square;stroke-linejoin:miter;stroke-width:0.8;"/>
   </g>
   <g id="patch_5">
    <path d="M 39.765625 219.703629 
L 486.165625 219.703629 
" style="fill:none;stroke:#000000;stroke-linecap:square;stroke-linejoin:miter;stroke-width:0.8;"/>
   </g>
   <g id="patch_6">
    <path d="M 39.765625 2.263629 
L 486.165625 2.263629 
" style="fill:none;stroke:#000000;stroke-linecap:square;stroke-linejoin:miter;stroke-width:0.8;"/>
   </g>
   <g id="text_18">
    <!-- Austria -->
    <g transform="translate(328.25132 146.699481)scale(0.1 -0.1)">
     <defs>
      <path d="M 34.1875 63.1875 
L 20.796875 26.90625 
L 47.609375 26.90625 
z
M 28.609375 72.90625 
L 39.796875 72.90625 
L 67.578125 0 
L 57.328125 0 
L 50.6875 18.703125 
L 17.828125 18.703125 
L 11.1875 0 
L 0.78125 0 
z
" id="DejaVuSans-65"/>
      <path d="M 8.5 21.578125 
L 8.5 54.6875 
L 17.484375 54.6875 
L 17.484375 21.921875 
Q 17.484375 14.15625 20.5 10.265625 
Q 23.53125 6.390625 29.59375 6.390625 
Q 36.859375 6.390625 41.078125 11.03125 
Q 45.3125 15.671875 45.3125 23.6875 
L 45.3125 54.6875 
L 54.296875 54.6875 
L 54.296875 0 
L 45.3125 0 
L 45.3125 8.40625 
Q 42.046875 3.421875 37.71875 1 
Q 33.40625 -1.421875 27.6875 -1.421875 
Q 18.265625 -1.421875 13.375 4.4375 
Q 8.5 10.296875 8.5 21.578125 
z
M 31.109375 56 
z
" id="DejaVuSans-117"/>
     </defs>
     <use xlink:href="#DejaVuSans-65"/>
     <use x="68.408203" xlink:href="#DejaVuSans-117"/>
     <use x="131.787109" xlink:href="#DejaVuSans-115"/>
     <use x="183.886719" xlink:href="#DejaVuSans-116"/>
     <use x="223.095703" xlink:href="#DejaVuSans-114"/>
     <use x="264.208984" xlink:href="#DejaVuSans-105"/>
     <use x="291.992188" xlink:href="#DejaVuSans-97"/>
    </g>
   </g>
   <g id="text_19">
    <!-- Belgium -->
    <g transform="translate(453.113949 12.147265)scale(0.1 -0.1)">
     <defs>
      <path d="M 19.671875 34.8125 
L 19.671875 8.109375 
L 35.5 8.109375 
Q 43.453125 8.109375 47.28125 11.40625 
Q 51.125 14.703125 51.125 21.484375 
Q 51.125 28.328125 47.28125 31.5625 
Q 43.453125 34.8125 35.5 34.8125 
z
M 19.671875 64.796875 
L 19.671875 42.828125 
L 34.28125 42.828125 
Q 41.5 42.828125 45.03125 45.53125 
Q 48.578125 48.25 48.578125 53.8125 
Q 48.578125 59.328125 45.03125 62.0625 
Q 41.5 64.796875 34.28125 64.796875 
z
M 9.8125 72.90625 
L 35.015625 72.90625 
Q 46.296875 72.90625 52.390625 68.21875 
Q 58.5 63.53125 58.5 54.890625 
Q 58.5 48.1875 55.375 44.234375 
Q 52.25 40.28125 46.1875 39.3125 
Q 53.46875 37.75 57.5 32.78125 
Q 61.53125 27.828125 61.53125 20.40625 
Q 61.53125 10.640625 54.890625 5.3125 
Q 48.25 0 35.984375 0 
L 9.8125 0 
z
" id="DejaVuSans-66"/>
      <path d="M 9.421875 75.984375 
L 18.40625 75.984375 
L 18.40625 0 
L 9.421875 0 
z
" id="DejaVuSans-108"/>
      <path d="M 45.40625 27.984375 
Q 45.40625 37.75 41.375 43.109375 
Q 37.359375 48.484375 30.078125 48.484375 
Q 22.859375 48.484375 18.828125 43.109375 
Q 14.796875 37.75 14.796875 27.984375 
Q 14.796875 18.265625 18.828125 12.890625 
Q 22.859375 7.515625 30.078125 7.515625 
Q 37.359375 7.515625 41.375 12.890625 
Q 45.40625 18.265625 45.40625 27.984375 
z
M 54.390625 6.78125 
Q 54.390625 -7.171875 48.1875 -13.984375 
Q 42 -20.796875 29.203125 -20.796875 
Q 24.46875 -20.796875 20.265625 -20.09375 
Q 16.0625 -19.390625 12.109375 -17.921875 
L 12.109375 -9.1875 
Q 16.0625 -11.328125 19.921875 -12.34375 
Q 23.78125 -13.375 27.78125 -13.375 
Q 36.625 -13.375 41.015625 -8.765625 
Q 45.40625 -4.15625 45.40625 5.171875 
L 45.40625 9.625 
Q 42.625 4.78125 38.28125 2.390625 
Q 33.9375 0 27.875 0 
Q 17.828125 0 11.671875 7.65625 
Q 5.515625 15.328125 5.515625 27.984375 
Q 5.515625 40.671875 11.671875 48.328125 
Q 17.828125 56 27.875 56 
Q 33.9375 56 38.28125 53.609375 
Q 42.625 51.21875 45.40625 46.390625 
L 45.40625 54.6875 
L 54.390625 54.6875 
z
" id="DejaVuSans-103"/>
     </defs>
     <use xlink:href="#DejaVuSans-66"/>
     <use x="68.603516" xlink:href="#DejaVuSans-101"/>
     <use x="130.126953" xlink:href="#DejaVuSans-108"/>
     <use x="157.910156" xlink:href="#DejaVuSans-103"/>
     <use x="221.386719" xlink:href="#DejaVuSans-105"/>
     <use x="249.169922" xlink:href="#DejaVuSans-117"/>
     <use x="312.548828" xlink:href="#DejaVuSans-109"/>
    </g>
   </g>
   <g id="text_20">
    <!-- Czechia -->
    <g transform="translate(465.874716 96.194795)scale(0.1 -0.1)">
     <defs>
      <path d="M 64.40625 67.28125 
L 64.40625 56.890625 
Q 59.421875 61.53125 53.78125 63.8125 
Q 48.140625 66.109375 41.796875 66.109375 
Q 29.296875 66.109375 22.65625 58.46875 
Q 16.015625 50.828125 16.015625 36.375 
Q 16.015625 21.96875 22.65625 14.328125 
Q 29.296875 6.6875 41.796875 6.6875 
Q 48.140625 6.6875 53.78125 8.984375 
Q 59.421875 11.28125 64.40625 15.921875 
L 64.40625 5.609375 
Q 59.234375 2.09375 53.4375 0.328125 
Q 47.65625 -1.421875 41.21875 -1.421875 
Q 24.65625 -1.421875 15.125 8.703125 
Q 5.609375 18.84375 5.609375 36.375 
Q 5.609375 53.953125 15.125 64.078125 
Q 24.65625 74.21875 41.21875 74.21875 
Q 47.75 74.21875 53.53125 72.484375 
Q 59.328125 70.75 64.40625 67.28125 
z
" id="DejaVuSans-67"/>
      <path d="M 5.515625 54.6875 
L 48.1875 54.6875 
L 48.1875 46.484375 
L 14.40625 7.171875 
L 48.1875 7.171875 
L 48.1875 0 
L 4.296875 0 
L 4.296875 8.203125 
L 38.09375 47.515625 
L 5.515625 47.515625 
z
" id="DejaVuSans-122"/>
     </defs>
     <use xlink:href="#DejaVuSans-67"/>
     <use x="69.824219" xlink:href="#DejaVuSans-122"/>
     <use x="122.314453" xlink:href="#DejaVuSans-101"/>
     <use x="183.837891" xlink:href="#DejaVuSans-99"/>
     <use x="238.818359" xlink:href="#DejaVuSans-104"/>
     <use x="302.197266" xlink:href="#DejaVuSans-105"/>
     <use x="329.980469" xlink:href="#DejaVuSans-97"/>
    </g>
   </g>
   <g id="text_21">
    <!-- Denmark -->
    <g transform="translate(199.726748 189.034569)scale(0.1 -0.1)">
     <defs>
      <path d="M 19.671875 64.796875 
L 19.671875 8.109375 
L 31.59375 8.109375 
Q 46.6875 8.109375 53.6875 14.9375 
Q 60.6875 21.78125 60.6875 36.53125 
Q 60.6875 51.171875 53.6875 57.984375 
Q 46.6875 64.796875 31.59375 64.796875 
z
M 9.8125 72.90625 
L 30.078125 72.90625 
Q 51.265625 72.90625 61.171875 64.09375 
Q 71.09375 55.28125 71.09375 36.53125 
Q 71.09375 17.671875 61.125 8.828125 
Q 51.171875 0 30.078125 0 
L 9.8125 0 
z
" id="DejaVuSans-68"/>
     </defs>
     <use xlink:href="#DejaVuSans-68"/>
     <use x="77.001953" xlink:href="#DejaVuSans-101"/>
     <use x="138.525391" xlink:href="#DejaVuSans-110"/>
     <use x="201.904297" xlink:href="#DejaVuSans-109"/>
     <use x="299.316406" xlink:href="#DejaVuSans-97"/>
     <use x="360.595703" xlink:href="#DejaVuSans-114"/>
     <use x="401.708984" xlink:href="#DejaVuSans-107"/>
    </g>
   </g>
   <g id="text_22">
    <!-- Finland -->
    <g transform="translate(101.562878 199.292542)scale(0.1 -0.1)">
     <defs>
      <path d="M 9.8125 72.90625 
L 51.703125 72.90625 
L 51.703125 64.59375 
L 19.671875 64.59375 
L 19.671875 43.109375 
L 48.578125 43.109375 
L 48.578125 34.8125 
L 19.671875 34.8125 
L 19.671875 0 
L 9.8125 0 
z
" id="DejaVuSans-70"/>
     </defs>
     <use xlink:href="#DejaVuSans-70"/>
     <use x="50.269531" xlink:href="#DejaVuSans-105"/>
     <use x="78.052734" xlink:href="#DejaVuSans-110"/>
     <use x="141.431641" xlink:href="#DejaVuSans-108"/>
     <use x="169.214844" xlink:href="#DejaVuSans-97"/>
     <use x="230.494141" xlink:href="#DejaVuSans-110"/>
     <use x="293.873047" xlink:href="#DejaVuSans-100"/>
    </g>
   </g>
   <g id="text_23">
    <!-- France -->
    <g transform="translate(331.826438 96.963643)scale(0.1 -0.1)">
     <use xlink:href="#DejaVuSans-70"/>
     <use x="50.269531" xlink:href="#DejaVuSans-114"/>
     <use x="91.382812" xlink:href="#DejaVuSans-97"/>
     <use x="152.662109" xlink:href="#DejaVuSans-110"/>
     <use x="216.041016" xlink:href="#DejaVuSans-99"/>
     <use x="271.021484" xlink:href="#DejaVuSans-101"/>
    </g>
   </g>
   <g id="text_24">
    <!-- Germany -->
    <g transform="translate(180.496801 176.163075)scale(0.1 -0.1)">
     <defs>
      <path d="M 59.515625 10.40625 
L 59.515625 29.984375 
L 43.40625 29.984375 
L 43.40625 38.09375 
L 69.28125 38.09375 
L 69.28125 6.78125 
Q 63.578125 2.734375 56.6875 0.65625 
Q 49.8125 -1.421875 42 -1.421875 
Q 24.90625 -1.421875 15.25 8.5625 
Q 5.609375 18.5625 5.609375 36.375 
Q 5.609375 54.25 15.25 64.234375 
Q 24.90625 74.21875 42 74.21875 
Q 49.125 74.21875 55.546875 72.453125 
Q 61.96875 70.703125 67.390625 67.28125 
L 67.390625 56.78125 
Q 61.921875 61.421875 55.765625 63.765625 
Q 49.609375 66.109375 42.828125 66.109375 
Q 29.4375 66.109375 22.71875 58.640625 
Q 16.015625 51.171875 16.015625 36.375 
Q 16.015625 21.625 22.71875 14.15625 
Q 29.4375 6.6875 42.828125 6.6875 
Q 48.046875 6.6875 52.140625 7.59375 
Q 56.25 8.5 59.515625 10.40625 
z
" id="DejaVuSans-71"/>
      <path d="M 32.171875 -5.078125 
Q 28.375 -14.84375 24.75 -17.8125 
Q 21.140625 -20.796875 15.09375 -20.796875 
L 7.90625 -20.796875 
L 7.90625 -13.28125 
L 13.1875 -13.28125 
Q 16.890625 -13.28125 18.9375 -11.515625 
Q 21 -9.765625 23.484375 -3.21875 
L 25.09375 0.875 
L 2.984375 54.6875 
L 12.5 54.6875 
L 29.59375 11.921875 
L 46.6875 54.6875 
L 56.203125 54.6875 
z
" id="DejaVuSans-121"/>
     </defs>
     <use xlink:href="#DejaVuSans-71"/>
     <use x="77.490234" xlink:href="#DejaVuSans-101"/>
     <use x="139.013672" xlink:href="#DejaVuSans-114"/>
     <use x="178.376953" xlink:href="#DejaVuSans-109"/>
     <use x="275.789062" xlink:href="#DejaVuSans-97"/>
     <use x="337.068359" xlink:href="#DejaVuSans-110"/>
     <use x="400.447266" xlink:href="#DejaVuSans-121"/>
    </g>
   </g>
   <g id="text_25">
    <!-- Greece -->
    <g transform="translate(149.792411 166.088004)scale(0.1 -0.1)">
     <use xlink:href="#DejaVuSans-71"/>
     <use x="77.490234" xlink:href="#DejaVuSans-114"/>
     <use x="116.353516" xlink:href="#DejaVuSans-101"/>
     <use x="177.876953" xlink:href="#DejaVuSans-101"/>
     <use x="239.400391" xlink:href="#DejaVuSans-99"/>
     <use x="294.380859" xlink:href="#DejaVuSans-101"/>
    </g>
   </g>
   <g id="text_26">
    <!-- Hungary -->
    <g transform="translate(276.028776 119.395931)scale(0.1 -0.1)">
     <defs>
      <path d="M 9.8125 72.90625 
L 19.671875 72.90625 
L 19.671875 43.015625 
L 55.515625 43.015625 
L 55.515625 72.90625 
L 65.375 72.90625 
L 65.375 0 
L 55.515625 0 
L 55.515625 34.71875 
L 19.671875 34.71875 
L 19.671875 0 
L 9.8125 0 
z
" id="DejaVuSans-72"/>
     </defs>
     <use xlink:href="#DejaVuSans-72"/>
     <use x="75.195312" xlink:href="#DejaVuSans-117"/>
     <use x="138.574219" xlink:href="#DejaVuSans-110"/>
     <use x="201.953125" xlink:href="#DejaVuSans-103"/>
     <use x="265.429688" xlink:href="#DejaVuSans-97"/>
     <use x="326.708984" xlink:href="#DejaVuSans-114"/>
     <use x="367.822266" xlink:href="#DejaVuSans-121"/>
    </g>
   </g>
   <g id="text_27">
    <!-- Ireland -->
    <g transform="translate(175.928165 154.458488)scale(0.1 -0.1)">
     <defs>
      <path d="M 9.8125 72.90625 
L 19.671875 72.90625 
L 19.671875 0 
L 9.8125 0 
z
" id="DejaVuSans-73"/>
     </defs>
     <use xlink:href="#DejaVuSans-73"/>
     <use x="29.492188" xlink:href="#DejaVuSans-114"/>
     <use x="68.355469" xlink:href="#DejaVuSans-101"/>
     <use x="129.878906" xlink:href="#DejaVuSans-108"/>
     <use x="157.662109" xlink:href="#DejaVuSans-97"/>
     <use x="218.941406" xlink:href="#DejaVuSans-110"/>
     <use x="282.320312" xlink:href="#DejaVuSans-100"/>
    </g>
   </g>
   <g id="text_28">
    <!-- Italy -->
    <g transform="translate(288.121833 73.445247)scale(0.1 -0.1)">
     <use xlink:href="#DejaVuSans-73"/>
     <use x="29.492188" xlink:href="#DejaVuSans-116"/>
     <use x="68.701172" xlink:href="#DejaVuSans-97"/>
     <use x="129.980469" xlink:href="#DejaVuSans-108"/>
     <use x="157.763672" xlink:href="#DejaVuSans-121"/>
    </g>
   </g>
   <g id="text_29">
    <!-- Netherlands -->
    <g transform="translate(326.106818 134.530474)scale(0.1 -0.1)">
     <defs>
      <path d="M 9.8125 72.90625 
L 23.09375 72.90625 
L 55.421875 11.921875 
L 55.421875 72.90625 
L 64.984375 72.90625 
L 64.984375 0 
L 51.703125 0 
L 19.390625 60.984375 
L 19.390625 0 
L 9.8125 0 
z
" id="DejaVuSans-78"/>
     </defs>
     <use xlink:href="#DejaVuSans-78"/>
     <use x="74.804688" xlink:href="#DejaVuSans-101"/>
     <use x="136.328125" xlink:href="#DejaVuSans-116"/>
     <use x="175.537109" xlink:href="#DejaVuSans-104"/>
     <use x="238.916016" xlink:href="#DejaVuSans-101"/>
     <use x="300.439453" xlink:href="#DejaVuSans-114"/>
     <use x="341.552734" xlink:href="#DejaVuSans-108"/>
     <use x="369.335938" xlink:href="#DejaVuSans-97"/>
     <use x="430.615234" xlink:href="#DejaVuSans-110"/>
     <use x="493.994141" xlink:href="#DejaVuSans-100"/>
     <use x="557.470703" xlink:href="#DejaVuSans-115"/>
    </g>
   </g>
   <g id="text_30">
    <!-- Norway -->
    <g transform="translate(116.900782 200.628137)scale(0.1 -0.1)">
     <defs>
      <path d="M 4.203125 54.6875 
L 13.1875 54.6875 
L 24.421875 12.015625 
L 35.59375 54.6875 
L 46.1875 54.6875 
L 57.421875 12.015625 
L 68.609375 54.6875 
L 77.59375 54.6875 
L 63.28125 0 
L 52.6875 0 
L 40.921875 44.828125 
L 29.109375 0 
L 18.5 0 
z
" id="DejaVuSans-119"/>
     </defs>
     <use xlink:href="#DejaVuSans-78"/>
     <use x="74.804688" xlink:href="#DejaVuSans-111"/>
     <use x="135.986328" xlink:href="#DejaVuSans-114"/>
     <use x="177.099609" xlink:href="#DejaVuSans-119"/>
     <use x="258.886719" xlink:href="#DejaVuSans-97"/>
     <use x="320.166016" xlink:href="#DejaVuSans-121"/>
    </g>
   </g>
   <g id="text_31">
    <!-- Poland -->
    <g transform="translate(284.897061 132.670948)scale(0.1 -0.1)">
     <defs>
      <path d="M 19.671875 64.796875 
L 19.671875 37.40625 
L 32.078125 37.40625 
Q 38.96875 37.40625 42.71875 40.96875 
Q 46.484375 44.53125 46.484375 51.125 
Q 46.484375 57.671875 42.71875 61.234375 
Q 38.96875 64.796875 32.078125 64.796875 
z
M 9.8125 72.90625 
L 32.078125 72.90625 
Q 44.34375 72.90625 50.609375 67.359375 
Q 56.890625 61.8125 56.890625 51.125 
Q 56.890625 40.328125 50.609375 34.8125 
Q 44.34375 29.296875 32.078125 29.296875 
L 19.671875 29.296875 
L 19.671875 0 
L 9.8125 0 
z
" id="DejaVuSans-80"/>
     </defs>
     <use xlink:href="#DejaVuSans-80"/>
     <use x="56.677734" xlink:href="#DejaVuSans-111"/>
     <use x="117.859375" xlink:href="#DejaVuSans-108"/>
     <use x="145.642578" xlink:href="#DejaVuSans-97"/>
     <use x="206.921875" xlink:href="#DejaVuSans-110"/>
     <use x="270.300781" xlink:href="#DejaVuSans-100"/>
    </g>
   </g>
   <g id="text_32">
    <!-- Portugal -->
    <g transform="translate(315.370499 140.859037)scale(0.1 -0.1)">
     <use xlink:href="#DejaVuSans-80"/>
     <use x="56.677734" xlink:href="#DejaVuSans-111"/>
     <use x="117.859375" xlink:href="#DejaVuSans-114"/>
     <use x="158.972656" xlink:href="#DejaVuSans-116"/>
     <use x="198.181641" xlink:href="#DejaVuSans-117"/>
     <use x="261.560547" xlink:href="#DejaVuSans-103"/>
     <use x="325.037109" xlink:href="#DejaVuSans-97"/>
     <use x="386.316406" xlink:href="#DejaVuSans-108"/>
    </g>
   </g>
   <g id="text_33">
    <!-- Spain -->
    <g transform="translate(339.605318 78.663179)scale(0.1 -0.1)">
     <defs>
      <path d="M 53.515625 70.515625 
L 53.515625 60.890625 
Q 47.90625 63.578125 42.921875 64.890625 
Q 37.9375 66.21875 33.296875 66.21875 
Q 25.25 66.21875 20.875 63.09375 
Q 16.5 59.96875 16.5 54.203125 
Q 16.5 49.359375 19.40625 46.890625 
Q 22.3125 44.4375 30.421875 42.921875 
L 36.375 41.703125 
Q 47.40625 39.59375 52.65625 34.296875 
Q 57.90625 29 57.90625 20.125 
Q 57.90625 9.515625 50.796875 4.046875 
Q 43.703125 -1.421875 29.984375 -1.421875 
Q 24.8125 -1.421875 18.96875 -0.25 
Q 13.140625 0.921875 6.890625 3.21875 
L 6.890625 13.375 
Q 12.890625 10.015625 18.65625 8.296875 
Q 24.421875 6.59375 29.984375 6.59375 
Q 38.421875 6.59375 43.015625 9.90625 
Q 47.609375 13.234375 47.609375 19.390625 
Q 47.609375 24.75 44.3125 27.78125 
Q 41.015625 30.8125 33.5 32.328125 
L 27.484375 33.5 
Q 16.453125 35.6875 11.515625 40.375 
Q 6.59375 45.0625 6.59375 53.421875 
Q 6.59375 63.09375 13.40625 68.65625 
Q 20.21875 74.21875 32.171875 74.21875 
Q 37.3125 74.21875 42.625 73.28125 
Q 47.953125 72.359375 53.515625 70.515625 
z
" id="DejaVuSans-83"/>
      <path d="M 18.109375 8.203125 
L 18.109375 -20.796875 
L 9.078125 -20.796875 
L 9.078125 54.6875 
L 18.109375 54.6875 
L 18.109375 46.390625 
Q 20.953125 51.265625 25.265625 53.625 
Q 29.59375 56 35.59375 56 
Q 45.5625 56 51.78125 48.09375 
Q 58.015625 40.1875 58.015625 27.296875 
Q 58.015625 14.40625 51.78125 6.484375 
Q 45.5625 -1.421875 35.59375 -1.421875 
Q 29.59375 -1.421875 25.265625 0.953125 
Q 20.953125 3.328125 18.109375 8.203125 
z
M 48.6875 27.296875 
Q 48.6875 37.203125 44.609375 42.84375 
Q 40.53125 48.484375 33.40625 48.484375 
Q 26.265625 48.484375 22.1875 42.84375 
Q 18.109375 37.203125 18.109375 27.296875 
Q 18.109375 17.390625 22.1875 11.75 
Q 26.265625 6.109375 33.40625 6.109375 
Q 40.53125 6.109375 44.609375 11.75 
Q 48.6875 17.390625 48.6875 27.296875 
z
" id="DejaVuSans-112"/>
     </defs>
     <use xlink:href="#DejaVuSans-83"/>
     <use x="63.476562" xlink:href="#DejaVuSans-112"/>
     <use x="126.953125" xlink:href="#DejaVuSans-97"/>
     <use x="188.232422" xlink:href="#DejaVuSans-105"/>
     <use x="216.015625" xlink:href="#DejaVuSans-110"/>
    </g>
   </g>
   <g id="text_34">
    <!-- Sweden -->
    <g transform="translate(299.43562 114.018508)scale(0.1 -0.1)">
     <use xlink:href="#DejaVuSans-83"/>
     <use x="63.476562" xlink:href="#DejaVuSans-119"/>
     <use x="145.263672" xlink:href="#DejaVuSans-101"/>
     <use x="206.787109" xlink:href="#DejaVuSans-100"/>
     <use x="270.263672" xlink:href="#DejaVuSans-101"/>
     <use x="331.787109" xlink:href="#DejaVuSans-110"/>
    </g>
   </g>
   <g id="text_35">
    <!-- Switzerland -->
    <g transform="translate(386.284085 120.909357)scale(0.1 -0.1)">
     <use xlink:href="#DejaVuSans-83"/>
     <use x="63.476562" xlink:href="#DejaVuSans-119"/>
     <use x="145.263672" xlink:href="#DejaVuSans-105"/>
     <use x="173.046875" xlink:href="#DejaVuSans-116"/>
     <use x="212.255859" xlink:href="#DejaVuSans-122"/>
     <use x="264.746094" xlink:href="#DejaVuSans-101"/>
     <use x="326.269531" xlink:href="#DejaVuSans-114"/>
     <use x="367.382812" xlink:href="#DejaVuSans-108"/>
     <use x="395.166016" xlink:href="#DejaVuSans-97"/>
     <use x="456.445312" xlink:href="#DejaVuSans-110"/>
     <use x="519.824219" xlink:href="#DejaVuSans-100"/>
    </g>
   </g>
   <g id="text_36">
    <!-- United Kingdom -->
    <g transform="translate(263.756469 88.378483)scale(0.1 -0.1)">
     <defs>
      <path d="M 8.6875 72.90625 
L 18.609375 72.90625 
L 18.609375 28.609375 
Q 18.609375 16.890625 22.84375 11.734375 
Q 27.09375 6.59375 36.625 6.59375 
Q 46.09375 6.59375 50.34375 11.734375 
Q 54.59375 16.890625 54.59375 28.609375 
L 54.59375 72.90625 
L 64.5 72.90625 
L 64.5 27.390625 
Q 64.5 13.140625 57.4375 5.859375 
Q 50.390625 -1.421875 36.625 -1.421875 
Q 22.796875 -1.421875 15.734375 5.859375 
Q 8.6875 13.140625 8.6875 27.390625 
z
" id="DejaVuSans-85"/>
      <path id="DejaVuSans-32"/>
      <path d="M 9.8125 72.90625 
L 19.671875 72.90625 
L 19.671875 42.09375 
L 52.390625 72.90625 
L 65.09375 72.90625 
L 28.90625 38.921875 
L 67.671875 0 
L 54.6875 0 
L 19.671875 35.109375 
L 19.671875 0 
L 9.8125 0 
z
" id="DejaVuSans-75"/>
     </defs>
     <use xlink:href="#DejaVuSans-85"/>
     <use x="73.193359" xlink:href="#DejaVuSans-110"/>
     <use x="136.572266" xlink:href="#DejaVuSans-105"/>
     <use x="164.355469" xlink:href="#DejaVuSans-116"/>
     <use x="203.564453" xlink:href="#DejaVuSans-101"/>
     <use x="265.087891" xlink:href="#DejaVuSans-100"/>
     <use x="328.564453" xlink:href="#DejaVuSans-32"/>
     <use x="360.351562" xlink:href="#DejaVuSans-75"/>
     <use x="425.927734" xlink:href="#DejaVuSans-105"/>
     <use x="453.710938" xlink:href="#DejaVuSans-110"/>
     <use x="517.089844" xlink:href="#DejaVuSans-103"/>
     <use x="580.566406" xlink:href="#DejaVuSans-100"/>
     <use x="644.042969" xlink:href="#DejaVuSans-111"/>
     <use x="705.224609" xlink:href="#DejaVuSans-109"/>
    </g>
   </g>
   <g id="text_37">
    <!-- Australia -->
    <g transform="translate(68.371549 205.227763)scale(0.1 -0.1)">
     <use xlink:href="#DejaVuSans-65"/>
     <use x="68.408203" xlink:href="#DejaVuSans-117"/>
     <use x="131.787109" xlink:href="#DejaVuSans-115"/>
     <use x="183.886719" xlink:href="#DejaVuSans-116"/>
     <use x="223.095703" xlink:href="#DejaVuSans-114"/>
     <use x="264.208984" xlink:href="#DejaVuSans-97"/>
     <use x="325.488281" xlink:href="#DejaVuSans-108"/>
     <use x="353.271484" xlink:href="#DejaVuSans-105"/>
     <use x="381.054688" xlink:href="#DejaVuSans-97"/>
    </g>
   </g>
   <g id="text_38">
    <!-- US -->
    <g transform="translate(428.261768 93.441126)scale(0.1 -0.1)">
     <use xlink:href="#DejaVuSans-85"/>
     <use x="73.193359" xlink:href="#DejaVuSans-83"/>
    </g>
   </g>
   <g id="text_39">
    <!-- Canada -->
    <g transform="translate(151.53149 164.356669)scale(0.1 -0.1)">
     <use xlink:href="#DejaVuSans-67"/>
     <use x="69.824219" xlink:href="#DejaVuSans-97"/>
     <use x="131.103516" xlink:href="#DejaVuSans-110"/>
     <use x="194.482422" xlink:href="#DejaVuSans-97"/>
     <use x="255.761719" xlink:href="#DejaVuSans-100"/>
     <use x="319.238281" xlink:href="#DejaVuSans-97"/>
    </g>
   </g>
   <g id="text_40">
    <!-- Japan -->
    <g transform="translate(70.702049 207.313483)scale(0.1 -0.1)">
     <defs>
      <path d="M 9.8125 72.90625 
L 19.671875 72.90625 
L 19.671875 5.078125 
Q 19.671875 -8.109375 14.671875 -14.0625 
Q 9.671875 -20.015625 -1.421875 -20.015625 
L -5.171875 -20.015625 
L -5.171875 -11.71875 
L -2.09375 -11.71875 
Q 4.4375 -11.71875 7.125 -8.046875 
Q 9.8125 -4.390625 9.8125 5.078125 
z
" id="DejaVuSans-74"/>
     </defs>
     <use xlink:href="#DejaVuSans-74"/>
     <use x="29.492188" xlink:href="#DejaVuSans-97"/>
     <use x="90.771484" xlink:href="#DejaVuSans-112"/>
     <use x="154.248047" xlink:href="#DejaVuSans-97"/>
     <use x="215.527344" xlink:href="#DejaVuSans-110"/>
    </g>
   </g>
   <g id="text_41">
    <!-- China -->
    <g transform="translate(60.563112 209.384664)scale(0.1 -0.1)">
     <use xlink:href="#DejaVuSans-67"/>
     <use x="69.824219" xlink:href="#DejaVuSans-104"/>
     <use x="133.203125" xlink:href="#DejaVuSans-105"/>
     <use x="160.986328" xlink:href="#DejaVuSans-110"/>
     <use x="224.365234" xlink:href="#DejaVuSans-97"/>
    </g>
   </g>
   <g id="text_42">
    <!-- Russia -->
    <g transform="translate(194.720275 169.300553)scale(0.1 -0.1)">
     <defs>
      <path d="M 44.390625 34.1875 
Q 47.5625 33.109375 50.5625 29.59375 
Q 53.5625 26.078125 56.59375 19.921875 
L 66.609375 0 
L 56 0 
L 46.6875 18.703125 
Q 43.0625 26.03125 39.671875 28.421875 
Q 36.28125 30.8125 30.421875 30.8125 
L 19.671875 30.8125 
L 19.671875 0 
L 9.8125 0 
L 9.8125 72.90625 
L 32.078125 72.90625 
Q 44.578125 72.90625 50.734375 67.671875 
Q 56.890625 62.453125 56.890625 51.90625 
Q 56.890625 45.015625 53.6875 40.46875 
Q 50.484375 35.9375 44.390625 34.1875 
z
M 19.671875 64.796875 
L 19.671875 38.921875 
L 32.078125 38.921875 
Q 39.203125 38.921875 42.84375 42.21875 
Q 46.484375 45.515625 46.484375 51.90625 
Q 46.484375 58.296875 42.84375 61.546875 
Q 39.203125 64.796875 32.078125 64.796875 
z
" id="DejaVuSans-82"/>
     </defs>
     <use xlink:href="#DejaVuSans-82"/>
     <use x="64.982422" xlink:href="#DejaVuSans-117"/>
     <use x="128.361328" xlink:href="#DejaVuSans-115"/>
     <use x="180.460938" xlink:href="#DejaVuSans-115"/>
     <use x="232.560547" xlink:href="#DejaVuSans-105"/>
     <use x="260.34375" xlink:href="#DejaVuSans-97"/>
    </g>
   </g>
   <g id="text_43">
    <!-- Ukraine -->
    <g transform="translate(217.007277 164.101727)scale(0.1 -0.1)">
     <use xlink:href="#DejaVuSans-85"/>
     <use x="73.193359" xlink:href="#DejaVuSans-107"/>
     <use x="131.103516" xlink:href="#DejaVuSans-114"/>
     <use x="172.216797" xlink:href="#DejaVuSans-97"/>
     <use x="233.496094" xlink:href="#DejaVuSans-105"/>
     <use x="261.279297" xlink:href="#DejaVuSans-110"/>
     <use x="324.658203" xlink:href="#DejaVuSans-101"/>
    </g>
   </g>
   <g id="text_44">
    <!-- India -->
    <g transform="translate(114.002478 196.475431)scale(0.1 -0.1)">
     <use xlink:href="#DejaVuSans-73"/>
     <use x="29.492188" xlink:href="#DejaVuSans-110"/>
     <use x="92.871094" xlink:href="#DejaVuSans-100"/>
     <use x="156.347656" xlink:href="#DejaVuSans-105"/>
     <use x="184.130859" xlink:href="#DejaVuSans-97"/>
    </g>
   </g>
  </g>
 </g>
 <defs>
  <clipPath id="pa85ec0fc72">
   <rect height="217.44" width="446.4" x="39.765625" y="2.263629"/>
  </clipPath>
 </defs>
</svg>
